<?xml version="1.0" standalone="no"?>
<!DOCTYPE svg PUBLIC "-//W3C//DTD SVG 1.1//EN" "http://www.w3.org/Graphics/SVG/1.1/DTD/svg11.dtd" >
<svg xmlns="http://www.w3.org/2000/svg">
<metadata></metadata>
<defs>
<font id="fontasiaregular" horiz-adv-x="372" >
<font-face units-per-em="2048" ascent="1700" descent="-348" />
<missing-glyph horiz-adv-x="733" />
<glyph horiz-adv-x="2048" />
<glyph horiz-adv-x="2048" />
<glyph unicode="&#xd;" horiz-adv-x="2048" />
<glyph unicode=" "  horiz-adv-x="733" />
<glyph unicode="&#x09;" horiz-adv-x="733" />
<glyph unicode="&#xa0;" horiz-adv-x="733" />
<glyph unicode="!" horiz-adv-x="270" d="M35 43q-4 20 10 47q0 4 3 6t5 6q29 31 80 35q18 0 36 -6.5t26 -24.5q4 -10 4 -32q-8 -27 -30 -45.5t-48 -24.5q-16 -6 -29.5 -4t-28.5 6q-10 8 -18 16.5t-10 20.5zM57 1243q2 10 2 19q0 8 4 16q6 18 21.5 31.5t34.5 21.5q14 4 29.5 8t31.5 -2q17 -4 33 -16 q12 -16 9 -35.5t-3 -38.5q-6 -66 -13 -131t-16 -133q-2 -16 -2 -33q0 -14 -4 -30q-16 -174 -24 -346.5t-13 -348.5q0 -6 -5 -12t-9 -10q-2 0 -6 -4q-23 4 -27 18q-2 12 0 26.5t0 26.5v142v80t-2 79v4l-2 82q0 29 -2 56.5t-2 56.5q-4 57 -7 114.5t-7 112.5l-2 33q-4 41 -7 82 t-8 80q-2 12 -2 25q0 14 -2 26z" />
<glyph unicode="&#x22;" horiz-adv-x="411" d="M31 1253q-4 20 7 39t28 29q18 12 38 17t43 -3q8 -6 16.5 -10t12.5 -14.5t4 -24.5q0 -12 -4 -22q-10 -23 -20.5 -42.5t-16.5 -41.5q-4 -6 -5 -12.5t-5 -12.5q-4 -10 -6 -20.5t-2 -20.5q-4 -14 -5 -29.5t-18 -17.5q-6 0 -12 3t-8 9q-8 47 -18.5 90t-28.5 84zM229 1270 q-4 12 3.5 22.5t13.5 20.5q31 31 73 33q8 2 13.5 -0.5t13.5 -4.5q14 -2 21.5 -14t11.5 -27q2 -10 -2 -18t-8 -18q2 -6 -2.5 -9.5t-4.5 -7.5q-41 -74 -57 -164q-6 -10 -22 -6q-10 4 -12.5 15.5t-6.5 19.5q-6 63 -28 129q-2 8 -6.5 14.5t-0.5 14.5z" />
<glyph unicode="$" horiz-adv-x="884" d="M43 160q0 12 2 14q6 6 12 4q12 -2 16.5 -11t10.5 -15q43 -49 97.5 -83t115.5 -44q27 0 35 14q8 20 9 45t5 49l6 82q0 12 -1 23.5t3 21.5q-2 23 1 41t3 41q2 4 1 6t1 6q-2 8 -1 14.5t1 14.5q-2 4 -1 6t1 4q0 25 1 48.5t1 45.5q0 45 -1 87t1 90q0 12 -3 25t8 24q2 6 12 6 q14 -2 18 -17q2 -2 2 -10v-8v-8q-2 -27 -3 -53.5t-1 -55.5v-53v-27q0 -20 -2 -26q2 -23 1 -43.5t1 -42.5v-58v-28q0 -27 2 -31q4 -49 5 -101.5t10 -101.5q0 -6 3 -8t1 -6q2 -4 6 -3t6 -3q20 2 43 12q10 8 20.5 15.5t20.5 11.5q29 23 56.5 52.5t41.5 63.5q23 41 31 87.5 t12 93.5q-2 23 -4 44t-6 44q0 8 -2 13t-2 15q-8 10 -11 23.5t-7 26.5q-4 4 -5 8q0 4 -6 8q-4 16 -11 29.5t-15 23.5q-4 10 -12.5 17.5t-14.5 17.5q-4 2 -5 5t-7 7q-25 25 -53.5 46.5t-61.5 33.5q-8 0 -14 2t-15 4q-16 2 -34.5 6.5t-34.5 -0.5q-2 4 -6 2t-9 3q-12 0 -24 -3.5 t-23 -3.5q-4 0 -8 -2t-8 0q-16 -4 -31.5 -7t-29.5 -11q-6 0 -12.5 -3t-12.5 1q-10 10 -6 20q12 10 27.5 17.5t27.5 15.5q82 39 180 43q10 -2 21.5 -1t19.5 -1q25 -4 48.5 -8t45.5 -12q10 -2 20.5 -6.5t20.5 -8.5q41 -14 76 -43q51 -35 91 -84t63 -106q16 -45 24.5 -93 t3.5 -98q-8 -61 -29.5 -117.5t-60.5 -103.5q-41 -53 -96 -90t-117 -49q-8 -2 -13 -3t-11 -1q-4 0 -5 -2t-5 0q-16 -6 -35 -6q-16 0 -31 -13q-6 -4 -5 -11t3 -13q4 -35 9 -67t9 -66q2 -20 -12 -35t-33 -27q-4 4 -4 -2q-27 -14 -59 -2q-25 14 -23 41l-2 8l2 43q4 23 5 44.5 t6 43.5q-2 14 4 28.5t-11 27.5q-8 8 -21 9t-24 7q-16 0 -29.5 4t-29.5 10q-6 4 -11 5t-9 6q-23 10 -42.5 25.5t-41.5 31.5q-4 6 -12.5 12t-12.5 15q-10 12 -20.5 24t-20.5 27zM143 905q-4 16 10.5 20.5t24.5 10.5l3 2l9 6q18 8 36 18.5t38 14.5q4 2 6 4t6 2q4 4 12.5 5 t12.5 5q12 4 24.5 6t24.5 9q6 0 12.5 2t12.5 4q4 4 12 2t12 2q8 -2 12.5 2t8.5 2q4 4 8 5t25 1h20l2 2h41v2h8h-2v-2q10 0 13 2h2v-2h30q4 -4 11.5 -2t11.5 0q2 2 4 0t6 0q4 -4 6 -2t6 -2q10 4 18.5 -2t18.5 -8q10 -4 17.5 -14.5t7.5 -16.5q0 -4 4 -8q4 -20 -5 -36.5 t-26 -27.5q-4 0 -4 -2t-2 -2q-8 -2 -13 -5t-14 -5q-14 0 -25 -2t-24 2q-47 8 -94 16.5t-94 8.5h-51q-12 0 -24.5 -1t-25.5 -3q-12 0 -23 -2.5t-22 -4.5l-73 -16q-10 -4 -15 10zM334 1284q-2 20 12 39q23 23 53 10q13 -6 15 -14l2 -12q-4 -43 -11.5 -85t-9.5 -83v-31 q-2 -10 -1 -21.5t-5 -19.5q-2 -2 -6 -2t-6 -2q-12 4 -9 16.5t-1 22.5v8q0 -10 -5 10q0 2 2.5 3t2.5 5q-4 41 -13.5 79t-19.5 77z" />
<glyph unicode="&#x26;" horiz-adv-x="935" d="M51 354q0 -2 2 -2t0 -2q2 -4 0 -7t0 -7q2 -6 2 -14q0 -4 4 -13q0 -12 3.5 -21t7.5 -20q2 -2 2 -6t2 -6q0 -6 8 -20q4 -12 10 -21q4 -6 6 -12t6 -10q2 -4 4.5 -6.5t4.5 -8.5q2 0 2 -4q0 -2 2 0q2 -2 0 -4q16 -25 34.5 -44.5t38.5 -37.5q23 -14 45.5 -29.5t49.5 -23.5 q14 -10 29.5 -13.5t29.5 -7.5q4 -4 7 -2t7 -2q6 0 12.5 -3t16.5 -3q10 -4 25.5 -3t25.5 -1q4 0 6 2t7 -2q6 2 18 2t18 2q20 4 40 7t36 9q20 4 37.5 13.5t34.5 19.5q8 2 18 13q66 45 113 110q2 8 7 13.5t7 11.5q4 6 7.5 14t7.5 14q4 10 7 18.5t7 18.5q10 41 15 84t-3 86 q-14 92 -69 172q-6 10 -15.5 21.5t-5.5 27.5q4 4 4 7q0 2 4 6q37 29 69 62.5t52 74.5q10 23 17.5 45t9.5 49q4 74 -45 127q-16 12 -33.5 21.5t-40.5 11.5q-12 -2 -22.5 -4t-20.5 -10q-4 -4 -10 -9.5t-10 -9.5q-16 -23 -13 -39q0 -6 1 -12t7 -8q8 -14 20.5 -18.5t29.5 -6.5 q6 -4 13 -8t13 -8q4 -6 9.5 -13.5t7.5 -15.5q4 -16 6 -22q0 -20 -7.5 -38t-15.5 -34q-12 -20 -26.5 -37.5t-30.5 -36.5q-12 -10 -22.5 -18t-24.5 -17q-29 -20 -59.5 -39.5t-65.5 -38.5q-2 -2 -7 -5t-14 -7q-29 -23 -57.5 -43t-54.5 -49q-10 -14 -18.5 -27.5t-16.5 -27.5 q-10 -20 -12 -42t0 -44q14 -51 67 -58q51 0 72 37q8 10 8 27q0 18 -2 29q-4 35 -1 67.5t19 61.5q14 23 37 38t51 13q6 -2 11.5 -1t9.5 -3l23 -4q4 -4 7 -6.5t7 -6.5q10 -10 18 -19t19 -22q6 -12 13 -24.5t11 -24.5q8 -16 9.5 -33.5t5.5 -33.5v-68v-8q-4 -35 -12.5 -66.5 t-22.5 -60.5q-10 -18 -19.5 -37.5t-25.5 -36.5h-2l-13 -16q-16 -10 -29.5 -21.5t-29.5 -19.5q-59 -29 -123 -13q-16 4 -32.5 9.5t-32.5 15.5q-4 4 -9 4q-53 35 -93 89.5t-62 113.5q-4 27 -12.5 52.5t-12.5 53.5q-2 10 -3 21.5t-1 21.5v43q4 55 19.5 106.5t46.5 96.5l18 22.5 t25 22.5q10 12 26.5 19.5t30.5 15.5q2 4 5 3t5 1q18 8 37 12.5t41 1.5q27 2 43 17q8 18 6 31q-4 18 -22.5 23t-34.5 9q-4 4 -8 2t-9 2q-35 6 -61 25q-12 10 -24.5 17.5t-24.5 19.5q-25 25 -35 45l-12 18q-33 57 -33 129q-2 57 27 113q12 23 30 35q8 6 16.5 12t18.5 8 q4 4 7 2t5 2q31 4 52 -2q4 -2 6 0t4 -2q20 -6 36.5 -19t33.5 -30q10 -6 15 -16t13 -21q10 -14 12 -22q8 -10 19.5 -19.5t28.5 -7.5q6 -4 12 -2t10 2q37 8 57 45q10 29 -4 47q-2 4 -1 6.5t-3 4.5q-18 16 -40 27.5t-42 23.5q-20 6 -38.5 12t-38.5 10q-98 16 -183.5 -22.5 t-134.5 -124.5q-4 -4 -4 -8l-4 -4q-23 -47 -30 -99.5t9 -105.5q4 -8 5.5 -17.5t5.5 -17.5q14 -31 31.5 -58.5t41.5 -50.5h7q8 -10 20 -20q6 -8 16.5 -12t18.5 -13q6 -12 -6 -24q-16 -10 -29.5 -19.5t-26.5 -19.5q-23 -18 -45 -40t-41 -46q-8 -8 -13 -15.5t-9 -15.5 q-4 -2 -3 -5t-3 -5q-14 -20 -23.5 -41t-19.5 -43q-2 -2 -2 -8q0 -4 -4 -8q0 -12 -4.5 -23.5t-6.5 -28.5q-2 -10 -3 -19t-1 -20v-34v-13z" />
<glyph unicode="'" horiz-adv-x="219" d="M27 1268q0 10 4 17t8 18q39 53 106 43q25 -6 37 -29q10 -25 0 -47q-6 -8 -8 -16.5t-8 -16.5q-12 -27 -17.5 -56.5t-9.5 -60.5q-4 -10 -4 -20v-19q-4 -10 -10 -14q-4 0 -9 2l-10 4q-6 12 -9 26.5t-9 28.5q-10 23 -20.5 46.5t-26.5 44.5q-8 10 -13 22t-1 27z" />
<glyph unicode="(" horiz-adv-x="1079" d="M53 365v16t2 14q-4 27 0 56v26v23v28t2 27q0 10 1 18.5t1 14.5q2 2 1 3l-1 1q2 14 2 24t2 23q4 16 5.5 30.5t3.5 30.5q2 4 2 17q4 18 6 37.5t6 36.5q4 25 8 40v9q2 6 3 14t5 16q4 16 9.5 34t9.5 34q2 10 5 16.5t5 16.5v8q4 6 4 10t2 10q6 16 12.5 30.5t16.5 27.5 q23 25 57 28q16 4 34 -1t26 -21q8 -14 4 -28.5t-6 -28.5q-16 -39 -29.5 -81t-28.5 -83q-4 -12 -7 -24.5t-7 -22.5q-4 -16 -9 -33t-12 -33q-6 -35 -15 -67.5t-15 -67.5q-4 -12 -6 -26.5t-7 -26.5q-4 -23 -7 -42.5t-7 -39.5q-6 -55 -12 -109.5t-8 -113.5q-2 -16 -1 -34t-1 -34 q2 -20 1 -36.5t3 -35.5q0 -12 1 -26.5t3 -24.5q2 -29 6 -57.5t10 -57.5q4 -23 10.5 -47t12.5 -49q8 -16 12 -30.5t12 -30.5q4 -10 -1 -16.5t-9 -12.5q-10 -16 -37 -16q-6 2 -13 5t-11 11q-4 16 -7.5 32.5t-3.5 33.5q-2 8 -2 14t-2 10q0 8 -1 15.5t-1 13.5q2 6 -1 12t-3 12 t-1 13.5t-1 11.5q-4 4 -2 11t-2 11q0 12 -2 21q-2 4 0 6t-2 6q-2 29 -4 54.5t-6 52.5q-2 4 0 6t-2 6q-2 18 -3 37q0 18 -2 38.5t-4 40t0 42.5q-2 8 -2 24v23v45q-2 6 -1 14t-1 15z" />
<glyph unicode=")" horiz-adv-x="305" d="M39 -236q4 4 2 7.5t2 7.5q0 4 2 8t0 8q4 4 4 8t4 9q4 10 5 18t5 16q4 14 8.5 26.5t8.5 25.5q14 47 26.5 94t26.5 94q4 25 11.5 50.5t11.5 51.5q35 164 43 336q0 23 1 43.5t-1 42.5q0 90 -13 174q-4 12 -5 23.5t-3 21.5q-8 47 -19.5 92.5t-27.5 86.5q-4 8 -8 24q-4 4 0 7 t2 8q4 23 22 26q23 4 29 -2q4 2 3 -1t3 -3q10 -10 12.5 -22.5t6.5 -26.5q0 -4 1 -9t1 -12q0 -2 1 -3t1 -5q4 -14 4 -28q0 -12 2 -27q4 -16 7 -31.5t3 -32.5q4 -6 2 -8q2 -4 2 -12q0 -6 2 -12q0 -12 2 -21.5t4.5 -20t2.5 -18.5t2 -18q0 -4 1 -6t1 -6q0 -10 2 -21.5t2 -21.5 q4 -41 6 -82t6 -80q0 -4 1 -9.5t-1 -9.5q6 -61 6 -123q2 -8 1 -17t1 -15q0 -47 -1 -92.5t-5 -92.5v-4q-2 -4 0 -8t-2 -6q2 -4 0 -9t0 -10q-4 -16 -4 -34q0 -16 -4 -33v-4q0 -4 -1 -5t-1 -3q2 -4 0 -9.5t0 -11.5q-2 -6 -2 -12t-4 -12q2 -8 -2 -17q-2 -27 -11 -55q-4 -4 -2 -9 t-2 -10q-8 -23 -10 -45q-4 -10 -6 -18t-4 -19q-2 -2 -1 -3t-1 -3q-8 -27 -15.5 -52t-23.5 -44q-20 -20 -41 -29q-33 -10 -57.5 4.5t-24.5 40.5z" />
<glyph unicode="," horiz-adv-x="225" d="M31 57q-4 -14 1 -26.5t13 -22.5q16 -8 26.5 -28.5t20.5 -42.5q6 -14 9 -27.5t10 -28.5q4 -2 9 -4t9 0q8 4 10 12v21l1 5l3 15q4 31 9.5 50.5t17.5 48.5q6 6 8 14t8 16q10 22 0 47q-16 25 -36 31q-70 6 -107 -45l-8 -16t-4 -19z" />
<glyph unicode="-" d="M43 342q-18 29 0 57q8 14 18.5 23.5t22.5 17.5q2 2 5 1t5 3q18 8 39 9q23 0 45 -2h12h-4q0 -6 7 0h16l-2 -2q14 2 29 2h30l2 2q8 0 15.5 -1t17.5 -1h-2q6 -2 18 -11q10 -4 14.5 -16t6.5 -23q-2 -29 -21.5 -48t-44.5 -29q-4 0 -7 -2.5t-7 -2.5l-22 -4l-29 2h-27 q-12 0 -24 2q-29 2 -62 0t-51 23z" />
<glyph unicode="." horiz-adv-x="221" d="M31 65.5q4 16.5 14 30.5q8 10 16.5 16.5t18.5 12.5q23 10 51.5 11t46.5 -17q8 -9 10 -13q10 -35 -10 -63q-10 -12 -22.5 -20.5t-24.5 -14.5q-37 -16 -74 0q-16 6 -24 25q-6 16 -2 32.5z" />
<glyph unicode="/" horiz-adv-x="718" d="M39 63.5q8 18.5 18 34.5l4 4q10 20 21.5 40t21.5 40q4 4 6.5 10.5t6.5 12.5q8 12 12 23.5t10 21.5q4 8 9.5 16t9.5 17l88 184q12 27 24.5 53.5t24.5 52.5q4 12 10 25.5t10 26.5q6 10 10.5 21t10.5 22v-2l2 2l-2 2q4 6 5 13t5 13q4 14 10 26.5t13 29.5l39 108l2 2q2 0 4 2 l-2 4q29 76 53 154t49 156q6 29 15.5 54t19.5 54q4 16 17.5 28.5t27.5 18.5q10 4 21.5 6t23.5 2q10 -4 21.5 -9t17.5 -15q6 -20 2 -35q-4 -8 -4 -12q-10 -27 -25.5 -50.5t-27.5 -52.5q-2 -6 -4.5 -11l-4.5 -9q-29 -53 -55.5 -108.5t-50.5 -110.5q-4 -4 -6 -9.5t-6 -9.5 q-27 -61 -53.5 -122.5t-53.5 -122.5q-6 -12 -9 -24.5t-9 -25.5q-12 -25 -22.5 -50t-20.5 -52q-4 -14 -9.5 -25.5t-9.5 -23.5q-4 -14 -9 -26.5t-13 -26.5q0 -4 -1 -7.5t-3 -9.5q-23 -66 -45.5 -132t-44.5 -134q-4 -16 -10.5 -34.5t-10.5 -35.5q-4 -10 -9 -18t-16 -14 q-2 -4 -5 -5.5t-7 -5.5q-12 -8 -27.5 -12t-33.5 0q0 4 -3 3t-8 1l-12 8t-8 13q-12 18 -4 36.5z" />
<glyph unicode="0" horiz-adv-x="915" d="M47 659q4 10 2 17.5t0 17.5q-4 6 -1 12.5t1 12.5v20q0 12 2 23q-2 8 -1 15t1 14h2q0 8 2 14t-2 12q4 2 4 17q-2 4 1 6t3 6q6 47 19 90l14 47q16 47 38 94t52 88q6 10 13.5 19.5t15.5 19.5l2 2q16 18 33.5 37t38.5 31q23 18 53 35q4 4 10 7t17 -1q6 -4 6 -10q0 -12 -8 -21 q-33 -31 -60 -70q-4 -8 -9 -14t-9 -14q-4 -10 -6 -19.5t-9 -19.5q-4 -20 -11 -38.5t-11 -39.5q-10 -39 -17.5 -79t-11.5 -81q-8 -72 -10 -143.5t2 -144.5q0 -4 1 -7.5t1 -7.5q6 -63 14.5 -125.5t24.5 -122.5q20 -70 47 -134t72 -122q23 -27 53.5 -45t67.5 -20q12 0 22 6v-2 q4 0 21 8q12 8 21 20.5t20 24.5q6 12 14 26.5t14 29.5q8 20 15.5 40.5t15.5 40.5v5q8 29 14 55t15 53q33 152 32 318q2 23 1 41t-1 40q2 4 0 5.5t-2 5.5q2 16 -2 31.5t-2 33.5h-2q-2 23 -5 44.5t-7 43.5q-2 10 -3 19.5t-3 17.5q-2 4 -2 14q-2 8 -3 13.5t-3 13.5 q-4 18 -10.5 36.5t-10.5 37.5q-4 6 -5 14t-5 14q-2 4 -4 9.5t-4 9.5q-4 10 -7.5 17t-7.5 16q-10 23 -21 44t-28 42q-10 18 -27.5 33.5t-33.5 29.5q-8 4 -15.5 7t-15.5 8q-6 4 -14.5 8t-5.5 14v2q4 4 8 9t8 5q10 0 17.5 -2t15.5 -2q6 -2 16 -2q47 -8 94 -39q37 -23 69 -55.5 t56 -69.5q4 -10 11.5 -17t11.5 -17q6 -16 16 -31q14 -29 26.5 -57.5t22.5 -57.5q-2 -6 2 -10t0 -10q6 -4 11 -21q-2 -4 0 -5t0 -3q4 -4 4 -8t2 -8q8 -25 11 -49.5t9 -51.5q-2 -4 0 -6t2 -6q4 -12 3 -22.5t3 -22.5q0 -10 2 -22.5t2 -24.5q0 -2 1 -4t-1 -6q2 -8 2 -27 q-2 -10 -1 -18.5t1 -18.5q0 -6 -1 -12t1 -14q-4 -4 -2 -8.5t0 -8.5q2 -4 1 -9t-1 -9q-4 -18 -3 -38t-5 -38l2 -2q-4 -12 -5 -23.5t-5 -21.5v-4q0 -2 -2 -2q2 -4 -1 -8.5t-1 -8.5q0 -8 -3 -14t-1 -16q-4 -2 -2 -4.5t0 -4.5q-4 -10 -6 -18t-6 -16q-4 -16 -9.5 -29.5 t-9.5 -28.5q0 -4 -3 -7t-3 -7q-6 -10 -11 -22.5t-12 -22.5q-2 -8 -6 -15.5t-8 -11.5q-2 -6 -7 -10t-5 -10q-6 -10 -14.5 -19.5t-14.5 -19.5q-10 -12 -19.5 -24.5t-19.5 -22.5q-2 -4 -6 -6t-6 -7l-7 -7t-3 -7q-16 -12 -29.5 -23.5t-30.5 -21.5q-27 -18 -56.5 -26.5 t-61.5 -14.5q-8 0 -17 -4q-23 0 -45 2t-43 8q-10 4 -17.5 5t-15.5 5q-35 14 -62.5 37t-51.5 47l-8.5 8.5l-8.5 8.5v4q-16 14 -27.5 33.5t-23.5 36.5q-10 20 -20.5 39.5t-18.5 39.5q-4 6 -6 11.5t-6 13.5q0 4 -2 7t-2 7q-6 12 -10.5 25.5t-8.5 28.5q-6 16 -11 32.5t-9 32.5 q-4 23 -8 47.5t-9 48.5q-4 18 -6 38t-4 38v6q-2 14 -1 24.5t-3 24.5z" />
<glyph unicode="1" horiz-adv-x="342" d="M33 1188q-4 8 6 18q6 6 15 5t19.5 3.5t18.5 8.5t19 8q29 14 52 33.5t38 50.5q8 10 18 21.5t27 13.5q10 2 19.5 -4.5t15.5 -12.5q6 -10 3 -23.5t-1 -25.5q-6 -82 -14.5 -159.5t-12.5 -157.5q-4 -10 -2 -23.5t-2 -25.5v-17q0 -8 -2 -18q-4 -96 -7 -186.5t1 -186.5 q2 -45 3 -94t5 -99q4 -53 11 -107t11 -110q2 -23 4.5 -45t6.5 -45q18 -119 49 -231q4 -23 -8.5 -43.5t-30.5 -32.5q-8 -4 -14.5 -8t-16.5 -10q-29 -6 -51 -2q-2 4 -4 2t-4 2q-8 -2 -12.5 3t-10.5 7q-4 4 -6 10t-6 12q0 10 -4 15.5t-2 13.5v19l-8 182q-2 106 -3 216.5 t3 219.5l8 203v20l12 168l14 176q4 29 6.5 59.5t2.5 59.5q0 12 1 27.5t-1 25.5l2 6l-4 56q-2 12 -15 14q-14 2 -26.5 -3t-24.5 -9q-20 -6 -44 -9t-46 1q-8 2 -8 8z" />
<glyph unicode="2" horiz-adv-x="761" d="M49 61q-8 -31 10 -47q14 -14 38 -12t42 2q184 8 371 0q18 -4 36.5 1t31.5 15q31 25 24 60q-10 23 -29 29q-2 2 -20 2h-18q-33 -8 -63 -15.5l-62 -15.5q-33 -6 -65 -11.5t-66 -9.5l-56 -2h-33q-16 0 -24 13q-6 10 -3 20t7 21q16 37 34.5 70.5t41.5 66.5q16 23 28.5 43 t28.5 43q29 39 57.5 75.5t57.5 71.5q12 8 14 17q6 4 10 10t11 10q16 20 35.5 40t37.5 40q16 18 36 36.5t36 35.5q18 20 36.5 39.5t35.5 42.5q4 6 7 12t7 10q16 31 28.5 64.5t6.5 70.5q-4 29 -13.5 58.5t-27.5 52.5q-23 25 -48.5 44t-56.5 30q-41 16 -89 20t-95 -2 q-25 -2 -48.5 -7t-45.5 -13q-6 -4 -14.5 -6.5t-16.5 -6.5q-23 -8 -43 -18t-37 -21q-23 -14 -45 -29.5t-39 -37.5q0 -12 6 -15q2 -4 15 -2q49 43 110 68q4 4 10.5 5t12.5 5q10 0 17.5 2t17.5 4q2 0 6 2t8 2q2 2 19 3q16 0 18 2q12 2 24.5 1t24.5 -1h4q4 -2 7 -1t6 -1 q8 -2 16 -4.5t18 -6.5q8 -2 14.5 -6t14.5 -6q4 0 5 -2t5 -6q31 -20 47 -49q0 -4 2 -5t0 -4q4 -4 4 -8q0 -2 5 -6q2 -10 6 -19.5t2 -17.5q4 -18 2 -38.5t-6 -37.5q-2 -2 -1 -4t-1 -2q-6 -23 -14.5 -44t-22.5 -38q4 -4 -2 -4q-2 0 0 -2q-8 -10 -14.5 -20t-16.5 -21 q-2 -4 -6 -8t-6 -8q-10 -10 -18.5 -19.5t-16.5 -19.5q-4 -4 -8 -10t-11 -10q-10 -14 -21 -26.5t-22 -27.5q-10 -10 -15 -19t-11 -16q-35 -41 -66.5 -88t-62.5 -94q-18 -29 -35.5 -58.5t-34.5 -58.5q-2 -4 -5 -8t-5 -8q-20 -35 -39.5 -75t-36.5 -81z" />
<glyph unicode="3" horiz-adv-x="729" d="M47 6q0 14 8 21q29 6 55.5 12t55.5 14q25 10 52.5 21.5t51.5 25.5q41 23 76 54.5t66 66.5q23 27 40 57.5t29 61.5q4 10 7.5 20.5t5.5 20.5q8 23 12 51l-2 2q6 41 4 76l-2 25q0 25 -6 53q-2 12 -8.5 24.5t-10.5 26.5q-20 49 -59 90q-14 12 -25.5 21.5t-25.5 17.5 q-4 2 -16.5 10t-25 11.5t-26.5 7.5q-12 4 -26.5 6t-26.5 4q-23 -4 -35 12q-4 4 -3 11.5t1 13.5q4 4 4 10q4 0 8 3t8 5q14 10 25.5 21.5t24.5 19.5q16 20 31.5 37.5t29.5 38.5q0 4 4 8q4 8 8 15.5t9 15.5q10 25 16 52.5t4 57.5q2 4 0 5q-2 0 0 4q-4 4 -4 10t-2 10l-6 21 q-4 10 -8.5 19t-12.5 17q-8 12 -18 20.5t-21 18.5q-6 0 -9 4.5t-7 6.5q-16 4 -31.5 9t-32.5 7q-4 4 -8 3t-8 1q-20 2 -41.5 0t-44.5 -6q-4 -2 -9 -4t-11 -2q-10 -4 -18.5 -6t-18.5 2q-6 2 -6 14q2 12 11 15t17 8q18 10 37 16t37 12q88 27 174 15q18 -2 33.5 -7.5t32.5 -9.5 q23 -8 44 -21.5t40 -29.5q25 -23 35 -53.5t18 -61.5q4 -35 -2 -63q-2 -10 -4 -19.5t-4 -19.5q-4 -2 -3 -4t-2 -4q-18 -45 -47.5 -85t-64.5 -73v-14q12 -12 20 -11q18 -6 36 -11t34 -15q27 -14 49 -35q4 -2 10 -8q2 -4 4 -4t5 -4q4 -6 11 -12.5t11 -14.5q4 -4 7 -8t7 -10 q2 0 7 -11q4 -6 8 -11t8 -11q4 -8 7 -15.5t7 -11.5q8 -18 14.5 -35.5t8.5 -36.5q4 -4 2 -9t2 -9q4 -14 5 -29.5t3 -31.5q-2 -4 -1 -7.5t1 -7.5q0 -25 -1 -48t-7 -46q-4 -20 -10 -41q-20 -57 -56 -115q-4 0 -3 -2t-1 -4q-10 -12 -18 -25.5t-19 -25.5q-10 -8 -19 -19.5 t-20 -19.5q-4 -6 -11 -12t-13 -10q-8 -4 -16.5 -11.5t-18.5 -13.5q-4 2 -4 -2q0 -2 -2 -4q-18 -10 -37.5 -22.5t-40.5 -18.5q-4 -2 -6 -4t-6 -4q-47 -25 -86 -35q-4 -4 -10 -4t-11 -2q-20 -8 -39.5 -12.5t-40.5 -8.5q-4 2 -5 0t-5 -2q-6 -2 -12 -2q-4 0 -10 -4 q-6 2 -12.5 -1t-12.5 -3q-14 -2 -28.5 -1t-30.5 -1h-17q-6 0 -10 6zM209 834v2v-2z" />
<glyph unicode="4" horiz-adv-x="919" d="M45 299q2 23 15.5 40t29.5 34q6 6 13.5 13t13.5 17q31 33 59.5 67t56.5 71q4 4 5.5 7t7.5 7q16 25 34.5 49.5t32.5 52.5q20 29 37 57.5t33 57.5q29 57 52.5 114.5t37.5 117.5q2 12 5 24t14 19h12t12 -7q12 -14 13 -33.5t6 -35.5q0 -29 -1.5 -55.5t-5.5 -53.5 q-6 -31 -11 -60.5t-15 -60.5v-8t-4 -6q-4 -16 -10.5 -33.5t-12.5 -34.5q-2 -4 -2 -10q0 -4 -4 -8q-4 -10 -8 -20.5t-8 -20.5q-29 -59 -62 -114.5t-74 -106.5q-29 -39 -57.5 -73t-58.5 -68l-2 -13q4 -6 10 -6q8 0 14 -2q8 4 15 4q6 0 16 2q23 4 42 7t40 8q23 2 42 7t42 5 q4 4 10 3t10 1q14 2 25 2q10 0 24 2q2 0 4.5 2t6.5 2q10 0 18 2t19 0q10 2 19 6t13 17l2 8q4 16 3 32.5t4 32.5q-2 4 1 7.5t-1 7.5v18q0 10 2 21v28t2 27q0 25 1 49.5t3 48.5l8 176l2 60q2 35 3 64.5t1 60.5v125q2 10 0 16t0 14q-4 51 -5 102.5t-3 98.5q2 4 1 10t1 11 q4 23 22.5 33t40.5 14q12 0 24.5 -4.5t20.5 -16.5q4 -10 5 -20v-21l-2 -2q-8 -39 -15.5 -75.5t-11.5 -77.5q-4 -16 -5 -33t-7 -33q4 -10 1 -16t-1 -17q-2 -12 -4.5 -24.5t0.5 -24.5l-3 -6q-4 -45 -5 -89t-5 -91q-2 -23 -2 -45q0 -20 -2 -43q2 -18 1 -38t1 -40v-64t2 -65 q4 -49 6 -98.5t7 -96.5q4 -4 3 -7t1 -7q6 -10 14 -17.5t18 -9.5h21q12 0 25.5 -1t27.5 -3q10 2 18.5 -1t16.5 -1q6 0 11 -1t11 1q4 -4 10.5 -3t10.5 -3q16 -6 24 -22q8 -18 -6 -41q-4 0 -4 -7q-10 -10 -23.5 -17t-29.5 -7q-10 -4 -20 0q-12 0 -20.5 3t-18.5 3q-14 2 -28.5 3 t-27.5 -3q-18 -10 -18 -35q8 -43 13 -87t11 -85q4 -43 13.5 -84t13.5 -82q4 -23 -6 -38t-27 -27q-10 -10 -24.5 -16.5t-30.5 -10.5q-45 -6 -72 27q-8 14 -7 30.5t-1 32.5q4 10 0 21q0 16 1 30.5t1 30.5v8q0 4 -1 11.5t1 11.5q-2 4 -1 6t1 6q-2 29 0 62.5t0 64.5q2 10 1 17.5 t1 17.5q2 12 1 25.5t-1 29.5q-4 6 -4 15q0 8 -6 12l-12 12t-15 6l-4 2h-41q-18 0 -39 -2l-63 -4q-35 -4 -72 -5t-71 -5l-2 -4q-10 -2 -23 -2q-10 0 -20 -2q-27 -6 -58 8q-8 4 -17 7t-18 13q-4 0 -4 2t-2 5q-16 12 -20 24q-10 10 -16.5 24.5t-10.5 28.5q2 8 -1 13.5t-1 13.5z " />
<glyph unicode="5" horiz-adv-x="673" d="M41 6q6 -6 16.5 -5t16.5 5q37 4 71.5 15.5t71.5 21.5q2 2 12 6q12 4 25.5 10.5t28.5 10.5q2 0 2 2t4 2q2 6 14 6q23 10 43.5 22.5t40.5 26.5q4 2 7 5l7 7q8 4 13 9q14 10 26.5 19t22.5 21q18 12 33.5 29t29.5 33q10 14 20.5 29.5t20.5 31.5q0 2 6 9q2 10 7.5 18t9.5 18 q4 12 8 22.5t6 25.5q4 10 6 20t6 20q2 2 0 4.5t2 4.5l5 18q-2 10 1 17.5t-1 17.5q4 2 2 5t0 7q0 14 2 28.5t-4 31.5v10q0 10 -2.5 14t-5.5 8t-1 9q-4 25 -11 46t-17 42q0 4 -3 6t-1 4q-35 63 -93 110q-6 4 -11 9.5t-11 9.5q-10 4 -14 9t-15 9q-4 4 -9 5t-11 8q-10 0 -16.5 5 t-16.5 5q-16 6 -30.5 8t-30.5 6h-27q-8 0 -29 -4q-10 -2 -18 -3t-19 -5q-4 -2 -10 -3t-10 -3q-10 -6 -18 -6q-10 0 -16.5 -2.5t-14.5 2.5q-10 6 -12 20q-6 29 0 57l4 5q-2 2 2 20q0 4 1 6t1 6q10 23 28.5 35t40.5 21q27 6 55.5 8t55.5 6q29 2 58.5 4t58.5 8q16 4 30.5 9.5 t24.5 15.5q8 6 13 12t12 14q10 16 12 36t-8 36q-23 39 -74 29q-18 -2 -37.5 -4t-38.5 -4q0 -2 -8 -2t-17.5 -2.5t-15.5 -2.5q-25 -2 -51.5 -4t-52.5 -6l-2 -2q-57 -2 -92 -47q-18 -20 -19 -59q0 -23 -3 -43.5t-7 -40.5q-12 -59 -35 -107q-6 -14 -13 -26.5t-12 -28.5 q0 -23 19 -25q6 -2 11 -3t13 1q12 6 27 6q12 0 29 4q14 -2 26 0q4 -2 9.5 -1t9.5 -1q10 0 22.5 -4t22.5 -8q6 -2 12 -3t12 -5q35 -14 64 -40t53 -54q20 -31 36.5 -62.5t25.5 -66.5q4 -12 5 -25.5t5 -25.5q4 -43 -1 -83t-18 -79q-23 -68 -63.5 -127.5t-99.5 -102.5 q-76 -57 -168 -90q-8 -2 -14.5 -6t-16.5 -4q-10 -8 -22.5 -10t-18.5 -13q-4 -10 0 -14z" />
<glyph unicode="6" horiz-adv-x="796" d="M47 422q0 29 2 55.5t4 57.5q4 18 7 36.5t8 36.5q8 23 14 45.5t14 45t17.5 41t17.5 40.5q12 16 23 43q8 12 14 24.5t12 24.5q4 6 9.5 14.5t11.5 16.5q4 4 7 9.5t5 9.5q0 2 6 6q4 10 10.5 16t12.5 17q8 12 17 26t20 27q6 4 8 7t6 7q18 23 36.5 44.5t41.5 39.5q2 6 8 8 q6 6 11 12.5t11 12.5q4 0 5 2q0 2 2 4q10 10 19 19.5t19 15.5l3 4q6 4 13 12t17 12q4 6 11.5 12.5t15.5 10.5q16 16 34.5 30.5t37.5 28.5q16 12 29.5 23.5t27.5 21.5q14 0 18 -12t-8 -21.5t-16 -19.5q-66 -66 -123 -139.5t-111 -151.5q-43 -70 -78.5 -142.5t-60.5 -149.5 q-4 -12 -7 -25.5t-7 -26.5q-16 -70 -22.5 -141.5t3.5 -142.5q16 -111 64 -197q14 -20 27.5 -41.5t31.5 -38.5q23 -25 49.5 -42t61.5 -15q51 2 92 35q10 10 16 21t13 22q8 14 11 27.5t7 27.5q2 10 2 22t2 25q0 6 2 13.5t0 17.5q4 6 2 12t-2 12q2 4 1 7.5t-1 7.5q-4 43 -11 84 t-24 80q0 4 -2 8t-2 6q-6 8 -8 16t-10 15q-10 23 -24.5 43t-33.5 36q-12 10 -25 19.5t-28 19.5q-12 8 -12 25q0 18 18 27q18 10 41 6t43 -8q78 -29 139.5 -92.5t84.5 -143.5q23 -82 2 -166t-74 -143q-10 -10 -20.5 -19.5t-22.5 -19.5q-4 -4 -17 -12q-6 -4 -10 -8.5t-10 -6.5 q-10 -8 -22.5 -13t-26.5 -11q-16 -8 -34.5 -12.5t-37.5 -8.5q-10 -4 -22 -4t-25 -2q-2 2 -5 1t-5 -1q-10 0 -20.5 2t-18.5 0q-4 2 -9 1t-10 3q-10 -2 -22 2t-23 6q-10 0 -26 9q-14 4 -26.5 11t-24.5 11q-49 27 -88 73t-60 97q0 4 -6 10q-6 23 -14.5 44.5t-10.5 43.5 q-4 14 -6 27.5t-2 28.5q-2 10 -2 24t-2 29z" />
<glyph unicode="7" horiz-adv-x="724" d="M49 843.5q6 16.5 17 28.5q25 33 65 50q12 4 23.5 6t25.5 2h2v-2t2 0l49 -4q43 -2 86 -2h89q49 4 101 7t103 13q18 0 36 -6.5t24 -24.5q14 -27 -8 -49q-2 -4 -6.5 -8t-4.5 -8q-4 -2 -10 -12q-33 -37 -61.5 -76t-53.5 -78q-20 -29 -38.5 -60.5t-34.5 -60.5 q-10 -18 -19.5 -34.5t-17.5 -32.5q-20 -33 -35.5 -67t-32.5 -69q-4 -2 -3 -6t-1 -8q-8 -14 -13 -28.5t-14 -30.5q-4 -18 -11 -35t-13 -35q-18 -68 -34.5 -137.5t-20.5 -141.5q-4 -49 -4 -96t10 -94v-2q2 -23 8 -47.5t2 -46.5q-8 -31 -32.5 -50.5t-53.5 -23.5q-6 2 -12 -1 t-13 1q-4 -2 -7 2t-7 0q-16 4 -27.5 19.5t-15.5 31.5q-4 31 -4 60q0 27 -2 55q0 10 1 18.5t1 18.5q2 4 1 9t1 11q0 29 6 58q2 4 1 7t1 7q0 14 3 27.5t7 27.5q12 94 43 183q8 20 13.5 40.5t15.5 43.5q2 4 3 10t5 12q2 8 5.5 15.5t7.5 13.5q2 6 4 11t4 9q0 8 2 10 q4 10 11 22.5t13 27.5q0 4 7 14q6 16 13 29.5t13 27.5q29 53 55.5 104.5t61.5 102.5q18 33 39 57q16 23 31.5 48.5t31.5 48.5q0 6 2 13t-2 13q-8 6 -15 10.5t-17 4.5q-23 4 -46.5 3t-48.5 -1q-23 0 -48 -2t-50 -6h-2q-23 -4 -43 -8.5t-43 -8.5q-10 -6 -24.5 -8t-26.5 -4 q-25 2 -49 16q-14 12 -19 33q-8 16 -2 32.5z" />
<glyph unicode="8" horiz-adv-x="851" d="M35 319q0 -4 1 -12t3 -18l-2 -2q4 -10 5 -20.5t5 -18.5q2 -18 8 -35.5t15 -34.5q20 -37 49 -74q10 -4 16 -13t15 -15q25 -23 52 -36t56 -24q68 -16 146.5 -12t140.5 39q55 23 100 61q55 49 84 86q16 27 32.5 53.5t29.5 57.5q8 31 15 62.5t5 64.5v6q2 18 1 33.5t-5 32.5 l-2 16q-4 16 -8 30.5t-9 31.5q-4 12 -11 24t-11 27q-6 12 -14.5 25.5t-16.5 25.5q-10 14 -20 27.5t-21 25.5l-29.5 29.5t-29.5 28.5q-18 14 -37.5 28.5t-42.5 26.5q-23 8 -37 18q-27 12 -54.5 24.5t-55.5 20.5q-8 4 -17.5 7.5t-17.5 7.5q-12 4 -21.5 10t-21.5 10 q-33 25 -54.5 60.5t-33.5 74.5q-2 16 -5.5 32.5t1.5 33.5q2 10 3 19.5t5 19.5l12 30q4 6 6 12.5t8 10.5q10 20 26.5 31.5t37.5 25.5q10 4 24.5 6.5t28.5 4.5q6 -6 12 -2q29 -4 54.5 -19.5t48.5 -34.5q6 -6 13 -12t11 -10q4 -6 9.5 -11.5t9.5 -11.5q10 -16 19 -33.5t14 -35.5 q4 -10 5 -19.5t5 -19.5q0 -16 1 -31.5t-3 -32.5q-2 -18 -13.5 -32.5t-15.5 -32.5v-13l-2 -2h2q0 -10 10 -14q12 -10 35 -6q18 8 33.5 23.5t28.5 33.5q27 39 36 90q6 45 -7 85t-38 75q-20 29 -49.5 47.5t-58.5 34.5q-23 8 -47.5 11t-48.5 7q-129 12 -226 -59q-35 -23 -59 -55 q-10 -14 -20.5 -29.5t-14.5 -34.5q-4 -4 -6 -12q-4 -4 -4 -10l-1 -3t-3 -10q0 -6 -2 -12t0 -12q-4 -4 -2 -9.5t-2 -9.5q0 -18 2 -38.5t6 -36.5q10 -29 22.5 -55.5t32.5 -49.5q6 -10 15.5 -18t15.5 -17q23 -16 42 -33.5t46 -27.5q10 -4 17 -9t18 -7q20 -4 14 -5q6 0 16 -6 q23 -10 46.5 -19t46.5 -22q55 -29 99 -76t79 -100l7 -14l7 -14q10 -33 18.5 -67t8.5 -69q0 -72 -15 -116q-10 -16 -11 -36t-15 -40q-29 -57 -74 -103q-16 -16 -34.5 -26t-39.5 -21q-35 -10 -51 -10q-10 -2 -19.5 0t-19.5 2q-45 14 -81 43t-64 68q-10 10 -16.5 23.5 t-14.5 23.5q-12 20 -20 47q-2 10 -6.5 17.5t-4.5 13.5q-2 10 -6 19t-6 18q-12 49 -8 131l2 39q4 18 8 33.5t8 31.5q4 6 6.5 13.5t6.5 11.5q2 10 5 16t7 12q4 12 12 20.5t12 18.5q2 23 -14 33q-14 6 -27.5 3t-23.5 -9q-6 -4 -9 -9t-9 -10q-4 -10 -8.5 -14t-8.5 -12 q-2 -8 -7 -12.5t-7 -10.5q-12 -12 -15 -26q-10 -14 -16 -28.5t-14 -31.5q-16 -37 -25 -73q-4 -20 -4 -21q0 2 -4 -18q-2 -4 -1 -7.5t-3 -5.5q2 -4 1 -7t-1 -7q4 -4 1 -6t-1 -6q-4 -4 -2 -10.5t0 -10.5v-31z" />
<glyph unicode="9" horiz-adv-x="1024" d="M163 552q-7 56 7 110l6 24q16 59 55 109.5t88 83.5q29 23 61 35t66 20q18 4 38 7t40 3q86 0 160 -39q78 -41 135 -110q25 -35 44.5 -76t33.5 -82q6 -18 9 -35.5t7 -36.5q-2 -8 1.5 -15t3.5 -13q4 -18 5 -39t-1 -41q4 -4 2 -8.5t0 -8.5q2 -14 0 -25.5t-2 -21.5 q-4 -25 -8.5 -51.5t-8.5 -52.5q-2 -4 -1 -7t-3 -8q-2 -12 -5 -23t-7 -24q-8 -23 -14.5 -45t-20.5 -41q2 -4 0 -8l-4 -8q-12 -31 -27.5 -60.5t-31.5 -60.5q-4 -4 -5.5 -9t-5.5 -9q-8 -10 -15 -20.5t-13 -22.5q-4 0 -4 -2q0 -4 -3 -7q-10 -6 -10 -14q-4 -4 -7 -10t-9 -10 q-2 -4 -5 -6.5t-3 -6.5q-6 -2 -7.5 -6t-5.5 -8q-10 -10 -18 -19.5t-12 -19.5l-56 -55q-6 -6 -12 -12.5t-16 -12.5q-16 -16 -35 -32.5t-39 -30.5q-4 0 -4 -2t-4 -4q-25 -16 -49.5 -35t-51.5 -35q-4 -4 -10 -7t-12 -5q-12 4 -14 12q-2 2 2 10q18 20 38.5 41t36.5 43 q39 43 73 92t67 99q4 0 3 4t3 8q37 57 62.5 118.5t47.5 127.5q6 25 10.5 51.5t12.5 52.5q-2 8 2 14.5t2 16.5q4 16 5 30.5t3 30.5q0 6 1 12.5t1 14.5q0 18 1 35.5t1 40.5q0 29 -2 55.5t-4 52.5q0 10 -3 17.5t-3 17.5q-8 31 -17.5 60.5t-21.5 58.5q-2 10 -8 16t-8 17 q-4 6 -6 13t-9 13q-2 4 -6 7t-6 8q-10 18 -22 32q-4 2 -5.5 5.5t-5.5 7.5l-7 7l-7 7q-12 12 -26.5 25.5t-30.5 19.5q-12 4 -25.5 9t-28.5 5q-12 -2 -23 -1t-24 -3q-47 -8 -66.5 -49t-29.5 -80q-2 -20 -2 -41q0 -20 -4 -39q4 -18 3 -37.5t3 -35.5q2 -25 8 -48.5t10 -46.5 q10 -23 18.5 -47t22.5 -47q18 -39 45 -74.5t62 -62.5q8 -6 9 -15.5t-1 -17.5q-16 -31 -51 -30q-37 4 -70 18t-65 31q-25 14 -44.5 33.5t-39.5 41.5h-2q-14 16 -25.5 34t-21.5 38q-2 4 -2 8t-5 9q-20 47 -27 103z" />
<glyph unicode=":" horiz-adv-x="241" d="M35 47q0 -14 2 -16q12 -18 33.5 -24.5t44.5 -4.5q2 4 6 2t6 2q2 2 6 0h-2q6 4 14.5 5t12.5 9q23 12 35 37q13 37 -5 60q-23 23 -54.5 20.5t-53.5 -16.5q-10 -10 -17 -12q-18 -16 -28 -46v-16zM41 416q4 -14 15.5 -22.5t21.5 -14.5q8 0 10 -2q18 -8 72 14q4 4 6 4 l20.5 20.5t14.5 22.5q8 27 0 45q-14 20 -33 27q-55 16 -94 -21q-16 -14 -26.5 -32.5t-6.5 -40.5z" />
<glyph unicode=";" horiz-adv-x="233" d="M29 451q6 23 21.5 39t35.5 26q16 4 32.5 7t33.5 -1q26 -5 38 -28q8 -16 5 -41q-8 -23 -25.5 -39.5t-40.5 -24.5q-23 -10 -49 -6q-10 4 -18.5 6t-16.5 10q-12 8 -15 22.5t-1 29.5zM38 43q-3 6 1 14q-2 16 5 28.5t17 25.5q12 12 27 18q20 12 46 15t44 -11q15 -6 21 -22 q10 -23 0 -50q-18 -29 -28.5 -61.5t-20.5 -67.5q-6 -16 -7.5 -31.5t-7.5 -29.5q-2 -2 -12 -8q-8 0 -14 6q-4 4 -3.5 10t-3.5 10q-12 55 -43 111q-4 6 -9 13t-7 15.5t-5 14.5z" />
<glyph unicode="?" horiz-adv-x="686" d="M59 1236q-2 5 2 9q14 16 32 27.5t38 21.5q47 23 111 37q10 0 19 3t20 3q23 4 45 4q25 0 47 -4q14 -4 25.5 -6t23.5 -6q55 -16 108 -55q39 -29 66 -69t37 -87q12 -61 0 -119q-6 -25 -16.5 -46t-22.5 -44q-31 -41 -66.5 -77.5t-72.5 -67.5q-70 -63 -124.5 -134t-92.5 -151 q-4 -14 -10.5 -27.5t-10.5 -27.5q-25 -72 -31 -141q2 -4 -1 -6.5t-5 -4.5q-10 -4 -16 0q-10 10 -8 22.5t0 22.5v19q-4 53 5 104t25 103q27 74 66 141.5t88 128.5q2 4 7 8t7 10q14 16 23.5 34t21.5 34q18 35 29.5 76t15.5 84q0 4 -1 9t3 9q-2 16 -3 32.5t-5 33.5q-4 6 -5 14 t-5 16q-2 4 -4 8.5t-4 8.5q-8 16 -20.5 28.5l-24.5 24.5q-6 6 -23 18q-6 2 -10 4.5t-10 4.5l-4 4l-2 -2q-10 4 -18.5 6t-18.5 4q-18 4 -38 3t-40 -3q-4 -2 -8 -2h-8q-6 -2 -11.5 -3t-11.5 -3q-2 -4 -5 -3t-3 -1q-4 0 -9 -2t-10 -2q-6 -4 -13 -7.5t-13 -7.5q-4 -2 -9.5 -6 t-9.5 -4q-10 -2 -18 -11t-19 1q-2 4 -4 9zM103 67.5q1 2.5 1 6.5q4 4 5.5 9t5.5 9q39 47 100 41q10 -2 19.5 -6t15.5 -14q8 -10 10 -25.5t-4 -26.5q-14 -29 -41 -46t-59 -15q-27 6 -43 20q-6 10 -9.5 19.5t0.5 21.5q-2 4 -1 6.5z" />
<glyph unicode="A" horiz-adv-x="694" d="M81 -508q0 12 1 23q0 35 2 68.5t6 68.5v8q2 23 2 47q0 25 2 47q4 8 3 19.5t5 21.5v27q0 12 2 28q2 0 0 1.5t0 3.5q2 61 13 127q4 41 6 76.5t6 76.5q4 20 5 41t5 41q4 31 8.5 61.5t10.5 61.5q0 16 1 27.5t3 21.5q0 20 4 25q14 90 28.5 172t32.5 168q2 23 7.5 41t7.5 39 q8 35 14 66.5t16 64.5q4 18 8.5 35.5t6.5 33.5q10 35 17 67t18 62q8 12 8 19l2 2l6 35q4 10 6 18t6 18q0 12 2 23.5t-6 21.5q-4 8 -6 16.5t-6 14.5q0 6 4 10.5t8 8.5q12 -4 16.5 -14.5t12.5 -18.5q2 -4 6 -7t4 -10q4 -4 7 -10l7 -14q4 -10 10.5 -19.5t14.5 -19.5q0 -6 3 -9 t5 -9q10 -18 18.5 -37t18.5 -35q4 0 2 -3t2 -5q8 -18 19 -43q4 -6 6 -12.5t6 -16.5q4 -8 7 -16.5t9 -16.5q10 -35 23.5 -69.5t23.5 -69.5q16 -45 33 -102q0 -12 4 -21q2 -6 5 -10t7 -8q10 0 15.5 3t13.5 5q18 2 36.5 6t37.5 4q16 4 31 4h32q10 0 17.5 2t15.5 2q26 1 53 1 t54 -1q14 -4 26.5 -2t26.5 -2h4h20q12 0 23 -2l25 -2h2q6 0 12 -3t10 -3q23 0 45 -6q6 -6 9 -10.5t10 -10.5q3 -5 3 -11t-3 -19q-6 -12 -16.5 -20.5t-22.5 -16.5q-10 -4 -21.5 -7t-27.5 -3q-20 4 -40 5t-38 5q-35 6 -72 10t-78 4q-18 4 -38.5 5t-41.5 1q-25 -4 -49 -5 t-49 -5q-14 -4 -8 -14q0 -10 1 -17.5t1 -17.5q6 -6 6 -27q0 -4 2 -6t2 -6q2 -12 4 -24.5t4 -22.5q0 -4 2 -7t2 -8q2 -10 2 -18t3 -16l6 -19q2 -10 3 -20t1 -25q2 -4 3 -11t5 -13q0 -20 2 -25q0 -10 2 -12l2 -39q0 -4 3 -7t3 -8q4 -41 8.5 -76.5t8.5 -70.5q8 -70 11 -138.5 t7 -137.5q0 -12 2 -23.5t2 -22.5v-34v-109q0 -16 2 -31.5t-2 -31.5l4 -6q0 -27 -2 -50.5t2 -48.5q-4 -4 -2 -10t-2 -10q4 -16 2 -33.5t-2 -34.5v-24v-29q-4 -4 -2 -12.5t2 -12.5q-4 -10 -4 -20v-23q4 -4 2 -8t-2 -8q0 -35 -12.5 -62.5t-42.5 -39.5q-24 -14 -55 -14 q-8 0 -17 1q-6 2 -9 4t-7 2q-16 10 -25 23q-8 16 -7 36.5t1 39.5q0 18 2 36.5t2 38.5q2 23 3 45.5t1 43.5v20q4 6 2 13t2 14v43q0 14 1 27.5t1 27.5q-2 6 -1 10t1 10q4 41 4 84v82v39v17v6v30q0 14 -4 31v62q0 29 -2 61v4q-4 72 -7 141.5t-11 141.5q0 6 -1 14t-1 19 q-8 70 -16.5 137t-18.5 133q-4 10 -18 10q-59 -18 -111.5 -48t-99.5 -71q-4 0 -7.5 -2t-7.5 0q-2 2 -4 3t-4 5q0 4 1 8.5t1 6.5l9 9t14 9l2 6q31 27 61.5 50.5t65.5 46.5q14 4 24 12t23 14q8 2 15 6.5t13 6.5q6 12 7 20q-2 18 -5.5 34.5t-7.5 33.5q-10 59 -22.5 120.5 t-28.5 120.5q-16 51 -31 111q-2 0 -1 1l1 1q-4 6 -4 12q0 8 -8 13q-6 -4 -9 -3.5t-5 -3.5q0 -4 -4 -4q-2 0 -4 -2q-6 -25 -14.5 -47t-12.5 -45v-2q-6 -23 -11 -44.5t-10 -43.5q-16 -43 -22 -82q-8 -29 -12 -56.5t-11 -52.5q-2 -10 -3 -21t-5 -26q0 -4 -2 -8t-2 -8 q-6 -41 -11 -82t-11 -82l-19 -129q-2 -29 -3 -57.5t-3 -57.5v-18q0 -8 -4 -18q4 -8 2 -18.5t-2 -16.5q-4 -74 -6 -146.5t-2 -144.5v-47q0 -48 -2 -96q-1 -16 -1 -33q0 -32 3 -66q2 -47 3 -88t5 -86q-4 -14 0 -30.5t-4 -32.5q-4 -4 -4 -11q-14 -10 -27.5 -20t-34.5 -12 q-27 -6 -47 14q-10 15 -11 33v12z" />
<glyph unicode="B" horiz-adv-x="827" d="M-143 1146q0 5 2 9q4 4 7 8t5 11q6 8 14.5 18t18.5 16q4 4 8 8.5t8 8.5q55 47 118.5 73.5t131.5 36.5l29 4q17 3 32 3q8 0 15 -1q22 -2 47 -2q18 -4 34.5 -5t32.5 -5q31 -6 57.5 -17.5t53.5 -23.5q6 -6 15.5 -9t13.5 -11q20 -12 34.5 -29.5t28.5 -36.5q4 -10 9.5 -18 t9.5 -17q12 -29 13 -61.5t-3 -61.5q-4 -8 -4 -14t-4 -12q-6 -25 -21 -41q-4 -8 -9 -15.5t-9 -15.5q-4 -4 -7 -8t-8 -8l-2 -4q-10 -10 -19 -18.5t-20 -18.5q0 -4 -1 -9.5t5.5 -9.5t14.5 -6t14 -6q16 -4 29.5 -10t30.5 -14q10 -6 19 -11.5t17 -15.5q20 -16 38 -33.5t30 -38.5 q4 -8 10 -15t10.5 -17.5t9.5 -19.5t7 -19q10 -10 10 -23q0 -12 4 -25q2 -8 6 -28q4 -12 5 -25q0 -12 2 -24q-4 -12 0 -23q-4 -4 -3 -8t1 -8q-8 -45 -18.5 -88t-33.5 -82q0 -4 -3 -8.5t-5 -8.5q-12 -25 -31.5 -49t-38.5 -49q-47 -57 -114 -104q-12 -10 -26.5 -18.5 t-31.5 -18.5q-29 -16 -54 -29.5t-54 -26.5q-10 -4 -18.5 -7t-18.5 -5q-10 -4 -12 -2t-5 3t-3 5q-4 8 6 19q12 8 24.5 14t28.5 14q10 6 19.5 13.5t19.5 13.5q6 8 14 13t17 12q29 23 53 50t47 56q-2 2 0 2t2 2q16 23 28.5 46.5t22.5 45.5q14 29 20.5 62t10.5 63l-2 2 q4 27 1 53.5t-9 51.5q2 4 -1 5t-1 5q-4 0 -3 3t-1 5q-16 57 -48 96q-4 8 -9 12.5t-9 12.5q-4 2 -6 5t-6 7q-16 16 -33.5 28.5t-38.5 25.5q-6 4 -14 6t-13 6q-12 4 -20 8q-23 8 -46.5 13t-47.5 3q-10 4 -18.5 0t-16.5 -2q-23 8 -23 21q-2 8 0 12t7 10q6 4 12 8.5t10 8.5 q2 4 6 4t6 2q12 6 23.5 14t21.5 17q10 10 21.5 21t21.5 24q8 10 16.5 20t12.5 23q4 4 7 9t7 11q10 16 14.5 34.5t10.5 35.5q1 13 1 26q0 31 -7 56q-8 12 -10 20t-11 21q-6 6 -10 13t-10 11q-6 8 -15.5 14.5t-15.5 14.5q-16 4 -24 12q-4 2 -9.5 4t-11.5 4q-16 4 -32.5 9.5 t-32.5 3.5l-13 -4q-14 -16 -12 -33t0 -33q4 -4 1 -5t-3 -5q-2 -10 0 -21.5t-2 -21.5q0 -20 -1 -39t-3 -35q0 -18 -3 -35.5t-3 -38.5v-22q0 -10 -4 -21q-4 -25 -3 -48t-4 -48q0 -12 -3 -25.5t1 -27.5q-4 -16 -3 -32.5t-1 -33.5q-2 -10 -1 -18t-1 -19q-2 -47 -2 -94v-92 q-2 -23 -1 -41t3 -41q-1 -16 -1 -32q0 -24 2 -46q3 -37 5 -75q2 -45 5.5 -90.5t7.5 -90.5q2 -12 3 -23t1 -26q-2 -6 -3 -13t-5 -13q-10 -8 -17.5 -13.5t-17.5 -7.5q-6 2 -11.5 -1t-9.5 -3v4q0 -4 -8 -4q-2 4 -10 4q-6 2 -10.5 4t-12.5 4q-10 4 -14 14.5t-6 20.5 q0 10 -1 20.5t-1 20.5q4 12 2 23.5t0 21.5q2 23 0 47l4 76q0 4 -1 7t-1 7q2 10 2 19v18q2 23 3 43.5t1 42.5q2 10 3 20.5t1 20.5q-4 4 -1 8t1 9q-2 6 1 12t-1 12q4 4 2 8t0 9q-4 4 -1 6t1 6q2 10 1 16t1 17v45v8q4 4 3 7t-1 5q2 6 0 11t2 10v41q-6 6 0 6q2 4 1 6t-1 4 q-4 2 -1 3t3 3q2 53 3 101.5t1 101.5q-2 10 0 17t0 18q2 10 0 24q0 25 1 51.5t-1 53t0 50t-2 48.5q2 12 0 25v43q-4 4 -4 6q0 4 -2 8q-4 4 -10 7t-10 3q-20 4 -35.5 -2t-32.5 -14q-10 -4 -18 -10.5t-19 -10.5q-47 -27 -94 -73q-4 -2 -12 -3q-8 8 -8 16z" />
<glyph unicode="C" horiz-adv-x="460" d="M31 308q0 -55 13 -110q28 -116 106 -204q100 -125 245 -166q18 -6 39 -8t39 -10q4 -3 9 -3q2 0 4 1q8 2 14 2q32 -5 64 -5q28 0 56 4q60 9 115 31q41 14 78 35t72 51q6 8 7 18.5t1 20.5q-16 18 -31 17q-16 2 -24.5 -9.5t-16.5 -21.5q-20 -37 -63 -47q-54 -18 -114 -20 q-5 0 -10 -1q-54 0 -97 25q-16 4 -30.5 12t-31.5 14q-104 53 -166 142q-55 72 -77 159q-14 55 -14 114v8q0 29 3 59q8 49 24.5 92t39.5 88q57 104 159 158q41 27 93 28q12 4 23 0t26 0q12 17 8 29q0 14 -19 14q-26 3 -51 3q-54 0 -106 -15q-74 -22 -142 -63 q-88 -55 -147 -137.5t-82 -180.5q-16 -63 -16 -124zM260 858q0 -4 4 -8q0 -12 15 -8q45 12 90 19q29 4 58 4q17 0 34 -1q8 -2 24 -2h27q51 -10 100.5 -23.5t96.5 -37.5q8 -6 16 -8t18 -7q6 -2 11 -2q6 0 14 4q12 6 23 9q33 20 33 51q0 6 -1 12q-4 31 -29.5 36t-48.5 15 q-29 4 -53 8.5t-51 8.5l-18 2q-33 0 -62 1h-12q-23 0 -47 -3q-45 -4 -84 -10.5t-80 -22.5q-33 -6 -68 -27q0 -2 -3 -3t-3 1q-4 -4 -4 -8z" />
<glyph unicode="D" horiz-adv-x="960" d="M-41 1290q4 -8 12 -10q27 0 49 8q25 -2 39 -20q4 -37 10.5 -74t10.5 -72l2 -2q4 -49 9 -98t7 -98q2 -2 0 -3t2 -6q1 -91 1 -183t-1 -185v-29q0 -16 -2 -24q-2 -92 -10 -176.5t-18 -176.5v-8q-4 -25 -7 -43q-4 -14 -6 -30.5t11 -26.5q0 -8 5 -10.5t9 -6.5q8 -6 16 -6 q6 0 19 -4q16 0 35.5 5t33.5 16q25 25 33 55l-2 33l-6 63q-12 61 -17.5 117.5t-9.5 118.5q-2 10 -2 20v21v22q0 12 -2 23q-2 23 -2 47v55q0 31 1 59.5t3 53.5q2 80 7.5 154.5t11.5 150.5l8 67q4 25 6 49.5t8 49.5q4 27 6 51.5t9 46.5l16 8q16 2 29.5 -2t29.5 -8 q20 -4 43 -12q18 -10 39 -17.5t37 -17.5q37 -23 67.5 -48.5t59.5 -56.5q12 -10 21.5 -19t19.5 -21q2 -4 7 -9.5t7 -11.5q25 -29 38.5 -59.5t29.5 -61.5q6 -12 10 -23.5t10 -21.5l3 -6q10 -29 14 -54.5t12 -49.5q4 -8 3 -16.5t3 -16.5q8 -54 8 -111q0 -17 -1 -35 q-3 -76 -21 -141q-10 -51 -26.5 -100t-41.5 -90q-25 -45 -60.5 -88t-80.5 -74q-86 -61 -203 -84q-10 -2 -20 -5t-21 -1q-8 4 -24 -6q-4 -10 -2 -13q0 -4 3 -6t7 -6q14 0 27.5 2t25.5 2q55 8 105.5 20.5t95.5 36.5q25 10 47.5 22.5t47 25t44 29t39.5 34.5q49 47 90 100.5 t72 110.5q8 20 17 40.5t14 43.5q10 20 15 38.5t9 39.5q13 68 13 134q0 86 -22 168q-38 144 -134 267q-31 35 -66 69t-76 62q-12 4 -20 9.5t-18 11.5q-4 4 -10.5 5t-10.5 5q-41 25 -81 40t-87 25q-73 18 -154 18q-21 0 -43 -1q-104 -6 -190 -35q-8 -4 -18.5 -7t-20.5 -7 q-2 -4 -4 -9.5t-2 -9.5z" />
<glyph unicode="E" horiz-adv-x="542" d="M-23 623q0 -10 11 -17q14 -2 29.5 2t31.5 6q14 -2 19 -22q0 -154 -5.5 -302.5t-21.5 -295.5q-2 -14 -3 -29.5t-7 -32.5q-8 -12 -19.5 -13t-21.5 -11q-4 -12 -8.5 -19.5t0.5 -17.5q4 -8 16 -10q134 18 274 19h13q133 0 262 -21l24 4q23 8 41.5 29.5t18.5 44.5q0 35 -27 43 q-70 10 -140 10q-30 0 -60 -2q-100 -6 -197 -23q-6 4 -12.5 5t-10.5 10q-6 4 -5 11t-1 11q-10 53 -13 108.5t-13 108.5l4 2h-4q-4 41 -7.5 84t-7.5 84q0 23 -2 41.5t0 38.5q-4 20 -4 31v14q0 8 -2 18l2 9q-4 4 -2 9t-2 13q0 12 -2 24.5t2 24.5q4 8 11 10.5t16 6.5 q110 14 228 17q21 1 42 1q97 0 192 -12q25 -4 46.5 8t35.5 31q15 16 15 33q0 11 -6 22q-8 18 -20.5 24.5t-24.5 6.5q-51 0 -100.5 -1t-102.5 -5q-78 -12 -157 -28.5t-150 -39.5q-6 0 -13.5 -2t-11.5 6q-2 2 -1 4t-3 4q2 94 3 174t5 172l16 197l-4 16l-10 13q-10 2 -23.5 4 t-23.5 -2q-14 -6 -26.5 -19.5t-14.5 -29.5q0 -37 3 -74t7 -72l8 -198l5 -158q-4 -16 0 -32.5t-13 -26.5q-41 -10 -65 -19q-12 -10 -13 -20zM-20 1313q4 -12 10 -17q32 2 65 2q50 0 102 -4q87 -6 169 -24q23 -4 47 -13.5t49 -9.5q16 0 33 10q18 10 33.5 26.5t15.5 37.5 q-11 27 -31 43q-83 16 -168 16q-35 0 -71 -2q-122 -10 -236 -39q-18 -10 -18 -26z" />
<glyph unicode="F" horiz-adv-x="479" d="M47 860q0 10 4 19q14 16 31.5 22t36.5 10q61 16 132 16q2 -1 4 -1q73 0 138 -15h4q6 0 11.5 -2t11.5 -4q2 0 1 -2t1 -2q10 -5 16 -17q4 -9 4 -18v-6q-4 -10 -8 -17t-12 -14l-4 -4q-6 -4 -13.5 -8t-15.5 -8q-10 -2 -19.5 -4t-19.5 -2q-12 0 -20 -2q-4 2 -7.5 1t-7.5 -1 h-79q-4 2 -10.5 1t-12.5 1q-37 0 -74 10q-2 2 -4 1t-4 1l-27 4q-4 4 -9 5t-9 3q-10 6 -22.5 12.5t-16.5 20.5zM47 1018q0 10 8 22q14 12 30.5 18.5t35.5 12.5q10 2 21.5 3t21.5 5q4 0 7 1t7 -1q16 2 28.5 3t29.5 1l24 2q4 -2 9.5 -1t9.5 -1h32h4q18 -2 37 -5t35 -5 q10 0 16.5 -4t14.5 -8q15 -11 15 -29q0 -4 -1 -8q-2 -10 -6 -17.5t-8 -15.5q-4 0 -6 -2t-4 -2q-14 -14 -35 -18l-2 -2q-16 -2 -28.5 -4t-27.5 -2q-10 -2 -24 -3q-29 0 -57.5 1.5t-57.5 5.5q-8 2 -14 2q-4 0 -10 2q-20 4 -39 8t-35 12q-10 4 -19.5 11.5t-11.5 17.5zM181 -265 q0 6 3 11q0 27 5.5 51.5t5.5 50.5q6 31 6 66q2 29 5 57.5t5 59.5q4 49 7 100t5 102l4 118t2 118v37q0 59 -2 117.5t-4 117.5q-2 12 10 29q4 2 8.5 4t8.5 2l16 -6l4 -10q2 -10 0 -21.5t0 -23.5q0 -12 -1 -23.5t-1 -25.5v-41q0 -4 -1 -5l-1 -2v-108q0 -51 1 -100.5t3 -96.5 q2 -92 7.5 -185t13.5 -185q0 -12 1 -25.5t3 -26.5q4 -33 7 -64.5t5 -62.5q-2 -4 1 -6q1 -1 1 -2q0 -2 -2 -4q-4 -35 -26 -47q-10 -8 -23.5 -13t-26.5 -5q-14 2 -26 7t-19 17q-2 11 -4 19q-1 3 -1 5zM213 1374q0 23 16 39q12 10 30 13h6q15 0 26 -13q8 -10 8 -25 q0 -10 -4 -22l-6 -37q-8 -33 -13.5 -66.5t-7.5 -66.5q-2 -23 -1 -41t-3 -39q-4 -4 -5 -7t-5 -5q-3 -3 -5 -3l-3 1q-4 2 -10 2l-7 6q-6 14 0 20q0 10 1 21.5t1 22.5v28v10q0 14 -1 26.5t-1 23.5v24q-4 6 -2 10t-2 9q-2 35 -12 69z" />
<glyph unicode="G" horiz-adv-x="960" d="M50 520q0 81 28 154q23 70 66.5 132t101.5 105q4 4 7 7.5t7 5.5q10 10 22.5 16t22.5 12q4 4 10.5 6.5t12.5 6.5q98 53 211 61h41q4 -4 5 -2t5 0q10 2 22.5 -2t16.5 -14q2 -8 -2 -17q-12 -16 -30.5 -12t-35 0t-33 -9t-32.5 -12q-6 -4 -13.5 -7t-13.5 -7q-23 -10 -41 -24 q-37 -25 -66 -58q-16 -14 -29.5 -34.5t-25.5 -39.5q-23 -35 -37 -71.5t-24 -77.5q-13 -55 -13 -109q0 -64 19 -128q35 -115 117 -201q23 -20 43 -37t43 -33q8 -4 16 -9t16 -9q29 -16 60 -27.5t65 -15.5q25 -2 50 -2q27 0 51 4q12 4 27.5 6t25.5 18l4 8q1 74 1 150v76 q-1 114 -5 225q-2 41 -4 83t-6 83q-8 23 -25 31q-12 10 -28.5 7t-30.5 -1q-10 -4 -23 -4q-10 0 -16 8q-4 4 -7 6t-3 6q0 20 14 35q31 18 67.5 26.5t75.5 12.5h35q16 0 34.5 -4t34 -18.5t19.5 -32.5q6 -25 -1 -46.5t-11 -44.5q-10 -43 -16.5 -86t-10.5 -86q-8 -47 -11 -93 t-7 -93q0 -45 -4 -91q-2 -23 -2 -45t2 -44q2 -8 14 -4q8 4 31 4q14 -4 20 -14q2 -5 2 -10t-2 -10q-4 -9 -8 -15q-4 -4 -10 -9.5t-15 -7.5q-8 -8 -19 -13t-15 -17q-2 -10 0 -22.5t0 -22.5l2 -7q0 -33 1 -65.5t3 -67.5q4 -20 5 -41.5t-13 -40.5q-16 -23 -42 -39t-55 -16 q-4 -1 -8 -1q-7 0 -12 3q-8 4 -21 4q-23 10 -49 15.5t-51 11.5q-66 10 -133 10q-68 0 -133 -10q-8 0 -15.5 -3t-13.5 -1q-10 6 -12 12q2 18 18.5 22.5t30.5 10.5q29 10 55.5 14t55.5 10q25 4 48 8.5t48 8.5q41 4 85 6q15 1 29 1q29 0 56 -3q12 2 25.5 10t17.5 21 q2 31 4 60.5t2 59.5q0 4 -8 9q-12 6 -29 2q-72 -25 -153 -27q-57 0 -110.5 11.5t-100.5 31.5q-90 35 -163 105.5t-112 162.5q-35 80 -41 179q-1 15 -1 30zM299 1057q0 4 1 10t7 8t13.5 6t15.5 6q31 10 63.5 16.5t67.5 10.5h20v2h35q21 0 37 2q4 -4 6 -1q1 1 2 1l2 -2h35 l2 -2q18 0 34.5 -2t35.5 -4q16 -4 34.5 -5t34.5 -7q16 -2 28.5 -4t29.5 -7q4 -2 8 -2t8 -2q10 -4 19.5 -6t19.5 -8q8 -4 12 -13.5t7 -19.5v-6q0 -16 -9 -28q-12 -15 -28 -25q-6 -4 -12.5 -7t-10.5 -3q-7 -2 -14 -2q-8 0 -17 3q-14 5 -26 11q-37 18 -73 37.5t-77 32.5 q-27 6 -53.5 12t-54.5 8h-4q-21 3 -42 3q-17 0 -34 -2q-37 -5 -74 -11q-10 -4 -18 -6t-19 -4q-10 4 -12 10z" />
<glyph unicode="H" horiz-adv-x="684" d="M25 14q6 35 12 67t14 66l21 177q10 86 15 168.5t9 169.5v282q-4 80 -8 158t-8 158q4 20 20.5 32.5t32.5 16.5q18 4 33 -9q14 -23 7 -49t-7 -55q-4 -59 -8 -117.5t-11 -115.5l5 -2q-4 -43 -5.5 -88.5t-5.5 -92.5q4 -6 2 -16t4 -19q-2 -4 13 -12q18 4 34.5 12.5t34.5 12.5 q66 23 135.5 37t139.5 24q10 2 16 8.5t10 12.5q0 53 -3 110.5t-5 114.5l-12 180q-2 39 27 66q11 10 29 16q7 2 13 2q10 0 19 -6q4 -4 5 -10t5 -13q-4 -55 -10 -110t-10 -109q0 -4 1 -6t-1 -6q-4 -72 -6 -145.5t-2 -143.5l3 -6t1 -6q10 -10 21 -8t22 -2h6q29 2 57.5 4t57.5 0 q23 -4 32 -23q4 -8 4 -18v-7q-2 -14 -10 -24q-14 -20 -33.5 -28.5t-41 -10.5t-46.5 -2q-23 0 -43 -2q-6 -2 -12 -3t-10 -7l-4 -8q2 -4 2 -6q-6 -6 0 -11q-4 -25 -1 -49t5 -49l14 -199l27 -196q0 -20 2 -31v-4q2 -14 4 -28.5t2 -28.5q4 -14 -4 -27.5t-19 -24.5 q-30 -26 -64 -26q-13 0 -26 4q-23 10 -28 29q-3 19 -3 38q0 22 4 44q7 40 9 81l10 179l8 184l4 110l-4 13l-16 12q-92 -10 -180 -25.5t-174 -44.5q-20 -12 -15.5 -33.5t0.5 -41.5q4 -18 2 -38t0 -36v-4q0 -2 2 -2q-2 -33 0 -63.5t7 -59.5l10 -166q0 -18 4 -39.5t5 -41 t-3 -38t-21 -33.5q-17 -16 -43 -23q-10 -3 -21 -3q-15 0 -30 6q-6 6 -12 10t-10 15q-8 14 -4 26zM140 683q0 -6 5 -9q4 -1 8 -1h3q6 1 12 1q82 29 167 46t173 28l18 8q4 4 4 8v14q-4 2 -7 5q-1 1 -3 1t-4 -2q-96 -10 -186 -29.5t-176 -54.5l-11 -10q-3 -2 -3 -5z" />
<glyph unicode="I" horiz-adv-x="342" d="M25 -458q0 14 8 26q12 18 28 31q12 12 7 26q-14 18 -9.5 44t9.5 48q0 4 -1 8.5t3 8.5q-2 4 -1 6t1 6l12 94t8 94q4 16 5 32t3 34q4 41 7.5 82t7.5 82q2 23 2 45q0 23 2 45q0 16 2 31.5t4 31.5q-2 8 -1 15.5t1 17.5q2 10 1 22.5t1 26.5v19q0 10 2 20l-2 4q2 66 4 131.5 t2 131.5q2 8 -1 17t1 19q-4 41 -4 84t-2 88q2 16 1 32t-3 32v43t-2 43q-4 25 -6 51.5t-2 54.5q0 8 1 16.5t3 18.5q0 4 -1 9.5t-7 9.5q-10 6 -20.5 11t-12.5 19q-6 25 10 45q4 12 27 27q10 6 20 11t21 5q20 -2 39 -2h38q12 -4 24.5 -9t16.5 -21q7 -11 7 -22q0 -6 -2 -12 q-5 -18 -17 -30q-6 -4 -10 -9t-10 -9q-16 -2 -23 -21v-2l-4 -6q-4 -4 -4 -20q0 -8 -3 -15.5t-1 -17.5q-2 -10 -1 -20.5t-1 -20.5q-6 -47 -8 -98.5t-7 -100.5q-2 -18 -1 -37.5t-3 -36.5q-6 -170 -6 -342q2 -125 5 -244.5t14 -244.5q0 -10 1 -19.5t1 -19.5q4 -4 2 -8t2 -6 q2 -23 3 -45.5t3 -44.5q0 -8 2 -18.5t2 -20.5q6 -33 8 -63.5t5 -63.5q0 -20 -9.5 -33.5t-17.5 -30.5q-2 -4 1 -7t5 -7q12 -4 23.5 -11.5t15.5 -19.5q8 -18 1 -34.5t-20 -28.5q-12 -10 -25.5 -18.5t-27.5 -10.5h-29q-16 0 -32.5 1t-32.5 1t-30.5 9.5t-20.5 25.5q-2 8 -2 15z " />
<glyph unicode="J" horiz-adv-x="528" d="M55 -231q0 8 7.5 12t11.5 10q31 25 55.5 55.5t46.5 61.5q18 27 32.5 52.5t31.5 53.5q0 4 2 8.5t4 10.5q16 35 31.5 70.5t25.5 76.5q4 10 6 19.5t6 17.5q20 68 30.5 136.5t19.5 138.5q-2 4 -1 5t1 3q8 72 9 148v51q0 51 -1 100q-4 117 -15.5 231.5t-29.5 226.5 q-2 10 -4 18.5t2 18.5q4 20 23.5 32.5t39.5 14.5q21 0 39 -12q8 -10 9 -24.5t-1 -28.5q2 -10 2 -25q2 -35 2 -67q0 -33 4 -68q2 -49 2 -96t3 -94q-2 -4 -1 -8.5t-2 -8.5q2 -4 1 -10t-1 -14t1.5 -17.5t-1.5 -15.5v-6q2 -23 1 -41.5t-1 -40.5v-51q0 -25 -2 -49q-4 -2 -1 -4.5 t1 -4.5q0 -29 -3 -55.5t-3 -54.5q0 -43 -3 -88t-5 -86q-2 -10 -1 -20.5t-1 -18.5q-4 -18 -6 -38t-4 -38q-2 -4 -2 -6t-2 -6q0 -12 -3 -24.5t-5 -24.5q-2 -14 -6.5 -28.5t-8.5 -27.5q-4 -4 -2 -5t0 -5q-4 -10 -8 -20.5t-8 -20.5l-6 -20q-2 0 -2 -2q-2 -8 -5.5 -15.5 t-7.5 -11.5q-2 -8 -4 -13.5t-4 -9.5q-2 -6 -5 -9t-3 -7q-10 -18 -22.5 -36.5t-24.5 -39.5l-13 -12q-8 -10 -13 -18.5t-15 -18.5t-19 -16q0 -2 -4 -6q-16 -14 -31.5 -30t-33.5 -26q-16 -10 -32.5 -19t-33.5 -16q-8 -2 -13 -7q-4 -4 -9 -4q-2 0 -4 1q-12 6 -13 17z" />
<glyph unicode="K" horiz-adv-x="593" d="M42 1274v6q0 18 13 33q26 28 63 28h7q10 -2 19.5 -8t11.5 -18q6 -6 6 -23q-4 -41 -7 -86t-8 -86q0 -8 5 -12q8 0 12 4q6 4 9 10t7 13q8 12 17 18q23 35 52.5 65.5t61.5 53.5q8 6 15.5 11t15.5 9q2 0 2 2t2 2q25 16 48.5 29.5t51.5 20.5q5 2 10 2q6 0 12 -4q10 -6 19 -13 q4 -10 5 -20q0 -10 -7 -19q-10 -14 -20 -18q-14 -10 -27.5 -14.5t-29.5 -10.5q-39 -16 -76 -37.5t-70 -50.5q-10 -8 -18 -16t-19 -17q-4 -6 -4 -20q8 -16 12.5 -30.5t12.5 -28.5q4 -16 11 -30.5t11 -27.5q6 -16 12.5 -32.5t14.5 -32.5q8 -23 13 -41.5t14 -38.5q0 -4 4 -12 q14 -35 24 -73t21 -73q2 -8 5 -15t5 -16q4 -14 7 -30.5t7 -32.5q2 -2 2 -6q0 -2 4 -6q2 -10 4.5 -19.5t4.5 -19.5q0 -10 3 -17.5t5 -17.5q0 -4 2 -7t2 -7q4 -25 10 -48.5t10 -50.5q4 -23 8.5 -42t8.5 -42q0 -8 2 -15t4 -15v-11q4 -16 6 -32.5t6 -32.5v-10q2 -10 3 -19.5 t1 -17.5q4 -16 6 -29.5t5 -30.5q4 -29 9 -60.5t9 -62.5q-4 -2 -2 -3t2 -5q2 -12 2 -24q0 -14 2 -29q-2 -2 0 -4t2 -6q2 -18 5 -37t1 -37q4 -8 3 -14t1 -13q2 -10 2 -30q-2 -4 0 -5t2 -6q0 -12 2.5 -27.5t4.5 -27.5q-4 -4 -2 -9t0 -9q-8 -23 -20.5 -35t-27.5 -21 q-8 -6 -28 -10q-7 -3 -13 -3q-4 0 -6 1q-8 2 -18 6q-2 4 -4 3t-4 3q-6 6 -11.5 12.5t-7.5 14.5q-4 23 -4 51v51q-2 16 -1 34t-1 34q2 2 1 5t-1 5q0 4 1 8.5t-1 6.5q-4 57 -4 112t-4 109q0 10 -1 18t-1 19q2 6 0 10t0 10v2q-2 29 -4 54.5t-4 54.5q-2 16 -3 32.5t-3 34.5 q-8 70 -17.5 140.5t-23.5 140.5q0 4 -2 10q-2 18 -5.5 35.5t-7.5 36.5l-16 78t-19 77l-6 25v2q-6 8 -6 18q-4 8 -5 17.5t-5 17.5q-10 35 -20.5 70t-22.5 70q-10 16 -29 12q-14 -2 -21 -14.5t-16 -26.5q-4 -23 -4 -45q0 -20 -2 -43q-2 -29 -2 -58q0 -27 -4 -53q-2 -37 -2 -78 v-75q0 -32 -1 -64q0 -128 7 -262q0 -68 4 -136.5t11 -133.5q0 -6 1 -13.5t1 -11.5q6 -45 10 -89t10 -87q4 -23 6 -44.5t6 -41.5q0 -12 -6 -22.5t-14 -20.5q-8 -6 -15.5 -11t-13.5 -7q-10 -8 -22.5 -9.5t-22.5 -1.5h-6q-4 4 -11 5t-14 8q-16 10 -16 34v27q0 10 2 23 q2 23 4 45t4 45q2 29 3 57.5t3 56.5q6 49 8.5 98.5t4.5 100.5q6 57 6 123v29q0 14 2 30v6q0 59 1 118v39q0 39 -1 79q0 82 -3 158.5t-7 158.5q0 8 -1 13.5t1 13.5q-4 63 -9.5 124.5t-13.5 125.5q-2 21 -5 43z" />
<glyph unicode="L" horiz-adv-x="301" d="M47 -174q0 10 8 18q8 2 15 2q8 0 18 4q14 12 14 37v15l7 94q4 47 5 90t5 90q0 29 2 56.5t2 56.5q2 4 1 8t1 8v41q0 12 1 23.5t-1 19.5q6 6 0 6q2 10 1 18.5t1 18.5l-2 10q1 38 1 74v34q-1 52 -1 109q0 6 -1 14.5t1 14.5q-2 10 -1 16.5t-1 14.5v47q-4 14 -4 29v30 q-4 63 -7 126t-8 126q-2 23 -4 42.5t-4 39.5q-4 25 -6 47.5t-2 46.5q-2 8 0 16.5t6 14.5q14 25 38 39t50 18q6 1 12 1q35 0 50 -27q10 -16 6 -37t-8 -39q-2 -12 -3 -23.5t-3 -23.5v-2l-3 -2q-12 -80 -18 -152q-8 -63 -13 -125.5t-9 -126.5q-2 -31 -3.5 -64.5t-5.5 -64.5 q-4 -35 -5 -73.5t-1 -73.5q-2 -47 -2 -102v-101q-2 -18 -1 -37.5t1 -36.5v-14v-24v-27v-8q2 -6 1 -12.5t1 -16.5q0 -29 1 -56.5t1 -58.5q2 -23 2 -41q0 -20 2 -39q0 -10 2 -21t-2 -22q8 -12 17 -14q16 -4 31.5 0t31.5 4q2 4 6 4h9q33 4 64.5 7.5t66.5 3.5h26q18 0 37 -2.5 t35 -6.5q8 -4 14 -11t8 -17q0 -25 -28 -43q-10 -8 -29 -9q-14 -2 -24.5 3.5t-22.5 5.5q-54 14 -110 18q-28 2 -56 2t-57 -2q-14 -4 -12 -18.5t-3 -24.5q-4 -4 -6 -8t-6 -8q-6 -8 -14 -11.5t-15 -5.5q-9 -3 -17 -3q-18 0 -32 16q-6 8 -6 18q0 8 4 16q0 10 -2 13q-4 6 -8 6h-8 l-2 -2q-8 2 -21 -4q-4 0 -5 3t-3 5z" />
<glyph unicode="M" horiz-adv-x="770" d="M72 -6q2 27 1 53.5t-1 54.5q2 10 1 19.5t1 19.5v23q4 27 2 53.5t2 48.5q0 4 1 10.5t-1 10.5q0 10 1 23.5t1 23.5v26t4 25v21q0 12 2 22q2 2 0 4t0 4q2 20 2 37q0 18 4 39v12q0 8 2 19q0 33 3 64.5t5 64.5q6 18 7 35q0 10 2 21t2 22q0 2 1 6t1 8q2 0 0 1t0 5q0 16 3 28.5 t3 26.5v9q2 12 4 25l4 26q0 10 1 14t5 12v4q2 4 1 8.5t1 6.5q4 14 3 26.5t3 22.5q0 20 7 39v8q2 4 -0.5 10t2.5 11q4 33 7 62.5t7 61.5q0 14 3 26.5t1 29.5l-4 28q-6 10 -12.5 19.5t-12.5 17.5q-18 20 -24 35q0 14 4 16q4 10 14 11q6 0 8 -6q10 0 16.5 -4.5t12.5 -8.5 t13.5 -7t13.5 -9q4 0 10 -6q23 -10 39 -24.5t37 -31.5q2 -2 5 -4t5 -6q4 -4 9 -10t11 -10q4 -4 8.5 -6t6.5 -7q10 -8 18 -19t19 -19q8 -10 18 -25q2 -2 4 -2q4 0 4 -2q4 -8 8.5 -14.5t6.5 -12.5q6 -2 8 -7t6 -7q4 0 4 -4q0 -2 2 -4q10 -8 21 -4q6 4 8 9t6 9q6 16 12 25.5 t17 23.5q4 4 8 15q2 4 5 8t7 8q6 6 9 12t14 15q0 4 3 7t5 7q6 8 12 15t16 16q4 4 6.5 8t8.5 6q0 4 1 5t1 3q6 0 12 10q4 8 10 10.5t11 8.5l8 8t8 6q4 4 7 6t7 6h11q8 -14 4 -20t-10.5 -11t-12.5 -12q-6 -10 -12 -19t-15 -17q-4 -10 5 -19q2 -2 7 -1t7 1q18 -4 22 -20 q0 -51 -3 -102.5t-7 -102.5q-4 -25 -4 -51q0 -25 -2 -47v-5q2 0 2 -2q-2 -10 -2 -22v-21q-4 -16 -2 -28.5t2 -28.5q-3 -90 -3 -179q0 -45 1 -89q2 -133 16 -266q-4 -2 -2 -4.5t2 -4.5q2 -16 4.5 -34.5t2.5 -34.5q2 -18 5 -39t3 -41q6 -31 9 -59.5t7 -59.5q4 -12 6 -24.5 t2 -26.5q4 -10 5 -20.5t6 -18.5q12 -78 30 -156q2 -10 5 -20t8 -21q6 -33 16 -64.5t20 -64.5q23 -72 58 -141q1 -8 1 -15q0 -32 -28 -57q-8 -8 -19.5 -14t-19.5 -10t-14 -4t-10 -2q-12 0 -26.5 1t-27.5 9q-4 4 -6 7t-6 5q-10 10 -12 21.5t-4 23.5q-6 25 -10.5 50.5 t-10.5 47.5q-2 10 -2 21q0 10 -4 20q-2 12 -4 27.5t-6 32.5q0 10 -2 17t-2 18q-2 2 -1 5t-1 7l-19 129q-2 16 -4 31.5t-4 31.5q2 4 1 8.5t-1 8.5q-2 25 -4 48.5t-4 45.5q2 4 -1 5t1 5q-4 10 -2 18.5t-2 18.5q-2 23 -2 47q0 25 -2 49v4v21q0 12 -4 23v30v49q-2 6 -1 14.5 t1 18.5q-2 29 -2 57v58q0 12 1 25.5t-1 25.5q0 35 1 72t1 71l4 19v72q0 39 4 73q4 10 2 19.5t2 17.5q0 16 1 29.5t1 27.5q6 10 0 21l4 4q-4 14 -1 30.5t3 30.5q1 21 1 42q0 31 -2 61q-3 50 -7 102q0 12 -2 25.5t-4 25.5q-2 8 -15 9l-6 -2q-53 -104 -67 -220 q-4 -29 -26.5 -48t-49.5 -27q-23 -8 -43.5 -6t-36.5 20l-8 8t-4 15q-8 12 -12.5 27.5t-10.5 31.5q-10 16 -15 34.5t-16 35.5l-10 26q2 0 -2 4q-4 8 -6 11l-8 16l-8 16q-4 10 -9.5 19.5t-9.5 19.5q-2 2 -10 2q-10 -4 -9 -16t-3 -21l-15 -178q-2 -23 -2 -43t-4 -43l-6 -135 q-2 -16 -1 -32.5t-1 -32.5v-177q0 -123 5 -240.5t16 -238.5q10 -102 25 -202.5t34 -200.5q8 -18 1 -38t-24 -36q-18 -16 -42.5 -25.5t-51.5 -5.5q-29 0 -37 23q-8 8 -9 18t-3 21q-2 23 -2 45q0 20 -4 45q-2 33 -4 63.5t-2 65.5q4 4 2 7t-2 7v84q0 4 -1 8t1 9q-2 7 -2 12.5 t2 9.5q-2 12 0 25q-2 2 -2 5q0 2 1 3q3 4 -1 8q2 6 1 12t-1 15v10z" />
<glyph unicode="N" horiz-adv-x="542" d="M62 -35q0 10 4 21q-2 18 -1 36.5t1 38.5v11q4 6 2 13t-2 17q4 4 2 7.5t2 5.5q0 27 1 53.5t1 48.5q2 10 2 21v20q4 10 4 23v22v19q2 4 2 14q0 14 2 20q0 6 -1 12.5t1 12.5v8q0 6 4 12v23q0 12 2 25q6 0 0 6q2 23 4 44t4 44q2 8 2 18t4 21l-4 2q4 6 4 14t2 14v2 q0 14 2.5 28.5t4.5 29.5q2 4 0 4v2q2 12 4 22.5t2 20.5q2 10 2 20t2 19q0 6 2 12t2 10q4 23 6 47.5t4 47.5l6 43q2 25 3 49t1 53q3 16 3 32t-3 33q0 27 -18 37q-10 6 -2 19q4 8 12 4q4 -4 6 -2t2 -2q4 0 5.5 -3t3.5 1q4 -4 8 -4q10 -2 17 -6.5t18 -6.5q0 -4 2 -3t2 -3 q10 -2 16 -5t12 -5q14 -10 26.5 -18.5t25.5 -18.5q4 0 5 -1t3 -1l22 -16q0 -4 0 -2t2 -2q6 -6 14.5 -10.5t14.5 -10.5t13 -11t12 -11q2 -4 6 -2t8 2l4 6q2 35 2 70q0 34 -2 70q-4 70 -16 140q-6 25 12 41q8 6 15 10.5t18 6.5q8 -2 16 -2q8 -1 14 -7q14 -10 13 -28.5 t-2 -34.5q-2 -27 -5.5 -53.5t-5.5 -53.5q-4 -33 -7 -64.5t-7 -62.5q-2 -18 -4 -36.5t-2 -38.5q0 -8 1 -15.5t7 -17.5q16 -18 29.5 -33.5t25.5 -34.5q10 -12 8.5 -30.5t-10.5 -28.5q-18 -25 -47 -37q-4 -4 -7 -5t-9 -1q-12 -12 -14 -23v-36t-2 -37v-23q0 -10 -5 -22 q4 -18 2 -38t-2 -38v-53q0 -18 2.5 -38t-2.5 -42q4 -23 5 -47v-43q2 -29 2 -58q0 -27 2 -51q0 -14 2 -26.5t2 -24.5q2 -35 6 -70t8 -69q6 -96 25 -193q2 -10 3 -19.5t5 -19.5q2 -16 5 -30.5t5 -30.5q10 -45 19.5 -88t21.5 -84q4 -14 8 -26.5t8 -24.5q1 -5 1 -11 q0 -18 -10 -32q-13 -20 -31 -30t-42 -14q-7 -1 -14 -1q-17 0 -33 8q-10 4 -14 12q-10 6 -10 18t-2 23q-4 10 -4 22t-2 23q0 20 -3.5 39.5t-3.5 40.5q-2 8 -1 14t-1 17q-2 23 -2 45q0 20 -4 43q0 4 -1 8t-1 8v16t-2 17v6v43q-4 4 0 12q-4 4 -4 21v14q0 16 -1 28.5t-1 26.5v56 q0 4 -2 10t2 12q-4 6 -2 13.5t2 13.5q-4 8 -4 24v62q4 0 2 1t-2 5v96q0 33 3 63.5t3 65.5q-2 10 -1 21.5t1 21.5q4 33 4 64t2 63q2 6 2 15v16q0 16 2 31.5t2 31.5h2v25q0 12 2 23v2q6 45 7 88q-4 23 -17 30q-4 4 -6 10.5t-6 12.5q0 4 -4 8t0 8q-10 14 -13.5 28.5t-11.5 27.5 q-4 10 -9 18t-11 16q0 6 -4 11.5t-6 11.5q-16 29 -34 54.5t-36 49.5q-6 6 -10 6q-4 -4 -9 -4q-2 0 -6 -4q-2 -10 -2 -20t-4 -21l-12 -141q-4 -2 -2 -2t2 -4q-4 -8 -3 -17.5t-3 -17.5q2 -4 1 -9t-1 -11q0 -12 -1 -24.5t-1 -27.5l-2 -2q-2 -2 2 -4q0 -16 -3 -31.5t-1 -31.5 l-2 -2q0 -4 1 -9.5t-1 -11.5v-28q0 -12 -2 -29q0 -20 -2.5 -42t-2.5 -44v-84q-2 -16 -1 -29.5t-1 -25.5q2 -10 1 -20.5t1 -18.5v-68q0 -33 5 -67q0 -2 1 -5.5t1 -5.5q2 -51 6 -100t10 -98q2 -25 4 -49.5t6 -49.5q10 -45 12 -84q12 -39 19 -88q0 -6 3 -13t3 -13q4 -18 8 -40 t-8 -40q-25 -35 -55 -43q-10 -4 -21.5 -6t-21.5 2q-4 -4 -4 -2t-2 2q-10 4 -19.5 9t-13.5 15q-4 14 -8 29.5t0 30.5q0 18 -4 26l4 8q-4 23 -4 46v45q-2 6 -3 16v20v115v8q2 14 0 28q-1 4 -1 9z" />
<glyph unicode="O" horiz-adv-x="1460" d="M48 669q0 14 1 27q4 98 35 186.5t85 167t132 140.5q37 31 77 54.5t83 41.5q2 -2 8 -2t10 -6v-10q-4 -10 -14 -14.5t-19 -12.5q-29 -16 -54 -37.5t-48 -44.5q-14 -10 -24.5 -24.5t-22.5 -26.5l-37 -59q-44 -85 -62 -187q-8 -49 -9 -99q0 -54 10 -108q18 -117 72.5 -218 t140.5 -193q29 -31 59.5 -61.5t67.5 -53.5q16 -14 32.5 -23.5t34.5 -19.5q4 -4 8 -3t9 -3q20 -8 39 -12q16 -6 30.5 -9.5t28.5 -7.5q2 2 4 0t6 0q12 0 23.5 -2t23.5 -4q29 0 55.5 3t55.5 7l12 4q10 0 12 2q10 0 15 5q106 35 182 122q113 125 143 289q9 47 9 96q0 31 -4 63 q-9 81 -27 155h-2q-6 33 -18.5 61.5t-24.5 56.5q-35 70 -83 133.5t-108 114.5q-4 4 -6 4l-4 4q-6 8 -14 12.5t-15 12.5q-59 41 -122.5 68.5t-135.5 37.5q-18 4 -37.5 5.5t-39.5 3.5q-4 4 -9.5 7t-5.5 9q0 10 9.5 9t15.5 3q49 8 98 8q55 0 109 -10q102 -18 190 -59 q20 -8 39 -18.5t37 -22.5q92 -61 164.5 -154.5t105.5 -197.5q29 -91 33 -193q0 -12 1 -25q0 -88 -26 -169q-20 -68 -53 -132.5t-80 -119.5q-8 -8 -14 -14.5t-12 -14.5q-86 -90 -197 -141q-4 0 -10 -7l-22.5 -9l-22.5 -9q-129 -45 -271 -45q-55 4 -109 14.5t-106 30.5 q-8 0 -14 3t-16 7q-6 4 -13.5 6t-13.5 9q-100 47 -184 129t-131 182q-10 23 -19.5 46.5t-15.5 45.5q-2 4 -4 11.5t-4 17.5q-22 83 -22 167zM530 692q4 4 6.5 9.5t8.5 5.5q25 4 50.5 9t51.5 7q46 3 92 3l92 -3q27 0 50 -6q12 2 22 0t21 -4q14 -6 16 -21q-4 -16 -4 -10 q-10 -8 -22.5 -9t-22.5 -3q-4 0 -9 -1t-10 -1l-2 -2q-45 -4 -89 -8q-28 -2 -57 -2q-17 0 -34 1q-29 0 -60.5 3.5t-62.5 5.5q-4 2 -6 0q-6 2 -12 3t-10 5q-8 6 -9 18z" />
<glyph unicode="P" horiz-adv-x="339" d="M68 1423q0 -2 6 -8q23 -2 41 7.5t39 -3.5q2 -4 5 -9t-1 -11q6 -37 7 -75t5 -73q0 -47 -3 -95t-5 -95q-4 -23 -6 -45.5t-6 -44.5v-8q-2 -16 -3.5 -35t-5.5 -35l2 -2l-4 -12q0 -2 1 -3.5t-1 -5.5q-4 -35 -8 -69.5t-6 -69.5q-4 -4 -2 -6t-2 -4q-2 -31 -3 -60.5t-5 -58.5 q-2 -6 -2 -16q4 -16 -10.5 -23.5t-18.5 -19.5q0 -8 5 -11.5t11 -7.5q6 -10 6 -18l-2 -57q-4 -20 -4 -35v-17q0 -8 -2 -16v-23q0 -8 -4 -20v-45q0 -6 -1 -12.5t1 -10.5q-2 -10 -2 -26v-25q0 -10 -1 -18t1 -19q-2 -8 -1 -15t-1 -13q0 -20 -2 -39t2 -39q-6 -6 0 -17 q-4 -18 -2 -37.5t-2 -35.5q6 -6 0 -13q4 -29 2 -58.5t2 -53.5q0 -43 2 -81t2 -79l4 -37v-43q0 -37 6 -82q4 -12 14.5 -23.5t26.5 -15.5q5 0 7 -2l1 -1q2 0 5 3q4 -3 8 -3q2 0 3 1q5 2 11 2q29 2 56.5 20.5t37.5 47.5q2 6 2 20v17q-8 45 -16 88t-14 88q-4 16 -6 33.5t-7 33.5 l3 2q2 3 -3 5q-14 109 -24 225q-4 45 -6 90t-6 88q-2 66 -3.5 130.5t-1.5 129.5q4 12 17 21q16 4 32.5 7t32.5 9q6 0 15 4q6 0 12 3t12 5q16 4 36 10.5t36 14.5l16 6q57 29 108.5 65.5t96.5 86.5q35 41 64.5 90t46.5 102q22 69 22 133v6q0 23 -4 48.5t-10 48.5q-2 4 -1 7 t-1 7q0 8 -3 14t-7 17q-6 20 -19 43q-4 8 -9 17t-11 20q-4 10 -11.5 18t-13.5 18q-10 4 -10 9q-18 16 -38.5 33.5t-45.5 33.5q-10 4 -18.5 10.5t-18.5 10.5t-20.5 9t-14.5 5q-8 4 -16 5t-16 5q-25 6 -51.5 10.5t-51.5 8.5q-10 2 -24 2h-25q-6 0 -12 -1t-13 1q-6 -2 -20 -2 q-8 0 -21 -4q-8 0 -13 -1t-15 -1q-14 -4 -31.5 -7.5t-32.5 -7.5q-8 0 -12 -3t-10 -3q-4 -4 -9.5 -3t-9.5 -3q-12 -2 -24 -10q-6 -6 -6 -13zM190 604q0 111 6 224.5t11 224.5q4 51 8 100t12 98q-4 6 -2 11.5t2 9.5q4 31 6.5 62.5t4.5 60.5q0 16 8 24q4 0 4 2v2l2 -2q0 4 3 3 t3 3q4 0 5 -2t5 2q23 -6 43.5 -11t40.5 -15q33 -16 68 -37q90 -57 135 -156q6 -18 12 -37.5t11 -37.5q9 -41 9 -82v-10q0 -20 -3 -41q-8 -66 -35 -123q-16 -39 -41 -76t-55 -70q-80 -80 -179 -125q-18 -6 -34 -14q-11 -5 -25 -5q-7 0 -14 1q-6 2 -7 7t-4 9z" />
<glyph unicode="Q" horiz-adv-x="1427" d="M39 672q0 63 12 125q25 125 95.5 233.5t177.5 183.5q4 2 8 5.5t8 7.5q18 10 36.5 20t39.5 21q86 43 182 61q8 0 10 2q41 6 87 7h18q36 0 69 -3q53 -4 102.5 -17.5t96.5 -31.5q125 -51 224.5 -153.5t144.5 -231.5q39 -104 40 -225v-6q0 -118 -36 -219q-29 -72 -68 -137.5 t-94 -118.5q-10 -12 -23.5 -22.5t-23.5 -20.5q-4 -4 -7 -5.5t-8 -5.5q-6 -6 -13 -11t-7 -15q2 -12 10 -17.5t17 -13.5q6 0 8 -4q8 -4 14 -10q10 -6 21.5 -14.5t21.5 -16.5q2 -2 10 -6q12 -14 27.5 -22.5t20.5 -28.5q0 -6 2 -11.5t0 -11.5q-6 -45 -48 -55q-13 -3 -27 -3h-7 q-17 1 -31 13q-14 14 -25.5 28.5t-23.5 30.5q-29 37 -66 68q-10 10 -22.5 14t-24.5 0q-10 -4 -17 -6t-18 -6q-10 0 -12 6q-4 8 4 17q4 4 10.5 7t8.5 11q-2 12 -17 18q-33 16 -66.5 29.5t-70.5 22.5q-4 0 -7 1t-5 1q-6 2 -19 2q-14 2 -25.5 3t-23.5 -3q-45 0 -63 -35 q-4 -6 -2 -12.5t2 -12.5q4 -10 9 -16t11 -14q4 0 6 -3.5t6 -5.5q10 -6 19.5 -12t15.5 -16q4 -8 0 -14.5t-8 -12.5l-14 -4q-47 0 -94.5 6t-88.5 21q-23 4 -41 11t-38 15q-102 41 -189.5 121t-140.5 180q-53 96 -71 212q-9 53 -9 106zM231 709q0 -47 2.5 -94.5t12.5 -94.5 q4 -25 9 -49.5t13 -48.5q16 -57 45 -110.5t70 -98.5q4 -10 10 -14t10 -13q61 -68 134 -106q6 -2 18 -10q23 -10 45.5 -20.5t50.5 -14.5q2 2 8 2q2 2 3 6q2 6 -3 10q-12 6 -22 23q-20 20 -27 43q-4 20 7.5 37.5t25.5 29.5q20 18 45 24.5t51 10.5q4 2 10.5 1t10.5 1 q23 0 43 -2t43 -6q4 -4 7 -2t7 -2q6 2 10 -1t9 -1q18 -10 37.5 -14.5t39.5 -14.5h2l13 -6q4 -2 6 -2q4 0 6 -4q18 -6 35 -14q12 -2 24 -2q14 0 23 10q16 18 29.5 38.5t25.5 41.5l6 12q23 43 38.5 89t25.5 93v4q4 14 5 28.5t3 31.5q2 14 2 26q0 14 2 27q0 23 1 47v15 q0 16 -1 32q-4 55 -13 109.5t-26 107.5q-31 104 -88 191q-18 27 -39.5 51t-44.5 47q-23 20 -44 36.5t-44 33.5l-12 8t-14 6q-4 4 -9.5 7t-11.5 5q-2 -2 -2 0q0 4 -4 2q-33 16 -66.5 26.5t-70.5 14.5q-22 3 -44 3h-11q-27 -1 -56 -5l-43 -12q-10 -2 -27 -10 q-16 -10 -29.5 -17.5t-27.5 -17.5q-41 -23 -69.5 -59.5t-55.5 -71.5q-29 -41 -49 -85t-37 -91q-6 -14 -8 -27.5t-6 -28.5q-8 -41 -13.5 -80.5t-5.5 -80.5zM1190 580v2h2v-2h-2z" />
<glyph unicode="R" horiz-adv-x="737" d="M38 1021q0 2 3 5l2 4q31 12 74 21q34 6 68 6t69 -6q49 -6 93 -24.5t79 -53.5q29 -35 40 -75q5 -19 5 -38q0 -21 -6 -43q-4 -20 -15.5 -36.5t-21.5 -32.5q-25 -33 -56.5 -53.5t-66.5 -32.5q-27 -14 -65 -21q-4 -4 -10.5 -5t-8.5 -5l-2 -10q41 -29 82 -65t78 -77 q16 -16 33.5 -36.5t33.5 -39.5q-2 -4 1.5 -3t3.5 -1q2 -4 6 -8t6 -8q16 -23 33.5 -45.5t35.5 -50.5q2 -4 4.5 -8.5t6.5 -8.5q12 -18 24.5 -37.5t24.5 -39.5q4 -6 8 -13.5t8 -13.5q6 -10 12.5 -22.5t12.5 -22.5q0 -4 2 -4q4 0 2 -4q2 -8 4 -11.5t2 -7.5q6 -4 7 -10t5 -10 q6 -12 12.5 -24.5t10.5 -22.5q6 -14 13 -27.5t14 -28.5q8 -16 14 -30.5t16 -30.5q10 -33 21.5 -61.5t21.5 -57.5q10 -20 17.5 -39.5t15.5 -40.5q4 -19 7 -39q1 -5 1 -11q0 -14 -6 -26q-8 -10 -17.5 -20t-23.5 -18q-20 -12 -61 -17q-39 0 -56 37q-8 20 -8 31q-2 6 -2 16 q-37 215 -135 399q-43 98 -99.5 185.5t-119.5 179.5l-86 121q-10 16 -23.5 31.5t-25.5 31.5q-4 2 -6.5 6.5t-10.5 4.5q-6 -4 -10 -11q-3 -33 -3 -68v-17v-29q0 -29 -1 -56q0 -119 9 -232.5t32 -229.5q4 -14 5 -31t-9 -29q-12 -14 -27.5 -25.5t-34.5 -15.5q-8 -2 -14 0t-14 4 q-8 4 -15.5 13.5t-11.5 19.5q-2 4 -1 10t-3 11q2 23 1 46t1 48v22t2 23q-2 18 -1 39.5t1 40.5q2 23 2 43v43q4 20 0 30q4 49 5 93.5t3 89.5q4 41 6 88t7 88l16 174q4 37 9 76t16 80q0 10 1 20t1 20q-8 0 -9 5q0 4 -4 8q-6 0 -12 3t-12 -1q-8 -2 -15.5 -5t-15.5 1h-2 q0 4 -2 7q-1 1 -1 2zM131 688q0 -12 4 -14q2 -8 10.5 -9t12.5 -6q6 -1 11 -1q9 0 17 2q12 4 27 8l6 4q35 10 56.5 39.5t31.5 64.5q7 21 7 42q0 10 -1 18q-4 30 -18 57q-4 14 -13.5 25.5t-17.5 27.5q-4 8 -10 12.5t-10 10.5q-8 6 -16.5 13t-18.5 11q-2 0 -4 2t-6 4l-19 7h-2 q-7 0 -18 -11q-4 -39 -9.5 -76.5t-9.5 -74.5q-2 -29 -4 -58.5t-4 -62.5q2 -10 0 -17.5t-2 -17.5z" />
<glyph unicode="S" horiz-adv-x="1054" d="M-92 -39q0 8 14 12q14 -4 23.5 -15t23.5 -15q2 -2 11 -6l20 -13q4 -4 8 -6l8 -4q27 -10 50.5 -22.5t50.5 -20.5l37 -14q4 -2 10 -2t14 -2q14 -4 31.5 -7.5t34.5 -7.5q39 -6 78 -6q32 0 64 4q72 8 136 31q20 6 41 15t41 24h4q55 35 100.5 83t69.5 105q31 66 38 140 q5 58 5 115v32q-4 53 -11 106.5t-26 100.5q-23 61 -54.5 119.5t-74.5 109.5q-117 133 -278 182q-35 10 -86 15q-22 2 -45 2q-17 0 -34 -1q-40 -3 -79 -14q-10 -2 -23.5 -8t-23.5 6q-2 4 2 13q29 14 59.5 23t65.5 16q70 18 143 18q43 0 86 -6q115 -16 216.5 -69.5 t179.5 -139.5q84 -94 127 -210q39 -106 39 -221v-22q-4 -4 -2 -9t-1 -9q-10 -115 -55 -218.5t-123 -184.5q-10 -12 -23.5 -23.5t-25.5 -24.5q-20 -16 -41.5 -32.5t-44.5 -28.5q-51 -29 -106.5 -49.5t-114.5 -32.5q-58 -11 -116 -11q-68 0 -134 15q-123 27 -225 90 q-20 16 -41 31.5t-39 32.5q-4 2 -4 6v8zM72 1178q-2 10 5 14t11 8q4 0 5 2t5 2q20 14 42 23.5t44 19.5l17.5 7t17.5 6q4 4 8 4t9 4q4 2 8 1t8 3q2 0 8 6l8 2q35 10 67 16.5t66 12.5q16 2 33 2q16 0 33 2h20q16 -2 29.5 -1t26.5 -1q14 -2 25.5 -1t23.5 -1q23 -4 42 -7.5 t36 -17.5q19 -19 19 -42q-1 -6 -1 -10q-4 -28 -28.5 -48.5t-53.5 -26.5q-13 -1 -25 -1q-21 0 -39 4q-30 7 -63 16q-81 22 -169 22h-11q-94 -2 -180 -27q-10 -2 -16.5 -4t-14.5 -4q-12 2 -16 15z" />
<glyph unicode="T" horiz-adv-x="317" d="M-446 916q0 -3 2 -7q4 0 5 -3t5 -3h82h6h14h172h88h160q10 0 14 -2q16 -4 17 -22q0 -14 -1 -26.5t-1 -23.5q-4 -37 -7.5 -71.5t-5.5 -71.5v-2q-4 -16 -3 -29.5t-3 -25.5q0 -10 -1 -20.5t-1 -20.5v-4q-2 -8 -3 -14.5t-1 -12.5v-22q-2 -10 -2 -23v-23v-20t-2 -20 q-6 -53 -6 -101q0 -10 -2 -20.5t2 -20.5q-4 -4 -2 -9t-2 -9q0 -31 -1 -59.5t1 -59.5q-2 -28 -2 -56.5t2 -58.5q0 -2 -1 -5t1 -5q-2 -10 -1 -18.5t1 -16.5q4 -12 1 -24.5t-1 -28.5q4 -4 2 -10t2 -10q-4 -2 -2 -5.5t2 -5.5q-4 -16 -2 -31.5t2 -31.5q2 -10 -1 -17.5t1 -17.5 q0 -49 6 -100q-4 -2 -2 -4.5t2 -4.5q0 -4 1 -6t-1 -6q2 -4 1 -8t1 -8q-2 -4 -1 -8.5t1 -8.5t1 -6t-1 -6q2 -2 0 -4t2 -4q-2 -10 -1 -17.5t1 -17.5q4 -10 2 -24.5t2 -24.5q0 -27 6 -47q-4 -10 -2 -18.5t2 -16.5l2 -27q4 -8 7.5 -16t13.5 -12q8 -8 20.5 -11.5t24.5 -3.5l2 2 t4 2q27 2 51.5 19.5t32.5 46.5q2 2 1 4t1 4q-2 4 -1 9.5t-1 11.5l1 1q1 1 -1 5q-8 18 -14 53q0 4 -2 6t-2 6q-8 39 -15.5 77t-13.5 77q-4 29 -8 54.5t-8 53.5q-6 47 -12.5 93.5t-8.5 91.5q-4 4 -3 5t1 5q-10 72 -12 152v22q-2 10 -2 21v22t-1 22.5t-3 22.5q-2 16 -1 30.5 t-1 31.5v8v49l-4 53q0 16 2 31.5t-2 32.5q0 37 2 71q1 12 1 24q0 24 -3 50q0 18 2 36.5t2 35.5q2 14 1 25.5t1 23.5v39q0 10 1 19.5t3 19.5q6 4 9 10t13 6h215l6 4l125 -4q20 0 39 2t39 -2v4h2q10 -10 15 0q10 -4 16 -2t16 2q4 0 8.5 -2t8.5 2q23 -4 44 -2t44 -2q4 0 4 2 t2 2q12 -4 18 -4h19q10 4 18 2t17 -2q4 0 6 2t6 2q6 0 11 -2t11 2q12 0 17 6q-2 8 -10 15q-10 2 -22.5 1t-20.5 1q-6 2 -11.5 1t-11.5 1q-10 0 -23.5 2t-25.5 2q-4 0 -6 1t-6 -1q-4 2 -21 2q-37 6 -82 6q-8 2 -16 2h-19q-10 0 -18 1t-18.5 3t-22.5 1t-23 -1q-27 2 -53 4 t-53 2q-4 2 -9 0t-9 2h-5h-67h-17q-4 0 -10 -1t-12 1q-4 -2 -7 -1t-7 1h-29h-18q-2 2 -6.5 0t-8.5 0q-2 2 -3 0t-5 0q-8 -2 -15.5 0.5t-15.5 -0.5q-12 12 -18 21q0 29 2 54.5t4 49.5q0 8 2 15.5t2 13.5q0 10 1 23.5t1 23.5q0 4 1 8t-1 9q2 10 4 21t2 26q0 6 1 13t1 15 q4 16 4 23q0 16 2 24q2 23 4.5 42.5t4.5 39.5q4 4 1 8.5t-1 8.5q-5 12 -17 22q-6 2 -12 2q-4 0 -10 -1q-12 -3 -21 -9q-4 -6 -5 -12t-3 -17q2 -16 2 -32v-33v-66q2 -4 1 -7t1 -7l-2 -35v-8q1 -27 1 -52v-25q-1 -36 -3 -75q-4 -8 -2 -14t-2 -10q0 -8 -1 -17.5t1 -15.5 q-2 -4 -4 -7t-4 -7q-10 -12 -27 -13h-10h-64h-8q-10 -2 -28 -2h-33q-4 0 -9.5 -2t-11.5 2q-8 -4 -17 -2t-20 -2q-6 -2 -12 -1t-16 -1v2q-10 -2 -21 -2h-22t-22.5 -1t-22.5 -3h-13q-8 0 -10 -2q-4 4 -4 0h-2h-35q-27 0 -37 -2q-20 -4 -30 -4h-17q-8 0 -16 -2q-10 -4 -20.5 -3 t-20.5 -3q-8 2 -14 -8q-2 -3 -2 -6z" />
<glyph unicode="U" horiz-adv-x="618" d="M47 135q2 10 1 15.5t-1 15.5q2 6 1 11t-1 9q0 43 1 81t1 79q0 31 3 61.5t3 63.5q2 10 2 18q0 10 4 21q-4 6 -2 12t2 15q2 18 2 36t3 35q0 8 2 14.5t2 12.5q0 10 1 20.5t1 20.5l2 2q0 16 3 32.5t3 32.5q4 10 5 20.5t1 20.5q2 10 5 21.5t3 21.5v9q0 4 2 9t0 11q2 4 1 6t1 6 q0 10 3 18.5t3 18.5q2 4 1 5t1 3q0 4 1.5 6.5t-1.5 6.5q2 8 4.5 14t2.5 14q0 6 2 10.5t0 8.5q2 6 2 14q6 18 8 39q4 14 5 30.5t9 28.5q18 33 52 49q25 12 51 13q10 0 20 -2q16 -4 28.5 -15.5t16.5 -27.5q2 -10 1 -22.5t-1 -22.5q-4 -14 -8 -29.5t-8 -32.5q-4 -8 -6 -17 t-6 -17q-4 -20 -9.5 -39t-11.5 -37q-16 -66 -28.5 -130.5t-24.5 -129.5q-4 -10 -5 -20.5t-3 -20.5q0 -4 -1 -8.5t-1 -8.5q-4 -27 -8.5 -53.5t-8.5 -50.5q-4 -10 -3 -17.5t-3 -17.5q2 -8 0 -16.5t-2 -18.5q-4 -6 -2 -13t-2 -13q-4 -29 -5 -56.5t-5 -56.5q0 -14 -1 -27.5 t1 -25.5q0 -4 -1 -7.5t-1 -7.5q-4 -20 -2 -36.5t2 -34.5l2 -97q-2 -4 -1 -8t1 -8v-4q0 -10 1 -17.5t1 -13.5q0 -10 2 -21.5t2 -21.5q2 -29 6 -54.5t6 -53.5q4 -12 7 -24.5t7 -27.5q0 -10 4.5 -15t6.5 -15q6 -8 9 -14.5t7 -12.5l7 -7l7 -7t8.5 -9.5t8.5 -9.5q16 -10 32.5 -19 t38.5 -9q4 4 10.5 2t12.5 0q10 0 16 2q8 6 17 8q0 2 3 1t3 1q10 6 21.5 17.5l21.5 21.5q6 10 13 20.5t11 20.5q2 6 5.5 12t5.5 12q2 14 5 27.5t3 30.5l4 46l4 46q-2 12 -1 22.5t1 22.5q2 35 4 68.5t2 70.5v117q0 59 2 121v143q-2 18 -2 35v37q0 4 1 6t-1 6q0 18 -2 35.5 t-2 36.5q0 14 1 27.5t-3 29.5q2 2 1 5t-1 5v23q0 12 -2 23q2 16 -1 31.5t-3 31.5q-2 27 -2 53q0 27 -2 56v2q-4 20 -4 41q0 20 -2 41v26q0 55 -6 109q4 4 2 7t2 7q-4 4 -4 18q0 12 -1 24.5t1 25.5q4 4 -0.5 8t-1.5 10v8v25q-2 6 1 11t-1 11q0 8 -1.5 17.5t1.5 17.5 q-2 12 -1 24.5t1 24.5q0 16 -2.5 34t8.5 34q9 18 29 26q11 4 22 4h4q7 0 14 -1l15 -9q6 -6 11 -14t1 -18q-2 -10 -1 -21.5t-1 -23.5q-4 -29 -7 -62t-7 -63q-2 -18 -3 -33q0 -14 -2 -33q2 -4 1 -9t-1 -11q-6 -61 -6 -121q-2 -41 -2 -82v-82q0 -51 4 -102.5t4 -104.5 q2 -29 2 -59q0 -29 3 -58q4 -10 4 -20v-21q2 -4 2 -12q4 -23 3 -42t3 -38q0 -16 1 -29.5t-1 -29.5q2 -4 0 -8t2 -9l-2 -10q2 -41 3 -82t1 -82v-36q-4 -2 0 -4.5t0 -6.5q4 0 2 -2l-2 -2q6 -14 0 -20q0 -10 2 -19.5t2 -19.5q-4 0 -2 -1t2 -5v-52q0 -4 -2 -9t2 -9q-4 -6 -1 -11 q2 -3 2 -7q0 -2 -1 -5q0 -18 -2 -34.5t2 -34.5q0 -4 -2 -9t2 -10q-4 0 -2 -2t2 -4q0 -6 -2 -12t2 -12q-4 -6 -4 -13v-14q0 -29 -1 -59.5t-1 -59.5l-2 -28v-29q-4 -18 -13.5 -35.5t-25.5 -28.5q-10 -4 -20.5 -8t-22.5 -2q-14 2 -25.5 9.5t-25.5 7.5q-18 2 -33.5 -4.5 t-32.5 -10.5q-12 -2 -24.5 -3t-24.5 -1q-18 2 -33.5 3t-32.5 7q-25 8 -43 24.5t-36 35.5q-6 8 -15.5 17t-13.5 18q-18 29 -27.5 59.5t-15.5 62.5q-6 31 -10 63t-9 62q-4 27 -6 53.5t-4 55.5q-4 23 -4 45q0 25 -2 49z" />
<glyph unicode="V" horiz-adv-x="393" d="M-110 1208q0 9 6 13q10 10 14 2q16 -12 24 -33q6 -10 11.5 -20.5t13.5 -22.5q4 -4 5 -10.5t5 -12.5q8 -14 16.5 -28.5t14.5 -30.5q6 -10 11 -21.5t12 -23.5q23 -53 44 -104.5t37 -104.5q12 -29 20.5 -59.5t18.5 -59.5q6 -23 17 -51q10 -45 22.5 -90t22.5 -90 q0 -6 3 -11.5t3 -15.5q8 -27 13 -51.5t9 -52.5q4 -12 6.5 -26.5t6.5 -31.5q0 -4 4 -3t8 -1q8 4 6 13.5t0 15.5q4 53 10.5 106.5t12.5 106.5q4 47 10 95t12 95q4 35 10.5 69t12.5 69q4 20 6 42.5t8 45.5q-2 8 1 13t5 11q4 29 8 45q0 10 5 27q6 39 18 84q2 8 3 17.5t5 17.5 q-2 10 1 18t5 17q2 10 4 18t2 18q2 4 3 7q0 4 2 10q4 16 9 30.5t7 30.5q4 10 9 20.5t18 16.5q10 6 24 9q5 1 9 1q9 0 18 -4q8 -2 11 -7t7 -9q5 -7 5 -15q0 -4 -2 -10q-5 -14 -9 -24q-8 -23 -16.5 -42.5t-14.5 -41.5q-18 -55 -36.5 -111.5t-30.5 -116.5q-12 -49 -22.5 -98 t-20.5 -100q-8 -41 -14.5 -84t-12.5 -86l-18 -154q-10 -92 -14 -182t-9 -182v-174q-4 -4 -3 -8.5t-1 -8.5q-6 -16 -22 -37l-9 -6l-10 -6v-2l-8 -4t-8 -6q-4 0 -9.5 -2t-11.5 -2q0 -4 -2 -3t-6 -1l-20 -3q-6 2 -13.5 1t-11.5 6q-4 2 -8 3t-6 7q-18 10 -20.5 28.5t-6.5 36.5 q-2 31 -4 61t-8 58l4 2q-4 16 -6 34.5t-2 35.5q-6 53 -12.5 102t-12.5 101q-8 35 -12 69.5t-10 69.5l2 2q-4 10 -5 22q0 12 -4 23q-4 23 -8 42t-8 42q-23 117 -46.5 231.5t-51.5 229.5q-6 23 -11.5 45t-13.5 45q-6 16 -10 32.5t-8 34.5q-2 6 -4 11.5t-2 13.5q-6 6 -6 12z " />
<glyph unicode="W" horiz-adv-x="665" d="M-94 1171q2 4 2 7q0 4 6 6q10 0 15 -7.5t10 -13.5q4 -12 10 -18q8 -14 13 -25.5t11 -23.5q4 -6 6.5 -12.5t6.5 -10.5q0 -4 4 -8q4 -10 8 -19.5t10 -19.5q8 -23 17.5 -41t15.5 -39q10 -23 18.5 -42t12.5 -40q4 -6 6 -10t2 -10q4 -10 7 -22.5t7 -22.5q0 -6 3 -10.5t5 -10.5 q2 -12 6.5 -23.5t6.5 -23.5q6 -12 9 -25.5t9 -25.5q2 -8 2 -16t4 -19q6 -23 12.5 -45t10.5 -47q2 0 1 -3l-1 -3q6 -20 9 -39t9 -41q2 -4 1 -8t3 -8q-4 -8 1 -14.5t1 -12.5q4 -4 4 -8q4 -10 3.5 -20.5t3.5 -20.5q2 -4 0 -8.5t2 -6.5q0 -2 2 -4t2 -6q0 -10 2 -19t4 -19.5 t2 -18.5t4 -19q2 -6 2 -14q0 -6 10 -10q4 0 11 4q4 27 7 53.5t9 54.5q0 12 6 29q2 8 2 17q0 8 4 18q2 8 3 16.5t5 16.5q4 23 10.5 43t14.5 41q2 2 1 3t1 5q6 14 8 31.5t-6 33.5q-2 6 -4 14.5t2 16.5q8 6 21 2q16 -14 26 -37q12 -16 21.5 -30.5t17.5 -28.5q4 -10 10 -20.5 t11 -20.5q6 -23 16 -31q2 -4 2 -10q0 -4 4 -8q12 -25 21.5 -51.5t19.5 -53.5q2 -8 4 -15t6 -17.5t7.5 -20.5t5.5 -24q2 -6 6 -23q-2 -2 4 -6q0 -4 4 -3t8 1q4 4 2 9t0 9q0 4 1 9.5t1 11.5q2 4 0 10t0 10q0 4 1 8.5t-1 8.5q2 23 4 45t2 47v8q2 8 1 13t1 12v24q0 14 4 25 q-2 4 -1 8t-1 8l2 35q4 4 2 7t1 7q4 10 4 23q0 14 2 26q2 23 5 41.5t3 38.5q4 23 6 46.5t6 47.5q2 6 1 13.5t3 15.5q0 12 2 23.5t2 23.5q4 16 6.5 30.5t4.5 31.5q4 4 3 9t3 9q-2 4 0 11.5t2 13.5q2 14 5 27.5t5 29.5l6 37q4 10 6 20.5t4 22.5q4 29 12.5 56.5t12.5 56.5 q4 10 5 20t5 18q4 10 6 15.5t2 15.5q6 12 14.5 24.5t20.5 18.5q14 5 29 5h5q18 -1 26 -17q6 -10 6 -20q0 -7 -2 -13q-6 -16 -11 -33q-16 -31 -28 -63.5t-23 -67.5q-4 -4 -2 -4q-10 -35 -20 -72.5t-23 -74.5q-2 -16 -6 -31.5t-6 -30.5q-8 -35 -13.5 -66.5t-11.5 -66.5 q-2 -4 -1 -8t-1 -6q-2 -6 -1 -11.5t-1 -9.5q-4 -25 -7 -47t-5 -47q-16 -135 -24 -273q-5 -93 -5 -186v-31v-57q2 -182 19 -356q4 -27 0 -54.5t-21 -49.5q-23 -29 -57 -35q-27 -10 -51 0q-4 2 -8 2l-13 8l-10 14q-8 8 -8 17q-2 16 -2 32v33q-2 33 -3 62.5t-1 62.5 q-6 106 -15.5 212t-23.5 214q-6 45 -12.5 89t-16.5 91q-2 4 -6 7.5t-8 -0.5q-6 -6 -7 -15.5t-6 -17.5q-10 -33 -19 -65t-13 -66q-6 -29 -9.5 -62t-7.5 -61q-2 -8 -2 -21q-8 -92 -8 -184t10 -184q4 -20 6 -42t5 -44q0 -23 -12.5 -41.5t-33.5 -30.5q-4 2 -4 0q0 -4 -2 -4 q-16 -10 -45 -14q-2 2 -5 -0.5t-5 -2.5q-6 2 -11 1t-11 4q-23 8 -33 22q-10 12 -9 27.5t-4 27.5q2 8 -1 15.5t-1 15.5q0 4 -1 11.5t1 13.5q-4 23 -3 43t-1 41q2 4 -1 6t1 4q-4 27 -5 52.5t-3 51.5q0 16 -3 35t-3 37q-4 23 -4 43q0 23 -2 45q-4 45 -9.5 88t-9.5 88 q-2 23 -4 44.5t-6 43.5q-2 4 -1 6t-1 7q-4 35 -8 69.5t-8 71.5q-14 92 -28.5 183t-31.5 183q-10 49 -21 100.5t-24 102.5q-4 25 -10 48.5t-10 45.5z" />
<glyph unicode="X" horiz-adv-x="555" d="M43 -354q0 6 2 10t2 10q4 27 7 51.5t7 49.5q4 4 2 9t0 11q2 2 3 12q2 2 2 13q0 10 2 12q0 4 4 8q-4 4 -2 10t4 13q-2 2 0 4t0 4q4 20 6 38.5t6 37.5q2 4 1 9t3 9q-4 4 4 4q-4 4 -2 6t2 6q2 25 13 54q4 4 2 8t0 8q0 4 1 7t1 7q2 10 5 22.5t5 22.5q2 0 0 9q8 25 12 55 q4 2 2 5t0 7q2 10 3 14.5t1 0.5t1 0t3 14q0 10 7 20q2 12 3 23.5t5 23.5q4 4 2 8.5t2 8.5q4 16 7 29.5t7 29.5q6 16 8 33.5t7 34.5q6 16 9 31.5t9 31.5q2 4 1 7.5t1 7.5q2 10 4 23l4 26q-2 4 0 8t0 8q-4 6 0 17q-2 2 -2 26q-8 29 -13 55.5t-13 53.5q0 10 -7.5 38.5 t-11.5 51.5l-4 16t-4 19q2 4 -2 6t0 6q-8 29 -15.5 56.5t-15.5 56.5q-2 2 -2 8q0 8 -2 10q0 6 -3 11t-3 14q-10 41 -23.5 79.5t-23.5 79.5q0 12 4 17q8 2 12 0q6 -4 9 -10.5t8 -10.5q12 -20 24 -40.5t25 -41.5q0 -6 2 -8q4 -6 7 -11t7 -9q4 -10 9 -20.5t10 -22.5 q8 -10 13 -22.5t13 -24.5q4 -10 8 -20.5t9 -22.5q6 -4 7 -11.5t5 -13.5q6 -12 10 -25.5t10 -23.5q2 -12 8.5 -22.5t10.5 -20.5q4 -4 12 -2l4 4q8 35 16.5 69.5t14.5 73.5q8 41 13 81t9 85q4 35 6.5 67.5t6.5 67.5q-4 6 0 13v24q0 4 -1 8t1 8q2 8 10 17q18 24 51 24h8 q17 -2 21 -12q8 -8 8 -20l-1 -5q-1 -6 -3 -16q-8 -23 -10 -45t-9 -45q0 -10 -4 -15t-4 -14q-2 -2 -2 -14q0 4 -1 0t-3 -14q0 -2 -1 -5t-1 -8q-4 -25 -10 -50l-12 -50q-2 -8 -4.5 -16t-6.5 -19q-4 -16 -6 -28.5t-6 -26.5q0 -8 -2 -10q-10 -35 -18.5 -68t-18.5 -67 q0 -31 -31 -52q-6 -8 -3 -14t5 -14q8 -23 13 -43q4 -4 4 -11q0 -6 4 -10q0 -8 4 -13t0 -13q4 -4 5 -10.5t5 -12.5q10 -37 19.5 -75t19.5 -72q2 -10 3 -15.5t1 -7.5q2 -2 2 -6q0 -2 4 -6v-2q2 -8 3 -16.5t4 -18.5q0 -10 4 -17.5t4 -17.5q4 -16 6 -29.5t6 -27.5q2 -4 1 -7 t1 -8q2 -6 4 -13t2 -17q2 -10 3 -15.5t1 -3.5q0 -16 2 -18q-2 -4 1 -5t3 -3q0 -16 3.5 -30.5t3.5 -31.5q4 -10 6 -24.5t4 -24.5q0 -10 2 -10q0 -10 3 -22.5t3 -22.5q2 -4 1 -7t1 -8q0 -16 2 -18q2 0 2 -8q0 -6 3 -12.5t1 -10.5q0 -2 1 -5t-1 -5q4 -2 3 -6t1 -8q0 -4 1 -9.5 t-1 -9.5q4 -18 5 -36.5t6 -39.5h-2q4 -25 5 -47t5 -47q0 -6 1 -11t1 -11v-8q2 -7 2 -14q0 -19 -12 -36q-2 -2 -5.5 -4t-3.5 -6q-8 -8 -16 -15t-18 -9q-10 -10 -25.5 -12.5t-30.5 -6.5q-2 2 -14 2q-8 4 -15.5 8.5t-11.5 10.5q-16 12 -18 30q-2 2 0 3t0 4q2 16 0 32.5t-2 32.5 q-2 33 -5 66.5t-5 68.5q-4 33 -6.5 68t-6.5 51q-6 49 -12 97t-10 96q-2 2 -2 8q0 -4 -1 -2t-3 12q-2 16 -4.5 33.5t-6.5 36.5q4 4 0 4t0 4l-2 8q-2 2 -2 22q-2 10 -3 17.5t-1 15.5q-4 10 -5 20.5t-5 18.5q-8 2 -18 -8q-8 -41 -15.5 -83t-17.5 -83q-2 -12 -4 -25.5t-6 -29.5 q0 -4 -1.5 -5t-1.5 -5q0 -2 -1 -8.5t-1 -20.5q0 -20 -2 -23q-4 -2 -2 -4t-2 -4q-2 -16 -3 -34.5t-5 -34.5q0 -16 -2 -20.5t-6 -20.5v-9q0 -18 -6 -43q0 -10 -1 -18t-1 -18q-4 -53 -9.5 -109.5t-5.5 -110.5q0 -35 -20 -53q-10 -12 -23 -12q-8 -2 -16 -3h-2l-14 5 q-2 -2 -4.5 0t-6.5 2q-14 8 -14 33z" />
<glyph unicode="Y" horiz-adv-x="487" d="M31 1202q2 6 3 10.5t7 8.5l10 4q12 -4 20.5 -12.5t18.5 -14.5q49 -37 91 -85t77 -101q8 -14 16.5 -27.5t18.5 -28.5l10 -4q12 0 18.5 10.5t8.5 21.5t6 24q4 10 8 21l8 22q8 16 11.5 32.5t9.5 30.5q4 12 8 21.5t8 19.5q12 35 22.5 67.5t22.5 65.5q4 20 19.5 36.5 t38.5 18.5l20 -2q23 -12 23 -30t-7.5 -33.5t-15.5 -32.5q-2 -4 -1 -5t-1 -3q-8 -23 -18.5 -42t-18.5 -42q-8 -16 -15 -34.5t-18 -35.5q-16 -47 -34.5 -91t-34.5 -91q-4 -10 -7.5 -20.5t-5.5 -20.5q-4 -16 1.5 -29.5t9.5 -25.5q2 -8 8 -21q4 -12 10 -23t12 -24q8 -23 -3 -45 t-31 -37q-14 -10 -27.5 -16t-30.5 -12q-20 -2 -24 -31l-13 -45q-4 -25 -9 -50.5t-13 -47.5q-2 -23 -7 -46.5t-10 -46.5q-2 -16 -5 -30.5t-5 -30.5q-6 -41 -11 -84t-9 -86v-18t-2 -19v-35q0 -16 -4 -34q-2 -29 -1 -60t1 -59q4 -39 6 -77t6 -75q4 -35 11 -72.5t18 -72.5 q2 -25 -15.5 -46.5t-40.5 -33.5q-6 -2 -13 -5t-15 -3q-11 -5 -23 -5q-7 0 -15 2q-20 5 -34 15q-12 16 -14 35v26q2 10 1 20.5t1 20.5v17q0 6 2 16v15q0 8 1 18t-1 18q4 2 1 5.5t1 5.5q4 4 2 7t-2 7q4 8 3 15t3 16q-2 6 -1 13t1 13q2 10 2 25q0 12 4 24q0 8 2 11q0 18 1 34.5 t3 32.5q6 25 6 54q2 6 2 12q0 4 2 10q-2 4 1 7t-1 7q4 8 4 15q0 8 2 16v2q2 14 3.5 26.5t7.5 26.5q-2 4 -1 9.5t1 9.5q0 8 3 14t3 15q2 16 5 32.5t7 34.5l2 16q4 14 6 27.5t4 30.5q4 0 2 1t-2 3q4 4 5 10q2 4 2 8q0 6 2 11q4 25 10 49t12 49q2 8 2 14t4 10q-2 6 1 11.5 t3 11.5q4 18 8.5 37.5t10.5 38.5q2 4 3 12t3 16q0 4 2 9.5t4 13.5q12 37 12 84q0 16 -6 33.5t-12 34.5q-14 43 -27.5 86t-29.5 84q-23 57 -45.5 111t-49.5 108q-8 14 -14 27.5t-14 27.5q0 8 -2 10z" />
<glyph unicode="Z" horiz-adv-x="638" d="M38 45q0 15 3 31q2 109 29 223q8 29 12 54.5t14 52.5q12 39 24.5 75.5t29.5 77.5q20 55 49 111q6 14 12 29.5t16 27.5v4q14 27 27.5 52.5t30.5 52.5q10 16 18 31.5t19 29.5q0 4 2 6t4 6q10 16 19 30.5t20 31.5q6 10 13 20t13 23v12q0 8 -4 14q-8 4 -17.5 3t-19.5 1 q-31 0 -61.5 -1t-59.5 -3h-18t-16 2q-10 0 -17.5 7.5t-15.5 13.5q-4 4 -8 12q-6 10 -4 22.5t6 22.5q14 29 41.5 42.5t58.5 15.5q14 0 26.5 -1t24.5 -1q4 -4 6 -2t7 0q23 -2 43 -3h45q2 -4 3 -0.5t5 0.5q20 0 40.5 1.5t43.5 1.5l2 2h45q23 0 37 -21q5 -10 5 -22q0 -16 -5 -29 q-10 -16 -24.5 -26.5t-31.5 -22.5q-4 -8 -10 -11.5t-12 -11.5q-23 -18 -43.5 -40.5t-38.5 -45.5q-47 -57 -80 -121.5t-57 -132.5q-33 -92 -51.5 -187t-32.5 -194q-14 -116 -14 -232q0 -39 2 -77q2 -20 3 -39.5t7 -38.5q14 -25 47 -24h33q16 0 36 2q29 2 59 5t60 7 q14 4 26.5 7t29.5 7q10 2 21 7.5t24 3.5q31 4 41 -23q6 -10 4 -21.5t-11 -19.5q-8 -10 -19 -18.5t-26 -10.5q-18 -2 -34.5 1t-32.5 3q-2 4 -3 2l-1 -2q-10 4 -19.5 3.5t-19.5 1.5q-42 5 -83 5q-85 0 -167 -22q-14 -1 -26.5 -1t-24.5 1q-6 4 -14.5 6t-16.5 6 q-10 4 -19.5 16.5t-13.5 22.5l-8 21q0 18 -1 37.5t-3 36.5q0 23 -2 46q-1 8 -1 15z" />
<glyph unicode="a" horiz-adv-x="673" d="M57 23q0 -6 1 -10.5t3 -8.5q16 -4 25 4q8 20 15.5 40t13.5 42q33 74 72.5 144.5t93.5 134.5q6 6 6 8q6 4 10 9t10 9q4 4 7 6t5 7q10 8 19.5 19t26.5 13q4 -2 10 -3t8 -9l20 -45q2 -2 3 -8q0 -2 2 -4q2 -10 5 -17.5l7 -17.5q10 -25 16 -50.5t15 -54.5q-4 -6 -8.5 -12 t-12.5 -8q-39 -16 -76 -33.5t-75 -34.5q-35 -18 -68 -37.5t-64 -42.5q-2 0 -5 -2t-7 -4q-6 -8 -15 -12t-9 -16q0 -8 4 -9q14 -8 23 1.5t20 13.5l8 4t10 6q23 10 45.5 20.5t46.5 20.5q10 2 20.5 7t20.5 5q14 8 27.5 11.5t30.5 9.5q20 4 38.5 9t38.5 7l13 -2q6 0 6 -6 q0 -2 4 -6q4 -20 6 -40t4 -42q2 -10 3 -18.5t1 -18.5q0 -16 6 -35q2 -10 8.5 -15t12.5 -9q4 -4 11 -5t13 -6q16 0 31 4.5t27 8.5l2 4q27 14 39 41v4q4 8 4 16q0 4 -1 8q-3 12 1 23q0 4 -4 8t0 10q0 2 -2 3t0 4q-2 4 -2 12q-2 10 -2 26t-2 27q-8 25 -13.5 51.5t-11.5 50.5 q-6 2 -6 13q-4 12 -4 14q-4 10 -6 10q-10 27 -20.5 50.5t-22.5 46.5q-4 4 -6.5 9t-8.5 9q4 4 -2 4l-4 4q-16 29 -36.5 56.5t-47.5 52.5q-18 23 -38.5 41t-43.5 35q-8 4 -15 10t-18 10q-16 12 -26 16q-8 4 -25 4q-6 -6 -8 -12q2 -8 14 -20q6 -6 12.5 -13.5t6.5 -17.5 q-4 -23 -18.5 -39t-24.5 -39q-6 -14 -13.5 -28.5t-17.5 -28.5q0 -4 -3 -6t-3 -6q-10 -23 -21.5 -45.5t-21.5 -45.5q-4 -10 -8 -18t-6 -18q-8 -14 -17 -33q-4 -12 -9 -23.5t-9 -25.5q-2 -8 -5 -13.5t-5 -11.5q-8 -16 -13.5 -32.5t-11.5 -32.5l-25 -74q-2 -4 -1 -7t-3 -5z" />
<glyph unicode="b" horiz-adv-x="555" d="M25 555q4 12 16 17.5t22 11.5q27 10 55.5 17t57.5 7q16 -2 28 0q4 1 9 1q9 0 20 -3q41 -6 78 -24q35 -18 58 -47q8 -8 12 -17.5t8 -17.5q8 -31 6 -58v-4q-2 -2 -2 -12q-8 -23 -18 -39q-12 -18 -31 -37q0 -4 -2 -7t2 -7q4 -10 15.5 -9t19.5 -3q33 -8 59 -29l19 -16 q14 -16 24.5 -32t14.5 -34q2 -10 3 -16.5t3 -12.5q2 -15 2 -28q0 -20 -4 -35q-2 -20 -11 -47q-6 -20 -17 -40t-21 -38q-61 -90 -156 -137q-4 -2 -6 -4t-6 -5q-4 -4 -12.5 -5t-14.5 -5q-12 -4 -25.5 -7t-27.5 -7q-12 -4 -25 -4q-6 -4 -22 -4q-10 2 -13 12q0 4 1 5t1 3 q10 6 21.5 10t21.5 11q96 49 146 145q12 30 22 60q7 23 7 47q0 8 -1 16q-2 25 -6 49.5t-20 44.5q-10 16 -29 27q-4 4 -7 5t-7 5q-10 4 -19.5 8t-19.5 8q-6 0 -12 1t-17 1q-16 0 -26 -2q-4 0 -9.5 -1t-9.5 3.5t-4 18.5l2 4q16 10 30.5 23.5t29.5 29.5l2 2q4 8 8 13.5t6 13.5 q4 4 5 10t5 10q4 14 7 31t-3 33q0 6 -3 12t-5 15q-4 6 -7 9t-7 9q-4 4 -4 6q-4 2 -7.5 5t-9.5 5q-6 8 -15 12.5l-17 8.5q-2 0 -11 4l-14 -2l-12 -10l-6 -33q-10 -51 -15.5 -103.5t-9.5 -105.5q0 -4 -1 -8t-1 -8q-2 -20 -2 -39v-35q-2 -25 -2 -49v-47q2 -4 1 -8.5t1 -8.5 q-2 -4 -1 -9t1 -9v-53q-2 -14 -19 -19q-14 0 -16 4q-10 12 -6 23q4 43 5 87t3 91q0 29 -1 58.5t-3 58.5q-2 2 -1 4t-1 6q0 16 -2 31.5t-4 31.5q-2 4 -2 15q-2 14 -4 26.5t-7 26.5q-4 16 -7 31.5t-9 31.5q-4 4 -7 9.5t-9 5.5q-6 2 -6 10z" />
<glyph unicode="c" horiz-adv-x="540" d="M33 311q0 13 2 27q8 55 30.5 106.5t67.5 87.5q6 6 13.5 12.5t9.5 16.5q-4 6 -9.5 10t-1.5 13q2 4 4.5 8t8.5 2q57 10 109 15t106 9h33q16 0 32 -4q12 4 24.5 -2t22.5 -14q8 -6 9.5 -16.5t1.5 -20.5q-6 -35 -39 -41q-23 -4 -46.5 0t-43.5 12q-12 4 -23.5 8.5t-24.5 8.5 q-14 4 -28.5 7t-28.5 5q-2 0 -12 -4q-4 -4 -6 -4q-47 -27 -54 -68q-4 -6 -5 -13t-5 -13q0 -6 -2 -8q-10 -33 -12 -68q-1 -12 0 -23q0 -23 2 -47q12 -55 31 -116q10 -18 24.5 -34t26.5 -32q6 -8 11 -17.5t15 -15.5q23 -16 42.5 -30.5t48.5 -20.5l30 -6q14 0 27.5 1t26.5 9 l8 4l8 4q4 0 9 1t9 -5q8 -8 0 -20q-35 -16 -75 -25q-29 -10 -62 -10q-31 0 -61 4q-18 6 -37 11t-41 16q-16 4 -19 4q-47 31 -87 76t-52 102q-4 10 -5 17.5t-5 15.5q-4 25 -7 46q-1 9 -1 19z" />
<glyph unicode="d" horiz-adv-x="606" d="M35 532q0 20 6 33q0 4 6 10q10 16 30.5 18.5t37.5 8.5q16 4 29.5 5t27.5 5h55q27 0 54 -4q31 -4 60 -11t58 -19q57 -29 104.5 -81.5t63.5 -117.5q2 -12 5 -23.5t3 -23.5q2 -17 2 -38q0 -71 -35 -133q-44 -79 -124 -122q-23 -12 -46.5 -20.5t-47.5 -12.5q-24 -3 -47 -3 q-51 0 -101 15q-8 2 -15 6.5t-9 14.5q4 14 10 16q6 0 13 1t11 -3q29 -16 65 -18h8q31 0 56 14q35 16 58.5 48t38.5 67q19 49 19 106q1 13 -1 27q-6 72 -35 131q-8 16 -16 30.5t-21 30.5q-29 35 -64.5 55.5t-80.5 20.5q-33 -4 -57 -14q-16 -16 -17 -37q0 -20 -4 -41 q-2 -23 -3 -44t-3 -44q-6 -79 -7 -157v-12q0 -72 11 -142q2 -2 1 -3t1 -3q4 -12 3 -25.5t-11 -24.5q-20 -23 -45 -23q-6 0 -12 1q-8 4 -16.5 8t-12.5 14q-2 6 0 12.5t0 14.5q4 25 7 48.5t3 49.5q2 4 2 21q4 25 5 53.5t1 54.5q-4 8 -1 14.5t1 14.5v4q0 8 -1 14.5t1 14.5v4 q-4 18 -4 39q0 20 -2 41q-4 31 -9 58.5t-9 55.5z" />
<glyph unicode="e" horiz-adv-x="532" d="M47 333.5q0 4.5 2 9.5q4 9 10 15q8 4 17.5 9.5t19.5 9.5q29 12 70 18h6q29 4 55.5 7.5t55.5 0.5h32q10 -4 19.5 -2t19.5 0l2 -2q16 0 34 -2t34 -4q18 -2 41 -10q6 -4 13 -9t11 -14q4 -16 5 -22q-2 -6 -2 -12q0 -4 -5 -9q-10 -23 -29.5 -34t-41.5 -19h-17q-8 0 -16 -4 q-12 0 -24.5 -1t-22.5 -1q-6 2 -12.5 0t-12.5 0q-2 -2 -5 -1t-5 1h-20l-45 2l-50 6q-10 2 -18 2t-18 4q-4 2 -9 2q-4 0 -8 2q-6 0 -12 3.5t-12 3.5q-4 4 -7.5 3t-7.5 3q-14 4 -27.5 12t-17.5 23q-2 5 -2 9.5zM50 88q0 10 5 16q6 10 17 15q4 4 11 7t13 3q4 4 12.5 5t14.5 5 q41 10 85 11q19 1 38 1q25 0 51 -1q8 -2 16 -3h19q12 -2 23.5 -3t21.5 -3q4 -2 6 -2q4 0 8 -2q10 2 19.5 -1t19.5 -5q12 -2 22.5 -6t20.5 -8q6 -6 12.5 -13.5t6.5 -17.5q6 -16 -5 -31q-10 -23 -32.5 -36t-48.5 -17q-14 0 -27.5 -1t-30.5 -1h-24v2l-19 -2q-14 2 -27.5 4 t-27.5 2q-14 2 -27.5 4t-27.5 4q-4 2 -11 2q-6 0 -12 2q-12 2 -21.5 5.5t-23.5 7.5q-4 2 -8 2t-8 4q-6 -2 -10.5 2t-12.5 4q-10 10 -23.5 16.5t-13.5 22.5q-1 3 -1 6zM55 530q4 4 1 6q-1 1 -1 3q0 1 2 2q0 10 6.5 18t14.5 14q4 0 6 2.5t6 4.5q12 6 24.5 9t24.5 7h8v2 q10 2 19.5 4t19.5 4q-2 -2 0 -1l2 1q23 2 42.5 5t41.5 3h58h16h-2h4q14 -2 28.5 -3t29.5 -3l18 -2h-2q6 0 11 -3t9 -1l17 -4q6 -4 13 -6t11 -6q16 -14 16 -35q0 -5 -1 -10q-2 -18 -21 -37q-10 -8 -18 -13.5t-19 -9.5q-4 -4 -12 -3t-14 -3q-8 -4 -15.5 -3t-13.5 -1 q-16 -2 -30.5 -1t-28.5 -3h-35q-16 0 -33 2q-18 0 -37.5 2t-36.5 4q-20 4 -32 8q-47 4 -82 27q-8 8 -15 20zM336 614h2h-2z" />
<glyph unicode="f" horiz-adv-x="487" d="M47 692q0 23 23 35q18 10 36.5 15.5t40.5 9.5q27 2 52.5 4t52.5 2q41 0 77.5 -3.5t73.5 -13.5q10 0 27 -12q12 -12 12 -22q2 -4 1 -8.5t-1 -8.5q-8 -27 -34 -41q-12 -6 -23.5 -10t-24.5 -4q-10 -4 -20 -4h-18q-26 -2 -52 -2q-32 0 -62 3q-56 5 -110 21q-14 8 -30.5 15.5 t-20.5 23.5zM53 532q4 4 3 8.5t3 6.5v4q14 20 36 25.5t42 9.5q57 10 113 10q16 2 32.5 1t34.5 -5h17q8 -2 17 -3t20 -3q4 0 8 -1t10 -1q4 -2 9 -1t10 -3q10 0 15 -4.5t13 -6.5q6 -6 12 -16q3 -6 3 -12q0 -4 -2 -9q-2 -4 -3 -10q0 -4 -4 -8q0 -4 -2 -6t-2 -4q-8 -8 -15 -13.5 t-17 -9.5q-4 -4 -5 -4q-8 -2 -15 -4t-11 -2q-12 -4 -25 -4h-24q-4 0 -7.5 -1t-9.5 1q-10 0 -21.5 -1t-23.5 1q-10 0 -22.5 1t-24.5 3q-2 4 -4 2t-6 -2q-20 4 -41 7t-39 9q-4 0 -8 2.5t-8 4.5q-16 4 -32 13t-26 25zM171 -239q0 14 3 28q4 21 6 41q16 147 25 287v4q0 23 2 45 t2 45l4 123l2 28q-2 2 0 5v67q6 12 21 12q6 0 12 -6q0 -4 2 -5t0 -5v-6q-1 -30 -1 -60.5t1 -61.5q2 -64 4 -124q4 -78 11 -152.5t18 -152.5q2 -4 2 -8q0 -6 2 -12q2 -16 3 -33t5 -33q0 -8 3 -17q2 -5 2 -10q0 -3 -1 -6q-8 -25 -35 -45q-22 -11 -42 -11q-16 0 -32 7 q-8 4 -11 13.5t-7 19.5v8v2q-1 7 -1 13zM204 1271q0 3 1 5q-1 3 -1 5.5t1 4.5l4 8q15 30 49 30q6 0 12 -1q15 -4 17 -14q4 -2 4 -13q3 -1 3 -3l-1 -1q-2 -2 0 -4q0 -23 -3 -47t-5 -47q-4 -33 -7.5 -65.5t-5.5 -65.5v-16q-4 -20 -3 -39t-1 -39q-4 -33 -3 -62.5t1 -64.5v-6 t1 -11.5t1 -11.5q-2 -2 -1 -3t-1 -3q4 -12 -2 -21q-10 -7 -19 -7q-4 0 -7 1q-4 4 -5.5 7.5t-3.5 7.5q0 10 2 16q-2 2 -1 5t1 5v43q0 10 1 20.5t1 20.5v56q0 29 -2 55q-2 47 -3 91t-11 87q0 10 -2 21.5t-2 21.5q-4 2 -3 5t-3 7q2 6 -1 13q-2 5 -2 9z" />
<glyph unicode="g" horiz-adv-x="673" d="M42 291q0 21 3 43q6 43 23 82q29 59 80 107t116 67q10 2 20.5 5t20.5 5l4 2q23 4 47 4q25 0 47 2q10 -2 23 -2t23 -2q35 -6 69.5 -14t65.5 -25q8 -8 14 -16t4 -21q-2 -6 -5 -11t-7 -9q-18 -14 -41 -4q-14 8 -24.5 18t-24.5 21q-23 16 -48.5 24t-54.5 13q-8 1 -16 1 q-59 0 -100 -42q-41 -43 -58.5 -99.5t-17.5 -115.5q4 -76 32.5 -144.5t90.5 -116.5q12 -10 26 -16q33 -18 76 -19h4q40 0 70 21q20 6 24 27q1 34 1 66v31q-1 46 -5 93q-4 25 -6 51.5t-8 51.5q-2 16 7 30.5t24 24.5q16 12 39.5 14t40.5 -10q14 -12 14 -35q-8 -41 -16.5 -83 t-14.5 -85q-8 -59 -12 -119q-3 -39 -3 -79q0 -19 1 -39q0 -25 2 -48.5t4 -45.5q8 -29 -4 -50q-25 -41 -76 -51q-25 0 -46 8.5t-44 12.5q-72 20 -152 20q-22 0 -45 -2q-4 -2 -16 -2q-4 2 -6 12q-4 4 0 7.5t6 7.5q43 16 90 22t96 6q12 0 24.5 -1t25.5 -3q33 -6 55 13 q16 12 16 24q4 18 4 37q0 18 2 39q-2 4 -3 9t-5 9q-14 6 -25.5 -2t-23.5 -10q-35 -12 -76 -18q-17 -3 -34 -3l-48 5q-57 6 -108 35.5t-88 74.5q-29 31 -46.5 71t-23.5 83q-3 22 -3 43z" />
<glyph unicode="h" horiz-adv-x="567" d="M32 533q0 17 11 32q27 39 80 43q16 0 29.5 -6t19.5 -20q6 -12 5 -25.5t-5 -24.5q-25 -94 -33 -194q4 -4 4 -8q0 -2 7 -4h14q92 59 192 84q4 4 11.5 5t9.5 7q4 14 0 26.5t-6 24.5l-17 66q0 31 29 55q27 20 59 22q14 -2 29 -5t23 -17q6 -14 5 -29.5t-5 -29.5 q-4 -29 -8.5 -57.5t-8.5 -59.5q4 -14 15 -19q23 -8 38 -18q18 -18 18 -40q0 -6 -1 -11q-10 -20 -28.5 -32.5t-41.5 -14.5q-14 -6 -10 -27q0 -100 18 -193q2 -25 -18 -45q-23 -23 -57 -14q-16 8 -21 21l-2 14q7 91 7 181q0 36 -1 73q4 10 -3 17t-15 12q-32 10 -64 10 q-27 0 -55 -8q-60 -16 -109 -45q-6 -4 -7 -10.5t-6 -12.5q-1 -26 -0.5 -52t0.5 -52q2 -50 11 -101q0 -16 -9 -27.5t-23 -19.5q-10 -3 -22 -3h-7q-16 1 -27 11q-8 10 -7 22.5t1 24.5q11 101 13 201q0 7 1 14q0 93 -18 189q-4 25 -12 53q-3 9 -3 17z" />
<glyph unicode="i" horiz-adv-x="262" d="M36 752v7q0 12 3 23q14 28 43 42q23 11 49 11q7 0 14 -1q10 -4 20.5 -9.5t16.5 -19.5q8 -14 4 -30.5t-14 -26.5q-6 -8 -10 -12.5t-15 -6.5q-2 0 -3 -2t-7 -2q-6 -10 -18 -10q-4 -10 -7 -6t-6 0q-8 -6 -22 -7q-10 4 -21.5 11.5t-21.5 13.5q-4 9 -5 25zM43 551q2 2 2 10 q14 29 39 46.5t53 17.5q42 0 56 -25q4 -6 5 -18v-7q0 -7 -1 -14q-2 -2 -2 -8q-4 -4 -5.5 -9t-5.5 -14q-8 -35 -14 -65.5t-10 -65.5q-2 -31 -5 -60.5t-3 -59.5q0 -39 1 -76t7 -72v-27q0 -12 2 -28q2 -14 5 -30.5t-7 -33.5q-23 -12 -35 -12h-12q-4 4 -10.5 6t-10.5 6 q-2 8 -5 19.5t1 17.5h2q1 51 1 102v51q-1 77 -7 148v17v12q-6 45 -15.5 83t-23.5 79q0 8 -2 10z" />
<glyph unicode="j" horiz-adv-x="258" d="M-143 -246q2 4 14 13q20 14 39.5 28.5t38.5 30.5q4 0 4 6q8 4 14 10t10 11q10 12 18.5 23t18.5 22q10 14 19.5 26.5t15.5 28.5q39 68 57.5 143.5t20.5 157.5q-2 18 -2 37q0 18 -4 35q-8 84 -37 166q-2 4 -2 10q-2 4 -4 6t-2 6q-2 8 -4 16.5t0 18.5q0 16 10 31 q10 10 20.5 18t26.5 10q6 0 13.5 1t13.5 -1t11 -6t9 -8q10 -16 6 -36.5t0 -37.5q-4 -2 -1 -4t1 -4v-8q-4 -23 -2 -44.5t2 -43.5v-62v-86v-55q0 -25 -4 -51q-2 -16 -2 -31q0 -14 -4 -31q-2 -6 -2 -20q-4 -10 -6 -20.5t-4 -20.5l-8 -29q-4 -2 -5 -12q-4 -12 -9 -24.5 t-13 -22.5q0 -4 -3 -7t-3 -7q-4 -8 -7 -13.5t-8 -13.5q-25 -37 -55 -68q-2 -2 -3 -4t-5 -2q-16 -23 -43 -39q-4 -4 -10 -6t-11 -6q-4 -2 -8 -5t-8 -3q-4 -6 -18 -10q-4 -4 -6 -5q-2 0 -7 -2q-4 0 -6 -2t-6 -2q-29 -14 -53 -14q-8 8 -8 12zM55 729q0 14 4 25q12 27 41 41 q2 2 4 1t5 3q10 2 23 5q5 1 10 1q6 0 12 -2q25 -6 32 -25q5 -11 5 -21q0 -17 -15 -32q-18 -25 -53 -35q-6 0 -10 -2h-2q-6 2 -12.5 1t-10.5 3q-8 2 -13 6t-12 9q-8 10 -8 22z" />
<glyph unicode="k" horiz-adv-x="638" d="M46 30q0 3 1 6q2 12 2 23q6 68 13.5 134.5t11.5 134.5q2 4 0 5t0 5q4 43 4 86q0 45 4 86q0 33 1 62.5t1 62.5q0 20 2 38.5t-2 41.5q8 2 0 8q-2 18 2 37.5t-2 40.5q4 20 5 40.5t1 43.5q0 74 -4 151.5t-8 149.5q-2 47 -4 91t-6 89v8q-2 23 2 47.5t26 38.5q4 0 4 2t4 2 q12 8 29 12h4.5h4.5q12 0 24 -6l16 -14q6 -10 10.5 -21.5t2.5 -25.5q0 -14 -2.5 -26.5t-2.5 -28.5q-4 -4 -4 -13q0 -6 -2 -10l-4 -31l-14 -141v-18q0 -8 -2 -17q-4 -23 -5 -46t-3 -46q-4 -41 -5 -79t-5 -79l-3 -61l-4 -143v-138q-3 -27 -3 -56q0 -14 1 -29q2 -44 2 -85 q4 -8 13 -8q20 4 24 23q4 4 7 10t10 12q8 14 18 26.5t20 29.5q10 10 19.5 19t19.5 18q16 16 32.5 30.5t37.5 30.5q14 8 27.5 17.5t29.5 15.5q4 4 7.5 5t7.5 5q6 -2 8 1t6 3q25 18 53 8q6 -2 13.5 -8t11.5 -12q4 -25 -15 -43q-4 0 -5 -2t-5 -4q-18 -14 -38.5 -19.5 t-41.5 -13.5q-41 -16 -82 -43t-75 -62q-6 -4 -6 -10t-5 -10q4 -4 5.5 -10t9.5 -9q47 -20 80 -45q10 -4 21 -11t22 -15q0 -4 2 -3t4 -3q12 -10 26.5 -22.5t28.5 -26.5q12 -10 23.5 -23.5t21.5 -28.5q4 -6 9 -10t8 -12l12 -12q14 -18 25.5 -39t21.5 -39q0 -2 4 -11 q8 -20 15.5 -39.5t15.5 -37.5q2 -13 2 -25q0 -9 -1 -19q-3 -20 -20 -34q-21 -18 -47 -28q-12 -4 -23 -4q-15 0 -32 7q-10 6 -14.5 15.5t-10.5 19.5q-10 47 -22 91t-31 89q-16 45 -40.5 86t-53.5 78q-16 23 -34.5 42.5t-37.5 35.5q-4 4 -12 4h-10q-12 -4 -17.5 -13.5 t-13.5 -19.5q-16 -16 -22 -49q-4 -4 -3 -12q0 -8 -2 -15l4 -90l1 -57q0 -10 3 -21.5t-3 -21.5q-2 -16 -11.5 -27.5t-25.5 -15.5q-12 -4 -30 -1t-28 15q-5 8 -5 16z" />
<glyph unicode="l" horiz-adv-x="253" d="M38 276q0 2 1 4q2 6 0 9q4 4 0 10q0 63 2 124.5t6 125.5v6q2 12 1 24.5t3 24.5q-2 6 -1 10t1 9q2 43 6 85t4 85q0 29 1 59.5t1 60.5v56l-2 149q-2 31 -2 62t-4 61q0 18 -2 36.5t15 33.5q16 16 40 22q10 3 20 3q13 0 26 -5q12 -8 14 -14q8 -10 5 -22.5t-3 -22.5 q-4 -20 -6 -41t-6 -41q-6 -35 -11.5 -70t-9.5 -71q-4 -23 -6 -42.5t-4 -39.5l-8 -74l-2 -33q-4 -4 -2 -5t2 -5q-4 -35 -4 -72q0 -35 -2 -71q-2 -43 -2 -86q0 -32 1 -63q3 -73 11 -146q4 -43 11 -86t18 -86q2 -4 2 -9q0 -4 2 -8q8 -31 15 -59.5t17 -57.5q6 -20 16 -38 q5 -9 5 -20t-2 -21q-10 -29 -36 -45.5t-54 -20.5q-7 -1 -13 -1l-23 4q-18 7 -28 22q-6 10 -6 22q0 14 -2 25q0 23 -1 46t-1 46v35q-2 4 -1 8t1 8q-2 18 -2 35t2 33q-2 6 -2 12.5t2 13.5q-3 3 -3 6z" />
<glyph unicode="m" horiz-adv-x="825" d="M55 15q0 5 1 9q3 10 3 19q4 23 6.5 43t6.5 43q6 47 15 92t17 92q10 41 19.5 81t19.5 81l4 19q4 4 2 7t3 7q2 8 4 15l4 14q10 25 0 47q-4 4 -7 9t-1 11q0 2 8 10q8 0 10 -2q2 0 10 -4q20 -6 39 -15t37 -20q23 -16 46.5 -30.5t43.5 -34.5q10 -8 19.5 -17.5t19.5 -17.5 q16 -18 30.5 -36.5t28.5 -37.5q8 -4 17 -4q6 4 12 11.5t10 13.5q39 45 80 85t88 75q12 6 23.5 16t25.5 4q2 -4 2 -6t3 -6l-5 -6q-16 -14 -31.5 -27.5t-29.5 -30.5q-4 -10 4 -14q4 -2 8 -1t8 -1q10 -4 21.5 -9t13.5 -20q4 -4 5 -9t6 -9q4 -10 7 -19.5t7 -19.5q4 -4 2 -7t2 -7 q4 -16 10 -34t10 -34v-2q6 -29 10.5 -57.5t8.5 -59.5q2 -10 3 -18t1 -19q4 -18 3 -36.5t1 -36.5q0 -20 -4 -39t-18 -35q-39 -35 -91 -35h-6q-10 4 -18 7t-17 11l-10 17l-6 16q0 29 3 53.5t7 51.5q8 52 8 108q0 18 -1 34q-3 74 -21 136q-4 4 -12 4q-4 0 -7.5 -5t-7.5 -9 q-29 -47 -47 -109q-8 -25 -15 -49t-28 -45q-38 -30 -79 -30h-7q-27 0 -49 22q0 4 -2 4v2q-8 14 -10 28.5t-6 29.5q-10 43 -23.5 83.5t-36.5 77.5q-4 2 -6 5.5t-6 3.5q-6 0 -9 -3.5t-7 -7.5q-63 -96 -97.5 -203.5t-56.5 -220.5q-4 -4 -6 -8t-6 -6q-10 0 -15 4q-2 6 -2 11z " />
<glyph unicode="n" horiz-adv-x="630" d="M47 588.5q0 4.5 2 9.5q4 4 10 4q14 0 27 -6t25 -10q6 -2 12 -5l12 -6q4 -4 10 -4q16 -8 32 -17t32 -17q10 -6 19.5 -12.5t19.5 -16.5q6 -4 14 -8t12 -11q10 -4 17.5 -13t17.5 -15q10 -10 21.5 -20.5t23.5 -22.5q0 -2 11 -6q4 -6 9 -11.5t9 -13.5q2 0 6 -4 q10 -10 19.5 -22.5t19.5 -22.5q23 -33 44.5 -63.5t43.5 -61.5q12 -18 24.5 -36.5t22.5 -39.5q4 -2 5 -4t3 -4q0 -4 2 -5t2 -5q9 -15 13 -31l2 -10q0 -12 -6 -23q-10 -23 -28.5 -37t-41.5 -24q-13 -5 -32 -5q-10 0 -21 1q-14 6 -31 22q-4 8 -8 14.5t-8 16.5q-20 45 -43 90 t-45 90q-14 23 -27.5 49.5t-30.5 51.5q-16 29 -32.5 51t-34.5 45q-6 8 -17 4q-4 -4 -7 -6t-5 -6q-2 2 -2 -2q-4 -8 -5 -17.5t-5 -19.5q0 -6 -4 -23q0 -8 -3 -16t-6 -19q-8 -51 -14 -100t-6 -100l-2 -4l-2 -80l-2 -19l-6 -8q-16 -4 -25 6q-6 6 -6 21q4 45 5 91t3 91 q-2 10 -1 20.5t1 20.5q-2 16 -2 35v37l-2 30q2 4 1 5t-1 6q2 4 -1 8t1 8q-6 41 -9 81t-13 81q-4 8 -7.5 17t-9.5 18q-2 4 -2 8.5zM457 559q4 25 16 35q16 15 41 15q6 0 12 -1q8 -4 16.5 -8t10.5 -14q2 -8 2 -16q0 -10 -3 -20q-5 -18 -9 -36q-8 -33 -11.5 -66.5t-5.5 -68.5 q-4 -23 -1 -45.5t-7 -42.5q-6 -10 -16 -4q-4 2 -4 4t-4 4q2 2 0 3t0 5q0 16 -1 33.5t-1 34.5q-4 41 -11.5 77.5t-17.5 77.5q-2 8 -4 15.5t-2 17.5zM492 256q2 0 2 -2l-1 1t-1 3v-2z" />
<glyph unicode="o" horiz-adv-x="698" d="M39 297q0 23 1 42t9 38q0 12 4 22.5t8 20.5q20 55 65.5 99t98.5 67q6 4 10.5 1t8.5 -3q6 -8 2 -17q-12 -16 -23.5 -33.5t-19.5 -35.5q-14 -33 -21.5 -66t-7.5 -70q0 -2 -1 -3t-1 -5q0 -41 6 -80q8 -53 28.5 -100t59.5 -88q33 -37 70 -53q4 0 12 -4q20 -10 43 -6t41 14 q8 2 25 14q4 8 11 13.5t11 15.5q2 0 2 4q10 6 17 25q10 14 13 28.5t9 28.5q2 4 2 8q0 6 2 10q0 4 2 10.5t0 12.5q4 14 6.5 28.5t2.5 28.5q-2 6 0 12.5t0 14.5q0 10 -2.5 21.5t-4.5 21.5q-10 35 -19 70.5t-28 66.5q-10 14 -19 27.5t-20 25.5q-6 8 -14 14.5t-16 14.5 q-10 6 -21.5 12t-25.5 10q-8 4 -16.5 5.5t-16.5 5.5q-4 4 -4 8v8q7 11 18 11h2h6q16 -3 29 -1q49 -8 94 -26.5t82 -53.5q69 -59 93 -149q10 -37 10 -72v-7q0 -49 -17 -97q-4 -8 -6 -15.5t-6 -13.5q-18 -43 -51 -79t-74 -58q-14 -8 -27.5 -13t-27.5 -12q-20 -8 -35 -8 q2 -2 -4 -2q-23 -6 -48 -6h-12q-32 2 -61 6t-54.5 14.5t-50.5 24.5q-16 8 -27 19.5t-26 21.5q-4 4 -7 8t-7 8q-14 16 -24.5 30.5t-20.5 33.5q-4 10 -9.5 19.5t-9.5 19.5q-6 23 -11 45t-7 47z" />
<glyph unicode="p" horiz-adv-x="532" d="M29 557q2 2 2 8t4 6l43 13q16 4 24.5 15t8.5 22q0 8 6 14q13 18 35 18q7 0 16 -2q12 -8 14 -14q2 -2 2 -16q0 -8 11 -13h45q47 -4 90 -18q63 -23 108 -80q4 -4 7.5 -8t7.5 -8q0 -4 2 -5l4 -4q6 -14 14 -28.5t12 -30.5q13 -39 13 -83v-9q-2 -49 -19 -90q-8 -23 -19 -42.5 t-24 -39.5q-29 -37 -64.5 -61.5t-74.5 -47.5q0 -2 -6 -2q-6 -4 -13.5 -7t-11.5 -7q-12 -4 -24.5 -8t-22.5 -9l-43 -12q-12 0 -14 2q-8 8 -2 19q4 4 10 6t12 6q10 8 20.5 14t22.5 13q6 4 13.5 10t15.5 10q27 27 49.5 55.5t38.5 61.5q21 50 21 105q0 6 -1 12q-2 63 -30 114 q-12 16 -23.5 32.5t-27.5 31.5q-2 4 -7.5 7t-7.5 9q-16 10 -34.5 21.5t-38.5 15.5q-6 4 -13.5 1t-11.5 -7q-8 -10 -10 -22.5t-6 -22.5q-6 -23 -11.5 -42.5t-9.5 -41.5l-6 -43q-6 -35 -9 -71t-5 -71q-2 -2 -2 -26q0 -25 -3 -27q2 -12 1 -25.5t-1 -25.5l3 -78q4 -57 10 -133 t18 -151q14 -117 43 -234q0 -18 -8 -33q-8 -12 -17.5 -19t-19.5 -16q-4 0 -6 -3t-6 -3q-13 -5 -28 -5q-5 0 -9 1q-20 2 -35 17q-4 4 -4 6t-2 4q-2 10 -3 12t-1 -2l-2 6q0 16 -1 31.5t3 32.5l-2 8q2 2 2 16v19v37v71q0 35 1 72t3 72q0 4 2 7t-2 7l2 16q-2 8 0 15.5t0 13.5 l6 102q2 2 2 25t2 25v32v17q0 16 2 18q4 4 2 9.5t0 11.5q2 27 4.5 55.5t4.5 56.5q2 4 1 7.5t-1 7.5q4 23 6 45t4 45q2 16 4 30.5t4 30.5q4 23 5 42.5t5 39.5q0 4 1 9t-1 12l-2 10l-8 8t-10 2q-10 2 -21.5 0t-21.5 -4q-2 0 -6 4z" />
<glyph unicode="q" horiz-adv-x="702" d="M41 309q0 -23 3 -42t7 -42q6 -14 11.5 -27.5t13.5 -27.5q8 -27 30 -51l12.5 -12.5t12.5 -14.5q47 -49 125 -78q-4 0 0 -1t14 -3q12 -2 22.5 -4t22.5 -2h-4q8 -4 15.5 -3t11.5 -1q14 0 14 -14q1 -26 1 -53t-1 -53q-2 -54 -10 -107l-6 -33q-8 -41 -21.5 -79t-13.5 -81 q6 -20 18 -39q12 -10 24.5 -18t29.5 -10q5 -2 10 -2q7 0 13 3q10 5 20 15q0 2 6 8q4 4 4 10t4 11q2 23 8 42t15 38q8 14 13 29.5t15 27.5q29 47 68 87t82 68q4 6 10 8.5t10 10.5q4 14 -4 16q-4 4 -9 2t-9 -2h-6q-6 -6 -19 -8q-8 -2 -14 -5t-12 -5q-4 -4 -9 -4q-4 0 -10 -3 t-16 -7q-23 -12 -45.5 -24.5t-44.5 -29.5q-10 -4 -16.5 -12t-18.5 -4l-4 4t-4 6q-2 16 -5.5 31.5t-3.5 32.5q-8 53 -11 100t-3 100q-2 25 -1 50.5t1 50.5q2 2 1 5t-1 5q0 18 -8 20q-10 8 -31 0q-2 -2 -14 -20q4 -16 5 -35.5t5 -38.5q0 -16 -1 -32.5t-28 -12.5 q-10 6 -20 12.5t-21 12.5q-6 10 -15 16t-15 16q-4 4 -5 7.5t-6 5.5q-6 6 -4 6q-12 14 -14 22q-41 63 -49 142q-4 27 -3 51.5t3 48.5q2 2 1 5t1 3q2 16 6 27.5t6 28.5q12 37 36 72.5t65 49.5q16 10 35.5 7.5t37.5 -7.5q14 0 19 -6q6 -2 9 -4t7 -4q10 -2 27 -14l22 -23 q10 -8 19.5 -16t13.5 -19q14 -14 18.5 -23t8.5 -20q2 -4 4 -5t0 -5q8 -16 15 -32.5t11 -34.5q2 -2 2 -15q0 -6 5 -10q4 -23 7 -40t3 -30q2 -4 1 -7t-1 -7q2 -6 1 -12t-1 -12q0 -23 -5 -40.5t-10 -33.5q0 -6 -3 -11.5t-5 -11.5q-4 -18 -15 -33.5t-24 -31.5q-4 -6 -10 -10.5 t-8 -12.5l1 -4l3 -12q4 -2 9 -6t9 0q20 8 37 19t33 26q47 43 74.5 99t30.5 122q2 11 2 22q0 13 -2 25q-5 25 -11 47q-20 76 -78.5 134.5t-134.5 78.5q-6 2 -14 3t-14 5q-28 5 -55 5t-54 -5q-16 -2 -30.5 -6t-28.5 -8q-20 -10 -38 -18.5t-34 -22.5q-8 -4 -14 -10l-13 -13 q-41 -31 -67.5 -84t-30.5 -94q-2 -2 -2 -22t-2 -23z" />
<glyph unicode="r" horiz-adv-x="559" d="M31 569q6 -6 14 -10q4 0 6 -14q0 -2 2 -3t0 -3q6 -35 10.5 -67t8.5 -66q0 -23 4 -46.5t-4 -50.5h-2v-6q-4 -10 3 -17t7 -18q2 -56 2 -112t-2 -113q-2 -10 -1 -23.5t11 -19.5q4 -2 12 -2q14 0 15 12q2 8 0 15.5t0 15.5q-3 36 -3 75v19q1 49 3 96q2 4 1 7.5t3 7.5q6 2 14 3 t12 -3q41 -31 80 -68t70 -78q18 -20 33.5 -43.5t31.5 -46.5q6 -8 12.5 -19t14.5 -28q4 -8 7 -16t7 -17q10 -18 31 -34q14 -6 27 -6q9 0 17 3q22 7 38 23q18 14 27 31q6 10 6 21q0 4 -1 8q-3 16 -13 24q-8 8 -11 14q-4 4 -6 5t-4 6q-6 4 -11 11t-14 13v4l-18 19l-6 6 q-10 16 -23.5 29.5t-25.5 27.5q-10 10 -21.5 18.5t-21.5 18.5q-4 4 -10.5 7t-10.5 9q-35 18 -61 43q-2 4 -5 7.5t1 9.5q2 8 14 12q10 6 22.5 11t24.5 14q27 16 48.5 42.5t31.5 55.5q9 23 9 46q0 19 -6 39q-13 44 -46 75q-53 45 -123 60q-45 10 -91 10q-25 0 -50 -3 q-23 -4 -45.5 -9t-42.5 -15q-2 -2 -2 -17zM123 330q4 55 16.5 110.5t28.5 110.5q6 4 11 9q3 3 7 3q3 0 7 -2l18 -10q12 -8 39 -31q4 -12 8 -14q0 -4 4 -7t4 -7q4 -4 4 -7l4 -4q4 -10 8.5 -17t4.5 -15q0 -3 2 -9q1 -3 1 -5.5t-1 -4.5q2 -10 2 -21q0 -40 -25 -77 q-10 -16 -26.5 -28.5t-32.5 -20.5q-7 0 -15 -1h-3q-6 0 -9 3l-20 8t-19 12q-10 4 -12 11.5t-6 13.5z" />
<glyph unicode="s" horiz-adv-x="528" d="M-49 -29q4 14 10 17q10 2 15.5 -6.5t17.5 -14.5q4 -4 6 -4t4 -4q55 -47 121 -55q4 0 10 -1t10 -1q14 2 28.5 3t33.5 5q41 14 70.5 40.5t52.5 59.5q8 16 14 36t10 36q2 12 3 25.5t-1 23.5v16q0 10 -2 19q0 10 -2 20.5t-6 20.5q-6 12 -12 26.5t-19 26.5q-27 39 -47 66 q-4 4 -8 7t-12 5l-17.5 7t-11.5 7l-8 4t-8 0l-6 4q-12 6 -25.5 8.5t-26.5 6.5h-28q-12 0 -23.5 -1t-21.5 -3q-4 -4 -7.5 -1t-7.5 5q-2 10 2 22q33 19 74 27q30 6 61 6l21 -1q41 -3 80 -17.5t70 -38.5q29 -18 55.5 -48t42.5 -65q23 -41 29 -95q2 -15 2 -31q0 -38 -11 -75 q-16 -55 -57 -102t-88 -78h-4q0 -2 -4 -4q-47 -20 -99 -27q-6 -2 -11 -1t-13 -1q-8 0 -13.5 1t-15.5 -1q-10 2 -18 2t-19 5h-4q-31 4 -56.5 15t-51.5 23q-8 10 -16.5 16.5t-16.5 16.5q-2 4 -10.5 5t-8.5 5q-10 6 -15 17.5t-11 19.5zM47 521q0 5 2 11l2 5q14 12 30.5 20 t37.5 16q4 0 8 5q10 4 17.5 5t13.5 5q4 2 6 2t6 2q4 4 6 4t6 2q8 0 16.5 3t18.5 3q27 4 49 8q15 3 31 3q8 0 16 -1h2h11q6 0 10 -4q10 4 20.5 1t20.5 -7q6 -4 12 -7t10 -13l4 -19q0 -27 -12 -39q-8 -10 -14 -17t-17 -11q-4 0 -6 -2h-14q-6 0 -12 2q-6 4 -17 4q-10 0 -16 4 q0 2 -6 2q-16 4 -33.5 6t-36.5 6q-23 2 -46 2q-17 0 -33 -1q-38 -3 -77 -13q-4 -2 -14 4q-2 4 -2 9z" />
<glyph unicode="t" horiz-adv-x="260" d="M-425 930.5q0 2.5 3 5.5q6 10 14 8q8 6 18.5 4t20.5 0q14 6 29 6h14q10 0 16.5 2t16.5 2h17h34q2 0 2 3q0 2 4 -3q4 4 21 5q6 2 20 2h23h20q14 0 21 2v-2q8 2 14 1t13 1q12 2 19 1t15 1q6 -2 10.5 -1t8.5 1h33q4 0 24 4q2 -4 3 -2t5 2h60h10q10 0 27 10l6 12 q-2 6 -1 15.5t1 19.5q4 4 2 9t2 12q2 37 3 71v24q0 24 -1 48v8l2 33q-2 4 -1 7t-1 7v62v30v17q0 8 -2 16q2 8 3 14.5t5 12.5q7 6 19 9q5 1 10 1q6 0 10 -2q8 -6 18 -23q-4 -4 -1 -7t1 -9q-4 -18 -5 -35.5t-3 -40.5q-6 -12 -6 -22q0 -16 -2 -23q0 -6 -1 -14t-1 -14 q0 -23 -6 -43q4 -4 2 -7.5t-2 -7.5q0 -12 -1 -23.5t-1 -21.5q0 -6 -1 -13t-1 -13q-6 -49 -6 -101q2 -6 7 -10t9 -8q10 2 16 -1t15 1q2 -4 4 -1t4 1q4 -4 7 -1t5 1h17h28q4 0 7 -2t5 2q6 -4 12.5 -2t10.5 2h14h64q0 -4 1 -2t3 2q6 -4 10 -2t8 -2q25 0 50.5 -1t50.5 -3 q10 0 22.5 1t20.5 -1q6 -2 16 -2h16q8 0 16.5 -1t18.5 -4q20 0 40 -1t40 -3q12 0 19 -6q4 6 6 3t4 -3q12 0 24.5 -1t22.5 -1q6 -2 10 -1t10 -1q8 -2 19.5 -1t21.5 -1q6 -4 11 -14q-4 -4 -7 -4h-8q-6 -4 -12 -2t-12 2q-4 0 -5 -2t-6 -2q-8 0 -15 2t-15 -2h-21l-16 4 q-2 0 -2 -2t-2 -2q-20 4 -42 2t-42 2q-4 -4 -8 -2t-9 2q-8 0 -15 -2t-15 2q-4 -10 -15 0h-2v-4q-16 4 -35.5 2t-37.5 -2l-119 4l-6 -4h-203q-8 0 -12 -5.5t-9 -9.5q-2 -10 -3 -19t-1 -20v-35q-2 -12 -1 -23t-1 -24q0 -16 -1 -32.5t-1 -34.5q1 -23 1 -46v-23q-1 -34 -1 -70 q2 -14 1 -28.5t-1 -31.5l2 -49v-47v-8q2 -14 1 -28.5t1 -29.5q2 -10 3 -20t1 -23v-20q0 -14 3 -21v-20l4 -74t6 -69q0 -10 2 -11q4 -41 8 -84t12 -88q4 -29 8.5 -52.5t8.5 -51.5q6 -35 12 -72t14 -74q0 -2 1 -4t1 -6q4 -14 7.5 -26.5t7.5 -26.5q2 -2 1 -3l-1 -1 q2 -6 1 -10.5t1 -8.5q-2 -4 -1 -5t-1 -3q-6 -27 -30 -43t-50 -20q-2 0 -3 -1l-1 -1q-12 0 -23.5 2t-19.5 10q-10 4 -13.5 12t-7.5 17l-2 24q0 8 -1 15.5t1 15.5q-2 12 -4 23.5t-2 23.5q-2 10 0 23.5t-2 23.5q0 8 -1 15.5t1 15.5q-4 4 -2 5t0 3q2 4 1 6t-1 6t-2 8.5t2 8.5 q-4 4 -2 8t-2 8q4 2 2 4t-2 6v9q-2 25 -3 47t-1 49q-2 8 0 15t0 16q0 14 -1 28.5t1 30.5q0 2 -1 3t1 5q-2 4 -1 9t-1 10q-4 16 -1 27t1 24q0 8 -2 15t2 20q-4 2 -2 4t2 6q-3 26 -3 52.5t3 53.5q-4 31 -2 56.5t2 56.5q2 4 1 9t1 9q-2 8 -1 17.5t1 21.5q0 23 1 45.5t3 48.5 q2 10 3 19.5t1 17.5v23q0 14 2 20v23q0 20 2 24v7q0 10 2 18t2 18q2 14 1 25.5t3 26.5v4q2 35 5 66.5t5 68.5q0 10 3.5 22.5t3.5 24.5q0 16 -19 21q-2 2 -14 2h-148h-82h-165h-13h-6h-78q-4 0 -4 2q0 4 -4 4q-3 2 -3 4.5z" />
<glyph unicode="u" horiz-adv-x="579" d="M35 301q0 -18 2 -25q-2 -6 -1 -12t1 -12q2 -29 12 -64q2 0 2 -6q0 2 4 -10q-2 -4 1 -7t3 -7l19 -43q6 -10 13 -18.5t13 -18.5q8 -10 19.5 -20.5t21.5 -18.5q6 -4 10.5 -6t8.5 -4q6 -6 16 -6q12 -6 25.5 -11.5t30.5 -5.5q4 0 8 -2t8 0q35 0 57 8q4 0 7 2t8 0 q16 6 29.5 14.5t27.5 16.5q12 6 22.5 14.5t20.5 16.5q6 10 4 18q-8 12 -17.5 4t-19.5 -10q-16 -4 -32.5 -9t-34.5 -1q-37 2 -68 22.5t-49 51.5q-18 33 -25.5 68.5t-7.5 74.5q2 18 5 34.5t7 35.5q12 61 45 108q10 16 25.5 29.5t17.5 34.5q8 20 -4 43q-15 27 -45 27 q-3 -1 -5 -1q-34 -2 -58 -12q-23 -10 -38 -29.5t-28 -40.5q-10 -14 -16 -27.5t-12 -29.5q-2 -8 -5.5 -15.5t-3.5 -15.5q-10 -23 -14 -48.5t-8 -49.5v-19q0 -12 -2 -18zM441 565q0 -4 1 -8q2 -35 8.5 -70.5t10.5 -70.5q0 -18 2 -37t2 -37q3 -53 3 -108q0 -27 -1 -54 q-2 -82 -6 -162q0 -6 3 -12t9 -6q6 -1 11 -1q10 0 16 5q4 12 4 16q-1 60 -1 119t1 117q4 14 2 20q4 61 9 122t15 122q9 33 10 59q0 5 -1 9q-10 14 -17 16q-12 6 -25 7q-18 0 -36 -15q-7 -6 -15 -16q-5 -7 -5 -15z" />
<glyph unicode="v" horiz-adv-x="503" d="M31 578q0 14 8 18q6 4 11 0t11 -8q20 -16 40 -31.5t38 -34.5q8 -10 16.5 -18t16.5 -19q14 -14 26.5 -30.5t22.5 -32.5q4 -2 5 -6t5 -4q10 -16 20.5 -33t20.5 -33q4 -10 9.5 -16t7.5 -15q4 -4 7 -9t9 -1q8 2 9 9.5t3 11.5l19 67q4 10 7 20.5t7 20.5q4 4 4 12t4 13 q8 25 17.5 47t17.5 45q8 14 13.5 29.5t21.5 25.5q12 8 29 8q16 0 24 -14q3 -7 3 -13q0 -5 -2 -11q-5 -12 -13 -23q-37 -57 -66 -127q-18 -47 -32.5 -94t-24.5 -101q0 -18 2 -34.5t12 -32.5v-4q4 -6 9 -15q4 -2 2 -5t2 -3q-2 -4 0 -4q4 0 0 -4q4 -2 3 -5t3 -7q0 -4 2 -4 q2 -10 3 -20.5t-3 -20.5q-6 -16 -19 -33q-2 -4 -5 -5t-3 -5q-10 -4 -12 -8.5t-12 -6.5q-4 -4 -11 -4q-4 0 -8 -4q-18 -6 -35 -6q-13 0 -26 4q-2 2 -4 2l-2 2q-6 0 -8.5 5t-8.5 5q-12 20 -16 45q-2 2 -2 13q-6 16 -10 35.5t-9 35.5q-23 82 -47 161t-57 155q0 4 -3 6t-1 6 q-10 23 -19.5 42.5t-19.5 37.5q-8 16 -12 23z" />
<glyph unicode="w" horiz-adv-x="927" d="M51 584q14 -23 27.5 -42.5t23.5 -41.5q4 -8 7.5 -15.5t7.5 -15.5q23 -49 39 -97t28 -102q12 -47 20.5 -97t18.5 -99q4 -16 7 -32.5t14 -33.5q10 -12 28 -16q12 -3 22 -3q6 0 11 1l2 2q39 6 62 26q8 8 15 15.5t11 17.5q8 20 2 49q-9 45 -9 89q0 43 8 86q18 87 53 163 q4 8 7 15.5t13 11.5q10 0 14 -4q35 -86 55.5 -175t36.5 -182q4 -14 5.5 -29.5t5.5 -27.5q4 -20 21.5 -30.5t35.5 -14.5q6 0 12.5 -1t10.5 3q29 4 55 27q18 14 27 32q10 16 6 37t0 39v25q0 38 4 74q6 50 16 96q16 51 35.5 100t50.5 92q0 2 1 3t1 3q6 10 14 22q5 7 5 15 q0 5 -2 11q-6 16 -27 24h-10q-34 0 -54 -24q-10 -16 -16 -35t-12 -35l-3 -6t-1 -6q-4 -10 -5 -18.5t-3 -18.5q-4 -4 -3.5 -7t-1.5 -8q-2 -6 -4 -13t-4 -15q-4 -27 -8 -50.5t-8 -52.5l-2 -4q-4 -2 -6 -4t-6 0q-4 -4 -6.5 0t-6.5 6q-10 14 -12 31q-10 16 -18.5 29.5 t-18.5 29.5q-4 4 -9 12.5t-9 12.5q-10 14 -20.5 27.5t-22.5 27.5q-12 8 -19.5 20.5t-19.5 18.5q-6 8 -13.5 14.5t-15.5 12.5q-16 14 -33.5 27.5t-40.5 23.5q-4 -2 -7 -1t-7 -3q-4 -14 -2 -18q12 -16 10 -35q-2 -8 -5 -14.5t-5 -14.5q-6 -8 -10 -16.5t-8 -18.5 q-4 -6 -6.5 -13t-6.5 -13q-6 -18 -12 -35t-8 -35q-4 -4 -4 -10t-2 -8q-6 -14 -7.5 -28.5t-13.5 -23.5h-6q-6 2 -12 9q-6 14 -13.5 28.5t-17.5 26.5q-16 33 -38.5 56.5t-45.5 58.5q-8 2 -10 8t-8 10l-27 27q-4 4 -6 3t-4 3q-16 14 -32.5 27.5t-35.5 23.5q-8 4 -15 7t-18 -1 q-6 -4 -6 -16z" />
<glyph unicode="x" horiz-adv-x="479" d="M43 600q4 8 10 8q4 0 8.5 1t8.5 -3q14 -4 25 -11t24 -13l18 -11q4 -2 8.5 -6t8.5 -6q4 -4 10 -7t10 -7q8 -4 15.5 -11.5t15.5 -11.5q10 -8 18 -16t19 -17q6 -2 18 3q14 20 26.5 38.5t28.5 38.5q12 14 26.5 26.5t31.5 16.5q29 0 41 -12q10 -12 6 -35q-6 -16 -21.5 -24.5 t-27.5 -22.5q-35 -29 -68 -72q-4 -12 -2 -18q6 -18 19.5 -32.5t21.5 -30.5q8 -10 13 -22.5t14 -23.5v-2q6 -8 14 -24l4 -8t4 -9q4 -10 8 -19t9 -19q4 -18 11 -37t9 -37q4 -14 7 -28.5t7 -29.5v-8q0 -13 -4 -28q-4 -8 -7 -16.5t-11 -16.5q-10 -8 -20.5 -15.5t-24.5 -11.5 q-16 -6 -36 -8t-36 6q-27 14 -31 41t-10 49q-4 16 -8 30.5t-6 31.5q-6 25 -12.5 48t-14.5 46q-4 12 -8 14q-12 0 -12 -2q-20 -47 -33 -106q-2 -4 -1 -7t-3 -8q-4 -27 -8 -54.5t-9 -53.5q-16 -37 -55 -41q-12 0 -20.5 4t-16.5 10q-10 23 -2 43q10 27 20.5 52.5t20.5 52.5 q10 29 22.5 58.5t24.5 57.5q4 4 5 7.5t4 7.5q6 12 12 25.5t10 27.5q2 10 4 20.5t-2 20.5q-4 16 -12 31.5t-19 31.5q-16 35 -39 68q0 4 -2 5t-4 5q-10 14 -21 27.5t-22 28.5q-12 8 -12 20z" />
<glyph unicode="y" horiz-adv-x="559" d="M35 584q0 6 2 10l4 4q10 4 15 -3t16 -7q12 -14 28 -23q4 0 4 -4q0 -2 5 -2q23 -14 41 -30.5t38 -36.5l7 -7q12 -12 22 -24t21 -23q4 -2 4 -4t4 -4q14 -20 28.5 -39.5t26.5 -42.5q2 -2 12 -2l13 8q2 4 3 10.5t5 10.5q2 4 4 9t4 11q14 29 25.5 57.5t27.5 55.5q2 10 11 27 q6 23 18 43t37 30q8 2 16 2q7 0 13 -1q16 -3 24 -19q3 -7 3 -14q0 -12 -9 -22q-14 -15 -21 -32q-16 -25 -32.5 -52.5t-32.5 -51.5q-4 -10 -9 -17.5t-10 -17.5v-4q-14 -18 -23 -39t-20 -41q-8 -16 -8 -37q0 -18 10 -33q4 -14 11.5 -28.5t11.5 -28.5q4 -10 7 -18.5t7 -18.5 q4 -8 6.5 -18.5t6.5 -20.5q0 -23 -13.5 -42t-31.5 -31q-4 -2 -9 -3q-2 0 -4 -4q-6 -2 -10 -5t-10 -3q-25 -8 -43 -2q-8 0 -21 8q-6 0 -12 1t-10 -1q-10 -14 -13.5 -29.5t-7.5 -31.5q-29 -112 -29 -229q0 -49 5 -99q-2 -23 -18.5 -40t-39.5 -23q-16 -10 -41 -11q-4 4 -6 3.5 t-6 1.5q-8 2 -14 7t-12 9q-4 4 -5.5 8t-5.5 8q-4 12 1 24.5t7 25.5q6 29 15 45q2 2 1 5t1 5q10 37 20 65q2 2 1 3t1 3q4 20 11.5 40t13.5 38q4 16 10 31.5t10 30.5q4 12 7 16q4 14 8 25.5t8 23.5q4 4 4 8t2 9q4 10 7 17t5 17q4 8 6.5 16.5t6.5 18.5q8 23 17 43.5t5 44.5 q-16 59 -35.5 120t-42.5 118q-10 18 -16 37.5t-16 36.5q-10 23 -21.5 41t-23.5 41q-6 12 -14.5 23t-18.5 24z" />
<glyph unicode="z" horiz-adv-x="503" d="M31 540v5q10 37 43 53q27 15 62 15q8 0 16 -1q29 -2 56.5 -3t57.5 -1q20 2 39 1t41 1l6 2q24 -2 52 4q7 2 14 2q19 0 35 -14l6 -8q5 -9 5 -18q0 -12 -5 -25q-4 -10 -11.5 -15.5t-13.5 -11.5l-53 -45q-2 -4 -4 -4t-6 -4q-16 -16 -35 -33.5t-35 -36.5q-4 0 -4 -4 q0 -2 -4 -4h2q-16 -16 -32.5 -34.5t-31.5 -36.5q-4 -4 -7 -11.5t-7 -11.5q-2 -4 -4 -4t-2 -4q-33 -43 -58.5 -91t-41.5 -102q-4 -10 -6.5 -19t4.5 -20q16 -12 26 -12q8 -4 16.5 -2t18.5 0q27 4 52.5 6t49.5 6q16 2 28.5 5.5t29.5 5.5q2 2 14 2q6 4 14.5 5t18.5 5t22.5 5 t24.5 -5q14 -8 18 -31q-2 -4 -1 -7t-1 -7q-6 -10 -17 -20.5t-26 -12.5q-2 -4 -6 -3t-8 -1h-6h-6q-4 4 -11.5 2t-11.5 2q-6 -2 -12 0t-12 2q-23 -2 -43.5 0t-42.5 0q-18 2 -36 2t-36 -2q-35 -4 -72 -4q-10 2 -18 4t-15 8q-16 8 -16 35q4 8 4 27q2 0 2 2q0 4 4 4v4q2 2 1 4 t1 4q4 10 8.5 21.5t8.5 21.5t8 21.5t8 23.5q6 10 10 22.5t11 22.5q10 23 21 47.5t26 47.5q6 16 14 26q2 4 5 9t5 10q8 12 14.5 24t16.5 25q4 4 6 10t6 10q0 4 2 4t4 4q4 10 13.5 20.5t-0.5 24.5q-4 6 -12.5 3t-16.5 2l-4 -2h-59h-2q-12 -2 -27 -3q-12 0 -25 -2q-4 -2 -8 1.5 t-8 0.5q-23 2 -43 23q-8 15 -8 28z" />
<glyph unicode="&#xad;" d="M43 342q-18 29 0 57q8 14 18.5 23.5t22.5 17.5q2 2 5 1t5 3q18 8 39 9q23 0 45 -2h12h-4q0 -6 7 0h16l-2 -2q14 2 29 2h30l2 2q8 0 15.5 -1t17.5 -1h-2q6 -2 18 -11q10 -4 14.5 -16t6.5 -23q-2 -29 -21.5 -48t-44.5 -29q-4 0 -7 -2.5t-7 -2.5l-22 -4l-29 2h-27 q-12 0 -24 2q-29 2 -62 0t-51 23z" />
<glyph unicode="&#xe0;" horiz-adv-x="684" d="M45 20q-2 -6 10 -18q2 -2 19 2q0 4 3 8t3 8q4 6 6 13.5t6 15.5q2 8 3 13.5t3 11.5q8 18 14.5 35.5t16.5 33.5q0 4 4 17l2 2q0 2 4 6q66 158 189 270q4 4 10 4h12l4 -4q8 -14 14.5 -27.5t12.5 -27.5q4 -4 2 -7t2 -5q16 -39 28.5 -77t20.5 -81q-12 -16 -24 -18 q-4 -2 -6.5 -1t-4.5 -1q-6 -4 -13 -5.5t-11 -5.5q-10 -4 -18.5 -6t-18.5 -6q-6 0 -13.5 -4t-11.5 -6q-6 -6 -15 -5t-15 -8q-2 0 -5.5 -1t-7.5 -1q-18 -10 -37 -18q-12 -6 -26 -13.5t-27 -15.5q-12 -6 -25.5 -14t-25.5 -12q-2 -6 -8 -8.5t-6 -10.5l3 -6l3 -6q10 -2 20 8 q4 0 9.5 4t9.5 4q8 6 16 10.5t19 8.5h2q0 2 4 2q4 6 11 9t15 7q33 10 60 25q4 -4 7 -1t7 3q2 4 6 3t8 3q16 4 29.5 8t30.5 10q14 2 26.5 6.5t26.5 6.5q2 2 2 0q16 0 21 -13q8 -35 12 -67q4 -12 4 -23q0 -10 4 -22q4 -20 4 -33q0 -16 8 -31q6 -16 21.5 -23t32.5 -7 q35 0 65.5 24.5t30.5 56.5q0 10 -2 13q-6 29 -10.5 57.5t-10.5 56.5l-8 27l4 8q4 4 17 4q6 2 18 2h21q39 6 79 7h80q23 0 46.5 -1t47.5 -1q16 -4 35 -5.5t37 -3.5h6h11q6 -2 20 -2t20 -2l13 -4q4 4 5 1t3 -1l41 -4q4 -2 6 -1t4 -1q8 0 8 -2q55 -6 111 -18v-3q14 -2 28.5 -4 t24.5 -6q10 -2 19.5 -3t19.5 -3l8 -4q4 -2 8.5 -1t8.5 -1q23 -4 46 -2t38 14l20 21q2 4 3 7t3 7q4 12 4 23q-4 12 -14 20t-20 14l-19 2q-4 2 -6 1t-6 4q-4 -2 -8 -1t-9 1q-14 0 -22 6q-18 0 -35.5 3t-36.5 1l-2 2q0 -2 -2 0q-6 0 -11 1t-9 1q-18 4 -37 5t-37 3q-2 0 -3 1 t-5 -1q-6 2 -31 2q-4 -2 -9 1t-9 -1q-16 4 -32 3t-30 3h-55q-4 4 -7 2t-7 0h-39h-9h-6q-4 -2 -7 -1t-5 -1q-47 2 -92 -1t-92 -7l-31 -2q-16 0 -18 -2q-23 0 -42.5 -4t-37.5 -6q-2 -2 -15 -2q-10 2 -17 4t-11 12q-10 18 -17.5 36.5t-15.5 37.5q-10 20 -23.5 41.5t-27.5 40.5 q0 4 -6 8q-12 25 -33 45q-6 4 -10.5 10t-10.5 10q-6 8 -16 19q-8 8 -15.5 15t-17.5 16q-6 6 -12 10t-12 10q-4 4 -7.5 6t-7.5 6q-6 -2 -5 3.5t-5 2.5q-10 10 -19.5 15.5t-19.5 13.5h-2q-6 4 -10 6t-8 6q-8 2 -17.5 5.5t-13.5 -3.5q-6 -6 -4 -14q12 -16 20 -22 q2 -6 7.5 -11.5t5.5 -13.5q-2 -20 -13.5 -34.5t-19.5 -30.5q-6 -10 -12.5 -21.5t-12.5 -24.5q-10 -20 -20.5 -39.5t-18.5 -39.5q-10 -14 -15 -27.5t-11 -28.5q-8 -12 -12.5 -24.5t-10.5 -26.5q0 -2 -2 -3t0 -3q-4 -4 -4 -8t-4 -8q0 -4 -3 -9.5t-3 -11.5q-8 -12 -11 -29 q-4 -2 -3 -4t-1 -4q-4 -8 -6 -15t-6 -15q0 -2 -2 -3.5t2 -3.5q-6 -8 -8 -16t-8 -16q-2 -4 -1 -8.5t-3 -8.5q-10 -37 -21 -57q0 -6 -2 -9t-2 -8zM1380 236h2h-2z" />
<glyph unicode="&#xe1;" horiz-adv-x="583" d="M35 -436q-2 20 2 41q2 53 8 104t18 103q6 25 11.5 49t13.5 47q10 37 21.5 71.5t27.5 69.5q10 27 21.5 52.5t21.5 50.5q8 14 13.5 27.5t13.5 25.5v4q14 23 26.5 47.5t26.5 48.5q10 14 17.5 28.5t17.5 26.5q0 4 2 6.5t4 6.5q10 14 17.5 27.5t17.5 27.5q4 10 12 19.5 t12 19.5v12q0 8 -4 13q-8 4 -16 4t-16 2q-29 0 -56.5 -2t-56.5 -4q-20 0 -31 4q-10 0 -16 6t-14 10q-4 4 -9 12q-4 10 -2 20.5t4 20.5q14 27 39 39t54 14q14 0 25.5 -1t21.5 -1q4 -4 6 -2t4 0q23 -2 41 -2h41q4 -2 5 0t3 0q18 0 36.5 1t39.5 1l4 2h41q20 0 33 -18 q14 -25 0 -47q-10 -14 -22.5 -24.5t-27.5 -20.5q-4 -6 -10 -10t-10 -11q-20 -18 -39.5 -37.5t-36.5 -41.5q-43 -53 -73.5 -111.5t-53.5 -122.5q-29 -86 -46 -172t-30 -178q-18 -141 -12 -283q2 -18 3 -36.5t7 -34.5q12 -25 43 -25h29q16 0 35 2q29 2 54.5 5t53.5 7 q12 4 24.5 6t27.5 7q10 2 20 6t21 4q12 0 23 -5t15.5 -15.5t2 -20.5t-8.5 -19q-6 -10 -17 -17t-26 -9q-16 -2 -30.5 1t-30.5 5q-2 4 -3 2l-1 -2q-8 4 -17.5 3t-17.5 1q-117 12 -229 -16q-25 -2 -48 0q-6 4 -13 5t-15 7q-10 4 -18.5 14.5t-12.5 20.5l-6 20q0 16 -1 32.5 t-3 33.5q0 23 -2 43z" />
<glyph unicode="&#x2000;" horiz-adv-x="740" />
<glyph unicode="&#x2001;" horiz-adv-x="1481" />
<glyph unicode="&#x2002;" horiz-adv-x="740" />
<glyph unicode="&#x2003;" horiz-adv-x="1481" />
<glyph unicode="&#x2004;" horiz-adv-x="493" />
<glyph unicode="&#x2005;" horiz-adv-x="370" />
<glyph unicode="&#x2006;" horiz-adv-x="246" />
<glyph unicode="&#x2007;" horiz-adv-x="246" />
<glyph unicode="&#x2008;" horiz-adv-x="185" />
<glyph unicode="&#x2009;" horiz-adv-x="296" />
<glyph unicode="&#x200a;" horiz-adv-x="82" />
<glyph unicode="&#x2010;" d="M43 342q-18 29 0 57q8 14 18.5 23.5t22.5 17.5q2 2 5 1t5 3q18 8 39 9q23 0 45 -2h12h-4q0 -6 7 0h16l-2 -2q14 2 29 2h30l2 2q8 0 15.5 -1t17.5 -1h-2q6 -2 18 -11q10 -4 14.5 -16t6.5 -23q-2 -29 -21.5 -48t-44.5 -29q-4 0 -7 -2.5t-7 -2.5l-22 -4l-29 2h-27 q-12 0 -24 2q-29 2 -62 0t-51 23z" />
<glyph unicode="&#x2011;" d="M43 342q-18 29 0 57q8 14 18.5 23.5t22.5 17.5q2 2 5 1t5 3q18 8 39 9q23 0 45 -2h12h-4q0 -6 7 0h16l-2 -2q14 2 29 2h30l2 2q8 0 15.5 -1t17.5 -1h-2q6 -2 18 -11q10 -4 14.5 -16t6.5 -23q-2 -29 -21.5 -48t-44.5 -29q-4 0 -7 -2.5t-7 -2.5l-22 -4l-29 2h-27 q-12 0 -24 2q-29 2 -62 0t-51 23z" />
<glyph unicode="&#x2012;" d="M43 342q-18 29 0 57q8 14 18.5 23.5t22.5 17.5q2 2 5 1t5 3q18 8 39 9q23 0 45 -2h12h-4q0 -6 7 0h16l-2 -2q14 2 29 2h30l2 2q8 0 15.5 -1t17.5 -1h-2q6 -2 18 -11q10 -4 14.5 -16t6.5 -23q-2 -29 -21.5 -48t-44.5 -29q-4 0 -7 -2.5t-7 -2.5l-22 -4l-29 2h-27 q-12 0 -24 2q-29 2 -62 0t-51 23z" />
<glyph unicode="&#x2013;" horiz-adv-x="1092" d="M64 342q-60 29 0 57q27 14 62.5 23.5t75.5 17.5q7 2 17 1t17 3q61 8 131 9q78 0 152 -2h40h-13q0 -6 24 0h53l-6 -2q47 2 97 2h101l7 2q27 0 52.5 -1t58.5 -1h-6q20 -2 60 -11q34 -4 49 -16t22 -23q-7 -29 -72.5 -48t-149.5 -29q-14 0 -24 -2.5t-23 -2.5l-75 -4l-97 2 h-91q-41 0 -81 2q-98 2 -209 0t-172 23z" />
<glyph unicode="&#x2014;" horiz-adv-x="2116" d="M95 342q-122 29 0 57q54 14 124.5 23.5t151.5 17.5q13 2 33.5 1t33.5 3q121 8 263 9q155 0 303 -2h81h-27q0 -6 47 0h108l-14 -2q95 2 196 2h202l13 2q54 0 104.5 -1t118.5 -1h-14q41 -2 122 -11q67 -4 97.5 -16t43.5 -23q-13 -29 -144.5 -48t-300.5 -29q-27 0 -47 -2.5 t-47 -2.5l-148 -4l-196 2h-181q-81 0 -162 2q-195 2 -417.5 0t-343.5 23z" />
<glyph unicode="&#x202f;" horiz-adv-x="296" />
<glyph unicode="&#x205f;" horiz-adv-x="370" />
<glyph unicode="&#x25fc;" horiz-adv-x="610" d="M0 0v610h610v-610h-610z" />
</font>
</defs>
</svg>
